{"glyphs":{"0":{"ha":723,"x_min":45,"x_max":679,"o":"m 362 -17 q 220 22 280 -17 q 122 126 161 61 q 64 272 83 192 q 45 434 45 352 q 64 597 45 516 q 122 742 83 677 q 220 846 161 807 q 362 885 280 885 q 503 846 444 885 q 602 742 562 807 q 660 597 641 677 q 679 434 679 516 q 660 272 679 352 q 602 126 641 192 q 503 22 562 61 q 362 -17 444 -17 m 362 124 q 435 152 405 124 q 485 226 466 180 q 512 326 503 272 q 521 434 521 381 q 512 542 521 488 q 485 642 503 596 q 435 716 466 688 q 362 744 405 744 q 288 716 319 744 q 239 642 258 688 q 211 542 220 596 q 203 434 203 488 q 211 326 203 381 q 239 226 220 272 q 288 152 258 180 q 362 124 319 124 z "},"1":{"ha":723,"x_min":148,"x_max":634,"o":"m 148 0 l 148 126 l 336 126 l 336 673 l 148 579 l 148 727 l 485 896 l 485 126 l 634 126 l 634 0 l 148 0 z "},"2":{"ha":723,"x_min":78,"x_max":645,"o":"m 91 0 l 443 518 q 474 576 466 553 q 481 618 481 599 q 444 707 481 670 q 353 744 407 744 q 262 707 299 744 q 226 618 226 670 q 283 503 226 552 l 108 503 q 78 619 78 558 q 115 752 78 692 q 214 849 151 812 q 354 885 277 885 q 494 849 430 885 q 596 753 557 813 q 634 618 634 693 q 618 531 634 573 q 565 440 602 490 l 356 142 l 645 142 l 645 0 l 91 0 z "},"3":{"ha":723,"x_min":52,"x_max":631,"o":"m 314 -17 q 163 19 231 -17 q 52 118 94 56 l 134 279 q 198 169 149 214 q 315 124 248 124 q 400 146 363 124 q 460 205 438 168 q 482 288 482 242 q 461 371 482 334 q 401 430 439 408 q 313 451 363 451 q 259 444 285 451 q 207 423 233 437 l 366 732 l 112 732 l 112 868 l 592 868 l 427 561 q 531 503 485 543 q 604 408 577 463 q 631 285 631 352 q 587 131 631 200 q 472 23 544 63 q 314 -17 400 -17 z "},"4":{"ha":723,"x_min":8,"x_max":680,"o":"m 427 0 l 427 212 l 8 212 l 343 868 l 503 868 l 228 340 l 430 340 l 430 518 l 571 593 l 571 340 l 680 340 l 680 212 l 575 212 l 575 0 l 427 0 z "},"5":{"ha":723,"x_min":52,"x_max":631,"o":"m 317 -17 q 163 19 233 -17 q 52 118 94 56 l 134 279 q 198 169 149 214 q 315 124 248 124 q 399 146 362 124 q 460 205 437 168 q 482 289 482 242 q 459 374 482 338 q 396 431 435 410 q 310 451 357 451 q 226 433 265 451 q 159 382 187 414 l 159 868 l 570 868 l 570 731 l 287 731 l 287 574 q 313 580 300 578 q 340 582 326 582 q 484 543 418 582 q 590 439 550 505 q 631 287 631 373 q 588 133 631 202 q 474 23 545 64 q 317 -17 403 -17 z "},"6":{"ha":723,"x_min":55,"x_max":680,"o":"m 367 -17 q 209 23 281 -17 q 96 131 138 63 q 55 284 55 199 q 66 360 55 323 q 95 433 76 397 l 323 868 l 486 868 l 324 570 q 354 579 339 577 q 385 582 369 582 q 533 542 466 582 q 640 435 600 503 q 680 285 680 368 q 639 131 680 200 q 526 23 597 63 q 367 -17 455 -17 m 367 124 q 450 147 414 124 q 509 205 487 169 q 531 287 531 242 q 510 369 531 332 q 451 428 488 406 q 367 450 414 450 q 285 428 322 450 q 226 369 248 406 q 204 287 204 332 q 226 205 204 242 q 285 147 248 169 q 367 124 322 124 z "},"7":{"ha":723,"x_min":75,"x_max":693,"o":"m 106 0 l 457 726 l 75 726 l 75 868 l 693 868 l 279 0 l 106 0 z "},"8":{"ha":723,"x_min":54,"x_max":670,"o":"m 362 -17 q 208 23 279 -17 q 96 131 138 63 q 54 284 54 199 q 91 427 54 363 q 189 530 128 492 q 151 591 165 557 q 137 667 137 625 q 167 778 137 729 q 249 856 198 828 q 362 885 300 885 q 475 856 424 885 q 556 778 526 828 q 586 667 586 729 q 572 592 586 626 q 535 530 558 557 q 633 427 595 492 q 670 284 670 363 q 627 132 670 201 q 514 23 584 64 q 362 -17 444 -17 m 362 122 q 444 143 407 122 q 502 202 480 165 q 524 284 524 238 q 502 366 524 329 q 444 424 480 402 q 362 446 407 446 q 280 424 316 446 q 221 366 243 402 q 200 284 200 329 q 221 202 200 238 q 280 143 243 165 q 362 122 316 122 m 362 568 q 428 595 401 568 q 454 661 454 622 q 427 727 454 700 q 362 754 400 754 q 296 727 323 754 q 269 662 269 700 q 296 596 269 623 q 362 568 323 568 z "},"9":{"ha":723,"x_min":51,"x_max":663,"o":"m 231 0 l 395 310 q 368 301 382 304 q 340 299 354 299 q 194 338 259 299 q 90 442 128 376 q 51 589 51 507 q 92 740 51 673 q 203 846 133 807 q 357 885 272 885 q 511 846 442 885 q 622 741 581 807 q 663 591 663 674 q 653 516 663 553 q 624 446 643 480 l 392 0 l 231 0 m 357 430 q 436 451 400 430 q 493 508 472 472 q 514 587 514 544 q 493 666 514 631 q 436 722 472 701 q 357 744 400 744 q 278 722 313 744 q 221 666 242 701 q 200 586 200 630 q 221 508 200 544 q 278 451 242 472 q 357 430 313 430 z "},"\r":{"ha":772,"x_min":0,"x_max":0,"o":""}," ":{"ha":1389,"x_min":0,"x_max":0,"o":""}," ":{"ha":694,"x_min":0,"x_max":0,"o":""}," ":{"ha":723,"x_min":0,"x_max":0,"o":""}," ":{"ha":347,"x_min":0,"x_max":0,"o":""}," ":{"ha":58,"x_min":0,"x_max":0,"o":""}," ":{"ha":283,"x_min":0,"x_max":0,"o":""}," ":{"ha":231,"x_min":0,"x_max":0,"o":""}," ":{"ha":289,"x_min":0,"x_max":0,"o":""}," ":{"ha":289,"x_min":0,"x_max":0,"o":""}," ":{"ha":116,"x_min":0,"x_max":0,"o":""}," ":{"ha":463,"x_min":0,"x_max":0,"o":""},"A":{"ha":786,"x_min":14,"x_max":774,"o":"m 14 0 l 393 899 l 394 899 l 774 0 l 613 0 l 539 180 l 242 180 l 168 0 l 14 0 m 294 308 l 486 308 l 441 417 q 414 485 426 451 q 390 562 401 518 q 367 485 379 518 q 340 417 355 452 l 294 308 z "},"Á":{"ha":786,"x_min":14,"x_max":774,"o":"m 14 0 l 393 899 l 394 899 l 774 0 l 613 0 l 539 180 l 242 180 l 168 0 l 14 0 m 294 308 l 486 308 l 441 417 q 414 485 426 451 q 390 562 401 518 q 367 485 379 518 q 340 417 355 452 l 294 308 m 316 946 l 461 1137 l 652 1137 l 459 946 l 316 946 z "},"Ă":{"ha":786,"x_min":14,"x_max":774,"o":"m 14 0 l 393 899 l 394 899 l 774 0 l 613 0 l 539 180 l 242 180 l 168 0 l 14 0 m 294 308 l 486 308 l 441 417 q 414 485 426 451 q 390 562 401 518 q 367 485 379 518 q 340 417 355 452 l 294 308 m 394 932 q 297 956 340 932 q 228 1023 254 981 q 203 1117 203 1065 l 315 1117 q 339 1062 315 1085 q 394 1039 362 1039 q 449 1061 425 1039 q 473 1117 473 1084 l 584 1117 q 559 1022 584 1064 q 491 956 534 980 q 394 932 448 932 z "},"Ắ":{"ha":786,"x_min":14,"x_max":774,"o":"m 14 0 l 393 899 l 394 899 l 774 0 l 613 0 l 539 180 l 242 180 l 168 0 l 14 0 m 294 308 l 486 308 l 441 417 q 414 485 426 451 q 390 562 401 518 q 367 485 379 518 q 340 417 355 452 l 294 308 m 394 932 q 297 956 340 932 q 228 1023 254 981 q 203 1117 203 1065 l 310 1117 q 335 1058 310 1082 q 394 1033 360 1033 q 452 1058 427 1033 q 477 1117 477 1082 l 584 1117 q 559 1022 584 1064 q 491 956 534 980 q 394 932 448 932 m 326 1137 l 394 1282 l 543 1282 l 438 1137 l 326 1137 z "},"Ặ":{"ha":786,"x_min":14,"x_max":774,"o":"m 14 0 l 393 899 l 394 899 l 774 0 l 613 0 l 539 180 l 242 180 l 168 0 l 14 0 m 294 308 l 486 308 l 441 417 q 414 485 426 451 q 390 562 401 518 q 367 485 379 518 q 340 417 355 452 l 294 308 m 394 -258 q 333 -234 358 -258 q 309 -174 309 -209 q 333 -113 309 -137 q 394 -89 358 -89 q 454 -113 430 -89 q 478 -174 478 -137 q 454 -234 478 -209 q 394 -258 430 -258 m 394 932 q 297 956 340 932 q 228 1023 254 981 q 203 1117 203 1065 l 315 1117 q 339 1062 315 1085 q 394 1039 362 1039 q 449 1061 425 1039 q 473 1117 473 1084 l 584 1117 q 559 1022 584 1064 q 491 956 534 980 q 394 932 448 932 z "},"Ằ":{"ha":786,"x_min":14,"x_max":774,"o":"m 14 0 l 393 899 l 394 899 l 774 0 l 613 0 l 539 180 l 242 180 l 168 0 l 14 0 m 294 308 l 486 308 l 441 417 q 414 485 426 451 q 390 562 401 518 q 367 485 379 518 q 340 417 355 452 l 294 308 m 394 932 q 297 956 340 932 q 228 1022 254 980 q 203 1117 203 1065 l 310 1117 q 335 1058 310 1082 q 394 1033 360 1033 q 452 1058 427 1033 q 477 1117 477 1082 l 584 1117 q 559 1022 584 1064 q 491 956 534 980 q 394 932 448 932 m 349 1137 l 244 1282 l 393 1282 l 461 1137 l 349 1137 z "},"Ẳ":{"ha":786,"x_min":14,"x_max":774,"o":"m 14 0 l 393 899 l 394 899 l 774 0 l 613 0 l 539 180 l 242 180 l 168 0 l 14 0 m 294 308 l 486 308 l 441 417 q 414 485 426 451 q 390 562 401 518 q 367 485 379 518 q 340 417 355 452 l 294 308 m 394 932 q 297 956 340 932 q 228 1022 254 980 q 203 1117 203 1065 l 310 1117 q 335 1058 310 1082 q 394 1033 360 1033 q 452 1058 427 1033 q 477 1117 477 1082 l 584 1117 q 559 1022 584 1064 q 491 956 534 981 q 394 932 448 932 m 340 1137 q 367 1171 358 1156 q 375 1200 375 1186 q 363 1229 375 1217 q 329 1240 351 1240 q 298 1231 313 1240 q 271 1209 282 1221 l 246 1298 q 293 1322 263 1313 q 355 1331 323 1331 q 453 1303 413 1331 q 494 1223 494 1274 q 484 1176 494 1197 q 456 1137 474 1155 l 340 1137 z "},"Ẵ":{"ha":786,"x_min":14,"x_max":774,"o":"m 14 0 l 393 899 l 394 899 l 774 0 l 613 0 l 539 180 l 242 180 l 168 0 l 14 0 m 294 308 l 486 308 l 441 417 q 414 485 426 451 q 390 562 401 518 q 367 485 379 518 q 340 417 355 452 l 294 308 m 394 932 q 297 956 340 932 q 228 1023 254 981 q 203 1117 203 1065 l 310 1117 q 335 1058 310 1082 q 394 1033 360 1033 q 452 1058 427 1033 q 477 1117 477 1082 l 584 1117 q 559 1022 584 1064 q 491 956 534 980 q 394 932 448 932 m 241 1154 l 207 1251 q 253 1303 224 1285 q 316 1320 283 1320 q 372 1310 346 1320 q 421 1288 397 1299 q 470 1276 445 1276 q 516 1292 497 1276 q 547 1337 535 1308 l 581 1240 q 534 1189 563 1208 q 471 1171 505 1171 q 415 1182 441 1171 q 366 1204 390 1193 q 318 1215 342 1215 q 241 1154 265 1215 z "},"Â":{"ha":786,"x_min":14,"x_max":774,"o":"m 14 0 l 393 899 l 394 899 l 774 0 l 613 0 l 539 180 l 242 180 l 168 0 l 14 0 m 294 308 l 486 308 l 441 417 q 414 485 426 451 q 390 562 401 518 q 367 485 379 518 q 340 417 355 452 l 294 308 m 190 946 l 394 1175 l 598 946 l 453 946 q 422 983 436 965 q 392 1024 408 1001 q 362 983 375 1001 q 331 946 348 965 l 190 946 z "},"Ấ":{"ha":786,"x_min":14,"x_max":774,"o":"m 14 0 l 393 899 l 394 899 l 774 0 l 613 0 l 539 180 l 242 180 l 168 0 l 14 0 m 294 308 l 486 308 l 441 417 q 414 485 426 451 q 390 562 401 518 q 367 485 379 518 q 340 417 355 452 l 294 308 m 190 946 l 394 1175 l 598 946 l 453 946 q 422 983 436 965 q 392 1024 408 1001 q 362 983 375 1001 q 331 946 348 965 l 190 946 m 520 1079 l 588 1224 l 737 1224 l 632 1079 l 520 1079 z "},"Ậ":{"ha":786,"x_min":14,"x_max":774,"o":"m 14 0 l 393 899 l 394 899 l 774 0 l 613 0 l 539 180 l 242 180 l 168 0 l 14 0 m 294 308 l 486 308 l 441 417 q 414 485 426 451 q 390 562 401 518 q 367 485 379 518 q 340 417 355 452 l 294 308 m 394 -258 q 333 -234 358 -258 q 309 -174 309 -209 q 333 -113 309 -137 q 394 -89 358 -89 q 454 -113 430 -89 q 478 -174 478 -137 q 454 -234 478 -209 q 394 -258 430 -258 m 190 946 l 394 1175 l 598 946 l 453 946 q 422 983 436 965 q 392 1024 408 1001 q 362 983 375 1001 q 331 946 348 965 l 190 946 z "},"Ầ":{"ha":786,"x_min":14,"x_max":774,"o":"m 14 0 l 393 899 l 394 899 l 774 0 l 613 0 l 539 180 l 242 180 l 168 0 l 14 0 m 294 308 l 486 308 l 441 417 q 414 485 426 451 q 390 562 401 518 q 367 485 379 518 q 340 417 355 452 l 294 308 m 190 946 l 394 1175 l 598 946 l 453 946 q 422 983 436 965 q 392 1024 408 1001 q 362 983 375 1001 q 331 946 348 965 l 190 946 m 591 1079 l 486 1224 l 635 1224 l 703 1079 l 591 1079 z "},"Ẩ":{"ha":786,"x_min":14,"x_max":774,"o":"m 14 0 l 393 899 l 394 899 l 774 0 l 613 0 l 539 180 l 242 180 l 168 0 l 14 0 m 294 308 l 486 308 l 441 417 q 414 485 426 451 q 390 562 401 518 q 367 485 379 518 q 340 417 355 452 l 294 308 m 190 946 l 394 1175 l 598 946 l 453 946 q 422 983 436 965 q 392 1024 408 1001 q 362 983 375 1001 q 331 946 348 965 l 190 946 m 553 1071 q 584 1113 573 1094 q 595 1146 595 1131 q 583 1175 595 1164 q 549 1186 571 1186 q 517 1177 533 1186 q 491 1156 502 1168 l 466 1245 q 513 1268 483 1259 q 575 1278 543 1278 q 673 1250 633 1278 q 714 1169 714 1221 q 701 1114 714 1138 q 670 1071 688 1090 l 553 1071 z "},"Ẫ":{"ha":786,"x_min":14,"x_max":774,"o":"m 14 0 l 393 899 l 394 899 l 774 0 l 613 0 l 539 180 l 242 180 l 168 0 l 14 0 m 294 308 l 486 308 l 441 417 q 414 485 426 451 q 390 562 401 518 q 367 485 379 518 q 340 417 355 452 l 294 308 m 190 946 l 394 1159 l 598 946 l 453 946 q 422 978 436 962 q 392 1014 408 994 q 362 978 375 994 q 331 946 348 962 l 190 946 m 241 1154 l 207 1251 q 253 1303 224 1285 q 316 1320 283 1320 q 372 1310 346 1320 q 421 1288 397 1299 q 470 1276 445 1276 q 516 1292 497 1276 q 547 1337 535 1308 l 581 1240 q 534 1189 563 1208 q 471 1171 505 1171 q 415 1182 441 1171 q 366 1204 390 1193 q 318 1215 342 1215 q 241 1154 265 1215 z "},"Ȁ":{"ha":786,"x_min":14,"x_max":774,"o":"m 14 0 l 393 899 l 394 899 l 774 0 l 613 0 l 539 180 l 242 180 l 168 0 l 14 0 m 294 308 l 486 308 l 441 417 q 414 485 426 451 q 390 562 401 518 q 367 485 379 518 q 340 417 355 452 l 294 308 m 456 946 l 350 1128 l 509 1128 l 569 946 l 456 946 m 225 946 l 119 1128 l 278 1128 l 338 946 l 225 946 z "},"Ä":{"ha":786,"x_min":14,"x_max":774,"o":"m 14 0 l 393 899 l 394 899 l 774 0 l 613 0 l 539 180 l 242 180 l 168 0 l 14 0 m 294 308 l 486 308 l 441 417 q 414 485 426 451 q 390 562 401 518 q 367 485 379 518 q 340 417 355 452 l 294 308 m 561 877 q 500 901 525 877 q 475 964 475 926 q 499 1026 475 1001 q 561 1050 524 1050 q 624 1026 599 1050 q 648 964 648 1001 q 624 902 648 927 q 561 877 599 877 m 226 877 q 164 901 189 877 q 139 964 139 926 q 163 1026 139 1001 q 226 1050 188 1050 q 288 1026 263 1050 q 313 964 313 1001 q 288 902 313 927 q 226 877 263 877 z "},"Ạ":{"ha":786,"x_min":14,"x_max":774,"o":"m 14 0 l 393 899 l 394 899 l 774 0 l 613 0 l 539 180 l 242 180 l 168 0 l 14 0 m 294 308 l 486 308 l 441 417 q 414 485 426 451 q 390 562 401 518 q 367 485 379 518 q 340 417 355 452 l 294 308 m 394 -258 q 333 -234 358 -258 q 309 -174 309 -209 q 333 -113 309 -137 q 394 -89 358 -89 q 454 -113 430 -89 q 478 -174 478 -137 q 454 -234 478 -209 q 394 -258 430 -258 z "},"À":{"ha":786,"x_min":14,"x_max":774,"o":"m 14 0 l 393 899 l 394 899 l 774 0 l 613 0 l 539 180 l 242 180 l 168 0 l 14 0 m 294 308 l 486 308 l 441 417 q 414 485 426 451 q 390 562 401 518 q 367 485 379 518 q 340 417 355 452 l 294 308 m 329 946 l 135 1137 l 326 1137 l 472 946 l 329 946 z "},"Ả":{"ha":786,"x_min":14,"x_max":774,"o":"m 14 0 l 393 899 l 394 899 l 774 0 l 613 0 l 539 180 l 242 180 l 168 0 l 14 0 m 294 308 l 486 308 l 441 417 q 414 485 426 451 q 390 562 401 518 q 367 485 379 518 q 340 417 355 452 l 294 308 m 347 946 q 381 994 369 973 q 394 1032 394 1015 q 380 1063 394 1051 q 343 1075 367 1075 q 308 1065 325 1075 q 279 1043 290 1055 l 253 1140 q 303 1165 271 1155 q 371 1176 336 1176 q 478 1144 434 1176 q 522 1057 522 1112 q 507 995 522 1022 q 475 946 493 967 l 347 946 z "},"Ȃ":{"ha":786,"x_min":14,"x_max":774,"o":"m 14 0 l 393 899 l 394 899 l 774 0 l 613 0 l 539 180 l 242 180 l 168 0 l 14 0 m 294 308 l 486 308 l 441 417 q 414 485 426 451 q 390 562 401 518 q 367 485 379 518 q 340 417 355 452 l 294 308 m 203 932 q 228 1027 203 985 q 297 1093 254 1069 q 394 1117 340 1117 q 490 1093 447 1117 q 559 1027 534 1069 q 584 932 584 985 l 473 932 q 449 988 473 965 q 394 1011 425 1011 q 339 988 363 1011 q 315 932 315 965 l 203 932 z "},"Ā":{"ha":786,"x_min":14,"x_max":774,"o":"m 14 0 l 393 899 l 394 899 l 774 0 l 613 0 l 539 180 l 242 180 l 168 0 l 14 0 m 294 308 l 486 308 l 441 417 q 414 485 426 451 q 390 562 401 518 q 367 485 379 518 q 340 417 355 452 l 294 308 m 219 989 l 219 1096 l 569 1096 l 569 989 l 219 989 z "},"Ą":{"ha":786,"x_min":14,"x_max":774,"o":"m 710 -305 q 578 -266 632 -305 q 525 -148 525 -228 q 539 -74 525 -115 q 601 29 553 -34 l 539 180 l 242 180 l 168 0 l 14 0 l 393 899 l 394 899 l 774 0 l 716 0 q 674 -56 690 -29 q 658 -116 658 -84 q 680 -172 658 -154 q 737 -190 703 -189 l 710 -305 m 294 308 l 486 308 l 441 417 q 414 485 426 451 q 390 562 401 518 q 367 485 379 518 q 340 417 355 452 l 294 308 z "},"Å":{"ha":786,"x_min":14,"x_max":774,"o":"m 14 0 l 348 793 q 265 849 298 807 q 231 946 231 891 q 279 1060 231 1014 q 394 1105 326 1105 q 475 1085 438 1105 q 533 1028 511 1064 q 556 946 556 992 q 522 849 556 891 q 438 793 489 807 l 774 0 l 613 0 l 539 180 l 242 180 l 168 0 l 14 0 m 294 308 l 486 308 l 441 417 q 414 485 426 451 q 390 562 401 518 q 367 485 379 518 q 340 417 355 452 l 294 308 m 394 876 q 442 897 421 876 q 463 946 463 918 q 442 996 463 975 q 394 1017 421 1017 q 344 996 365 1017 q 323 946 323 975 q 344 897 323 918 q 394 876 365 876 z "},"Ǻ":{"ha":786,"x_min":14,"x_max":774,"o":"m 14 0 l 348 793 q 265 849 298 807 q 231 946 231 891 q 279 1060 231 1014 q 394 1105 326 1105 q 475 1085 438 1105 q 533 1028 511 1064 q 556 946 556 992 q 522 849 556 891 q 438 793 489 807 l 774 0 l 613 0 l 539 180 l 242 180 l 168 0 l 14 0 m 294 308 l 486 308 l 441 417 q 414 485 426 451 q 390 562 401 518 q 367 485 379 518 q 340 417 355 452 l 294 308 m 394 876 q 442 897 421 876 q 463 946 463 918 q 442 996 463 975 q 394 1017 421 1017 q 344 996 365 1017 q 323 946 323 975 q 344 897 323 918 q 394 876 365 876 m 341 1163 l 395 1288 l 534 1288 l 452 1163 l 341 1163 z "},"Ã":{"ha":786,"x_min":14,"x_max":774,"o":"m 14 0 l 393 899 l 394 899 l 774 0 l 613 0 l 539 180 l 242 180 l 168 0 l 14 0 m 294 308 l 486 308 l 441 417 q 414 485 426 451 q 390 562 401 518 q 367 485 379 518 q 340 417 355 452 l 294 308 m 202 957 l 172 1067 q 225 1126 192 1105 q 294 1146 258 1146 q 366 1129 332 1146 q 431 1097 399 1113 q 494 1080 463 1080 q 547 1098 525 1080 q 585 1149 570 1116 l 615 1038 q 563 980 595 1000 q 493 960 530 960 q 422 976 456 960 q 356 1009 388 992 q 293 1025 325 1025 q 240 1007 263 1025 q 202 957 216 989 z "},"Æ":{"ha":998,"x_min":14,"x_max":974,"o":"m 14 0 l 380 868 l 777 868 l 777 731 l 514 731 l 562 584 l 806 584 l 806 451 l 608 451 l 710 142 l 974 142 l 974 0 l 605 0 l 545 180 l 242 180 l 168 0 l 14 0 m 294 308 l 503 308 l 466 417 q 437 504 451 459 q 409 604 422 549 q 375 504 394 549 q 340 417 357 459 l 294 308 z "},"Ǽ":{"ha":998,"x_min":14,"x_max":974,"o":"m 14 0 l 380 868 l 777 868 l 777 731 l 514 731 l 562 584 l 806 584 l 806 451 l 608 451 l 710 142 l 974 142 l 974 0 l 605 0 l 545 180 l 242 180 l 168 0 l 14 0 m 294 308 l 503 308 l 466 417 q 437 504 451 459 q 409 604 422 549 q 375 504 394 549 q 340 417 357 459 l 294 308 m 502 946 l 646 1137 l 837 1137 l 644 946 l 502 946 z "},"B":{"ha":723,"x_min":100,"x_max":674,"o":"m 100 0 l 100 868 l 365 868 q 502 835 450 868 q 574 755 553 802 q 596 666 596 708 q 580 591 596 626 q 535 531 563 557 q 636 433 597 496 q 674 293 674 370 q 638 153 674 220 q 531 43 602 86 q 356 0 460 0 l 100 0 m 254 142 l 341 142 q 439 166 402 142 q 494 226 476 190 q 511 298 511 262 q 494 369 511 333 q 440 430 477 405 q 341 454 403 454 l 254 454 l 254 142 m 254 569 l 340 569 q 419 592 389 569 q 448 658 448 614 q 419 725 448 702 q 344 748 390 748 l 254 748 l 254 569 z "},"C":{"ha":847,"x_min":54,"x_max":814,"o":"m 511 -17 q 334 18 417 -17 q 188 115 251 53 q 89 258 124 177 q 54 434 54 340 q 89 610 54 528 q 188 753 124 692 q 334 850 251 815 q 511 885 417 885 q 676 856 599 885 q 814 774 753 827 l 769 588 q 666 693 731 651 q 516 734 600 734 q 367 693 433 734 q 261 585 300 653 q 223 434 223 518 q 261 284 223 352 q 367 175 300 215 q 516 135 433 135 q 665 177 599 135 q 769 281 731 218 l 814 95 q 676 13 753 42 q 511 -17 599 -17 z "},"Ć":{"ha":847,"x_min":54,"x_max":814,"o":"m 511 -17 q 334 18 417 -17 q 188 115 251 53 q 89 258 124 177 q 54 434 54 340 q 89 610 54 528 q 188 753 124 692 q 334 850 251 815 q 511 885 417 885 q 676 856 599 885 q 814 774 753 827 l 769 588 q 666 693 731 651 q 516 734 600 734 q 367 693 433 734 q 261 585 300 653 q 223 434 223 518 q 261 284 223 352 q 367 175 300 215 q 516 135 433 135 q 665 177 599 135 q 769 281 731 218 l 814 95 q 676 13 753 42 q 511 -17 599 -17 m 434 946 l 579 1137 l 770 1137 l 577 946 l 434 946 z "},"Č":{"ha":847,"x_min":54,"x_max":814,"o":"m 511 -17 q 334 18 417 -17 q 188 115 251 53 q 89 258 124 177 q 54 434 54 340 q 89 610 54 528 q 188 753 124 692 q 334 850 251 815 q 511 885 417 885 q 676 856 599 885 q 814 774 753 827 l 769 588 q 666 693 731 651 q 516 734 600 734 q 367 693 433 734 q 261 585 300 653 q 223 434 223 518 q 261 284 223 352 q 367 175 300 215 q 516 135 433 135 q 665 177 599 135 q 769 281 731 218 l 814 95 q 676 13 753 42 q 511 -17 599 -17 m 511 938 l 308 1166 l 452 1166 q 483 1129 470 1148 q 513 1088 497 1111 q 543 1129 530 1111 q 575 1166 557 1148 l 716 1166 l 511 938 z "},"Ç":{"ha":847,"x_min":54,"x_max":814,"o":"m 258 -182 l 433 -11 q 239 71 325 8 q 104 228 153 134 q 54 434 54 322 q 89 610 54 528 q 188 753 124 692 q 334 850 251 815 q 511 885 417 885 q 676 856 599 885 q 814 774 753 827 l 769 588 q 666 693 731 651 q 516 734 600 734 q 367 693 433 734 q 261 585 300 653 q 223 434 223 518 q 261 284 223 352 q 367 175 300 215 q 516 135 433 135 q 665 177 599 135 q 769 281 731 218 l 814 95 q 701 23 763 51 q 568 -14 639 -5 l 448 -182 l 258 -182 z "},"Ĉ":{"ha":847,"x_min":54,"x_max":814,"o":"m 511 -17 q 334 18 417 -17 q 188 115 251 53 q 89 258 124 177 q 54 434 54 340 q 89 610 54 528 q 188 753 124 692 q 334 850 251 815 q 511 885 417 885 q 676 856 599 885 q 814 774 753 827 l 769 588 q 666 693 731 651 q 516 734 600 734 q 367 693 433 734 q 261 585 300 653 q 223 434 223 518 q 261 284 223 352 q 367 175 300 215 q 516 135 433 135 q 665 177 599 135 q 769 281 731 218 l 814 95 q 676 13 753 42 q 511 -17 599 -17 m 308 946 l 511 1175 l 716 946 l 571 946 q 540 983 554 965 q 509 1024 526 1001 q 479 983 493 1001 q 448 946 466 965 l 308 946 z "},"Ċ":{"ha":847,"x_min":54,"x_max":814,"o":"m 511 -17 q 334 18 417 -17 q 188 115 251 53 q 89 258 124 177 q 54 434 54 340 q 89 610 54 528 q 188 753 124 692 q 334 850 251 815 q 511 885 417 885 q 676 856 599 885 q 814 774 753 827 l 769 588 q 666 693 731 651 q 516 734 600 734 q 367 693 433 734 q 261 585 300 653 q 223 434 223 518 q 261 284 223 352 q 367 175 300 215 q 516 135 433 135 q 665 177 599 135 q 769 281 731 218 l 814 95 q 676 13 753 42 q 511 -17 599 -17 m 511 955 q 450 980 476 955 q 424 1042 424 1005 q 449 1104 424 1079 q 511 1128 475 1128 q 573 1104 549 1128 q 598 1042 598 1079 q 573 980 598 1006 q 511 955 549 955 z "},"D":{"ha":911,"x_min":100,"x_max":858,"o":"m 100 0 l 100 868 l 393 868 q 585 833 500 868 q 733 738 671 799 q 826 599 794 677 q 858 434 858 521 q 826 270 858 348 q 733 131 794 191 q 585 35 671 70 q 393 0 500 0 l 100 0 m 254 142 l 378 142 q 517 166 458 142 q 615 231 576 190 q 674 325 655 273 q 693 434 693 377 q 674 543 693 491 q 615 638 655 596 q 517 703 576 679 q 378 726 458 726 l 254 726 l 254 142 z "},"Ǆ":{"ha":1534,"x_min":100,"x_max":1513,"o":"m 100 0 l 100 868 l 393 868 q 585 833 500 868 q 733 738 671 799 q 826 599 794 677 q 858 434 858 521 q 826 270 858 348 q 733 131 794 191 q 585 35 671 70 q 393 0 500 0 l 100 0 m 254 142 l 378 142 q 517 166 458 142 q 615 231 576 190 q 674 325 655 273 q 693 434 693 377 q 674 543 693 491 q 615 638 655 596 q 517 703 576 679 q 378 726 458 726 l 254 726 l 254 142 m 920 0 l 1281 726 l 963 726 l 963 868 l 1513 868 l 1153 142 l 1494 142 l 1494 0 l 920 0 m 1236 938 l 1033 1166 l 1178 1166 q 1209 1129 1195 1148 q 1238 1088 1222 1111 q 1269 1129 1255 1111 q 1300 1166 1283 1148 l 1441 1166 l 1236 938 z "},"Ð":{"ha":911,"x_min":14,"x_max":858,"o":"m 100 0 l 100 407 l 14 407 l 14 519 l 100 519 l 100 868 l 393 868 q 585 833 500 868 q 733 738 671 799 q 826 599 794 677 q 858 434 858 521 q 826 270 858 348 q 733 131 794 191 q 585 35 671 70 q 393 0 500 0 l 100 0 m 254 142 l 378 142 q 517 166 458 142 q 615 231 576 190 q 674 325 655 273 q 693 434 693 377 q 674 543 693 491 q 615 638 655 596 q 517 703 576 679 q 378 726 458 726 l 254 726 l 254 519 l 477 519 l 477 407 l 254 407 l 254 142 z "},"Ď":{"ha":911,"x_min":100,"x_max":858,"o":"m 100 0 l 100 868 l 393 868 q 585 833 500 868 q 733 738 671 799 q 826 599 794 677 q 858 434 858 521 q 826 270 858 348 q 733 131 794 191 q 585 35 671 70 q 393 0 500 0 l 100 0 m 254 142 l 378 142 q 517 166 458 142 q 615 231 576 190 q 674 325 655 273 q 693 434 693 377 q 674 543 693 491 q 615 638 655 596 q 517 703 576 679 q 378 726 458 726 l 254 726 l 254 142 m 393 938 l 189 1166 l 334 1166 q 365 1129 351 1148 q 394 1088 378 1111 q 425 1129 411 1111 q 456 1166 439 1148 l 597 1166 l 393 938 z "},"Đ":{"ha":911,"x_min":14,"x_max":858,"o":"m 100 0 l 100 407 l 14 407 l 14 519 l 100 519 l 100 868 l 393 868 q 585 833 500 868 q 733 738 671 799 q 826 599 794 677 q 858 434 858 521 q 826 270 858 348 q 733 131 794 191 q 585 35 671 70 q 393 0 500 0 l 100 0 m 254 142 l 378 142 q 517 166 458 142 q 615 231 576 190 q 674 325 655 273 q 693 434 693 377 q 674 543 693 491 q 615 638 655 596 q 517 703 576 679 q 378 726 458 726 l 254 726 l 254 519 l 477 519 l 477 407 l 254 407 l 254 142 z "},"ǅ":{"ha":1423,"x_min":100,"x_max":1398,"o":"m 100 0 l 100 868 l 393 868 q 585 833 500 868 q 733 738 671 799 q 826 599 794 677 q 858 434 858 521 q 826 270 858 348 q 733 131 794 191 q 585 35 671 70 q 393 0 500 0 l 100 0 m 254 142 l 378 142 q 517 166 458 142 q 615 231 576 190 q 674 325 655 273 q 693 434 693 377 q 674 543 693 491 q 615 638 655 596 q 517 703 576 679 q 378 726 458 726 l 254 726 l 254 142 m 938 0 l 1182 451 l 956 451 l 956 579 l 1398 579 l 1153 127 l 1380 127 l 1380 0 l 938 0 m 1176 648 l 972 877 l 1117 877 q 1148 840 1134 858 q 1178 799 1161 822 q 1208 840 1194 822 q 1239 877 1222 858 l 1380 877 l 1176 648 z "},"E":{"ha":608,"x_min":100,"x_max":555,"o":"m 100 0 l 100 868 l 555 868 l 555 731 l 254 731 l 254 584 l 487 584 l 487 451 l 254 451 l 254 142 l 555 142 l 555 0 l 100 0 z "},"É":{"ha":608,"x_min":100,"x_max":594,"o":"m 100 0 l 100 868 l 555 868 l 555 731 l 254 731 l 254 584 l 487 584 l 487 451 l 254 451 l 254 142 l 555 142 l 555 0 l 100 0 m 258 946 l 403 1137 l 594 1137 l 401 946 l 258 946 z "},"Ĕ":{"ha":608,"x_min":100,"x_max":555,"o":"m 100 0 l 100 868 l 555 868 l 555 731 l 254 731 l 254 584 l 487 584 l 487 451 l 254 451 l 254 142 l 555 142 l 555 0 l 100 0 m 336 932 q 239 956 283 932 q 170 1023 196 981 q 145 1117 145 1065 l 258 1117 q 281 1062 258 1085 q 336 1039 304 1039 q 391 1061 367 1039 q 415 1117 415 1084 l 527 1117 q 502 1022 527 1064 q 433 956 476 980 q 336 932 390 932 z "},"Ě":{"ha":608,"x_min":100,"x_max":555,"o":"m 100 0 l 100 868 l 555 868 l 555 731 l 254 731 l 254 584 l 487 584 l 487 451 l 254 451 l 254 142 l 555 142 l 555 0 l 100 0 m 336 938 l 132 1166 l 277 1166 q 308 1129 294 1148 q 338 1088 321 1111 q 368 1129 354 1111 q 399 1166 382 1148 l 540 1166 l 336 938 z "},"Ê":{"ha":608,"x_min":100,"x_max":555,"o":"m 100 0 l 100 868 l 555 868 l 555 731 l 254 731 l 254 584 l 487 584 l 487 451 l 254 451 l 254 142 l 555 142 l 555 0 l 100 0 m 132 946 l 336 1175 l 540 946 l 395 946 q 364 983 378 965 q 334 1024 350 1001 q 304 983 317 1001 q 273 946 290 965 l 132 946 z "},"Ế":{"ha":608,"x_min":100,"x_max":679,"o":"m 100 0 l 100 868 l 555 868 l 555 731 l 254 731 l 254 584 l 487 584 l 487 451 l 254 451 l 254 142 l 555 142 l 555 0 l 100 0 m 132 946 l 336 1175 l 540 946 l 395 946 q 364 983 378 965 q 334 1024 350 1001 q 304 983 317 1001 q 273 946 290 965 l 132 946 m 462 1079 l 530 1224 l 679 1224 l 574 1079 l 462 1079 z "},"Ệ":{"ha":608,"x_min":100,"x_max":555,"o":"m 100 0 l 100 868 l 555 868 l 555 731 l 254 731 l 254 584 l 487 584 l 487 451 l 254 451 l 254 142 l 555 142 l 555 0 l 100 0 m 336 -258 q 275 -234 300 -258 q 251 -174 251 -209 q 275 -113 251 -137 q 336 -89 300 -89 q 396 -113 372 -89 q 421 -174 421 -137 q 396 -234 421 -209 q 336 -258 372 -258 m 132 946 l 336 1175 l 540 946 l 395 946 q 364 983 378 965 q 334 1024 350 1001 q 304 983 317 1001 q 273 946 290 965 l 132 946 z "},"Ề":{"ha":608,"x_min":100,"x_max":645,"o":"m 100 0 l 100 868 l 555 868 l 555 731 l 254 731 l 254 584 l 487 584 l 487 451 l 254 451 l 254 142 l 555 142 l 555 0 l 100 0 m 132 946 l 336 1175 l 540 946 l 395 946 q 364 983 378 965 q 334 1024 350 1001 q 304 983 317 1001 q 273 946 290 965 l 132 946 m 533 1079 l 428 1224 l 577 1224 l 645 1079 l 533 1079 z "},"Ể":{"ha":608,"x_min":100,"x_max":656,"o":"m 100 0 l 100 868 l 555 868 l 555 731 l 254 731 l 254 584 l 487 584 l 487 451 l 254 451 l 254 142 l 555 142 l 555 0 l 100 0 m 132 946 l 336 1175 l 540 946 l 395 946 q 364 983 378 965 q 334 1024 350 1001 q 304 983 317 1001 q 273 946 290 965 l 132 946 m 495 1071 q 526 1113 515 1094 q 537 1146 537 1131 q 525 1175 537 1164 q 491 1186 513 1186 q 460 1177 476 1186 q 433 1156 444 1168 l 408 1245 q 455 1268 425 1259 q 517 1278 485 1278 q 615 1250 575 1278 q 656 1169 656 1221 q 643 1114 656 1138 q 612 1071 630 1090 l 495 1071 z "},"Ễ":{"ha":608,"x_min":100,"x_max":555,"o":"m 100 0 l 100 868 l 555 868 l 555 731 l 254 731 l 254 584 l 487 584 l 487 451 l 254 451 l 254 142 l 555 142 l 555 0 l 100 0 m 132 946 l 336 1159 l 540 946 l 395 946 q 364 978 378 962 q 334 1014 350 994 q 304 978 317 994 q 273 946 290 962 l 132 946 m 183 1154 l 149 1251 q 195 1303 166 1285 q 258 1320 225 1320 q 314 1310 288 1320 q 363 1288 340 1299 q 412 1276 387 1276 q 458 1292 439 1276 q 489 1337 477 1308 l 523 1240 q 476 1189 505 1208 q 413 1171 448 1171 q 357 1182 383 1171 q 308 1204 332 1193 q 260 1215 285 1215 q 183 1154 207 1215 z "},"Ȅ":{"ha":608,"x_min":61,"x_max":555,"o":"m 100 0 l 100 868 l 555 868 l 555 731 l 254 731 l 254 584 l 487 584 l 487 451 l 254 451 l 254 142 l 555 142 l 555 0 l 100 0 m 398 946 l 292 1128 l 451 1128 l 511 946 l 398 946 m 167 946 l 61 1128 l 220 1128 l 280 946 l 167 946 z "},"Ë":{"ha":608,"x_min":100,"x_max":555,"o":"m 100 0 l 100 868 l 555 868 l 555 731 l 254 731 l 254 584 l 487 584 l 487 451 l 254 451 l 254 142 l 555 142 l 555 0 l 100 0 m 467 956 q 406 981 431 956 q 381 1042 381 1006 q 406 1103 381 1078 q 467 1128 431 1128 q 528 1103 503 1128 q 553 1042 553 1078 q 528 981 553 1006 q 467 956 503 956 m 204 956 q 144 981 169 956 q 119 1042 119 1006 q 144 1103 119 1078 q 204 1128 169 1128 q 266 1103 241 1128 q 291 1042 291 1078 q 266 981 291 1006 q 204 956 241 956 z "},"Ė":{"ha":608,"x_min":100,"x_max":555,"o":"m 100 0 l 100 868 l 555 868 l 555 731 l 254 731 l 254 584 l 487 584 l 487 451 l 254 451 l 254 142 l 555 142 l 555 0 l 100 0 m 336 955 q 274 980 300 955 q 249 1042 249 1005 q 274 1104 249 1079 q 336 1128 299 1128 q 398 1104 373 1128 q 422 1042 422 1079 q 398 980 422 1006 q 336 955 373 955 z "},"Ẹ":{"ha":608,"x_min":100,"x_max":555,"o":"m 100 0 l 100 868 l 555 868 l 555 731 l 254 731 l 254 584 l 487 584 l 487 451 l 254 451 l 254 142 l 555 142 l 555 0 l 100 0 m 336 -258 q 275 -234 300 -258 q 251 -174 251 -209 q 275 -113 251 -137 q 336 -89 300 -89 q 396 -113 372 -89 q 421 -174 421 -137 q 396 -234 421 -209 q 336 -258 372 -258 z "},"È":{"ha":608,"x_min":77,"x_max":555,"o":"m 100 0 l 100 868 l 555 868 l 555 731 l 254 731 l 254 584 l 487 584 l 487 451 l 254 451 l 254 142 l 555 142 l 555 0 l 100 0 m 271 946 l 77 1137 l 268 1137 l 414 946 l 271 946 z "},"Ẻ":{"ha":608,"x_min":100,"x_max":555,"o":"m 100 0 l 100 868 l 555 868 l 555 731 l 254 731 l 254 584 l 487 584 l 487 451 l 254 451 l 254 142 l 555 142 l 555 0 l 100 0 m 289 946 q 324 994 312 973 q 336 1032 336 1015 q 322 1063 336 1051 q 285 1075 309 1075 q 250 1065 267 1075 q 221 1043 232 1055 l 195 1140 q 245 1165 213 1155 q 313 1176 278 1176 q 420 1144 376 1176 q 464 1057 464 1112 q 449 995 464 1022 q 417 946 435 967 l 289 946 z "},"Ȇ":{"ha":608,"x_min":100,"x_max":555,"o":"m 100 0 l 100 868 l 555 868 l 555 731 l 254 731 l 254 584 l 487 584 l 487 451 l 254 451 l 254 142 l 555 142 l 555 0 l 100 0 m 145 932 q 170 1027 145 985 q 239 1093 196 1069 q 336 1117 283 1117 q 433 1093 389 1117 q 502 1027 476 1069 q 527 932 527 985 l 415 932 q 391 988 415 965 q 336 1011 367 1011 q 281 988 305 1011 q 258 932 258 965 l 145 932 z "},"Ē":{"ha":608,"x_min":100,"x_max":555,"o":"m 100 0 l 100 868 l 555 868 l 555 731 l 254 731 l 254 584 l 487 584 l 487 451 l 254 451 l 254 142 l 555 142 l 555 0 l 100 0 m 161 989 l 161 1096 l 511 1096 l 511 989 l 161 989 z "},"Ę":{"ha":608,"x_min":100,"x_max":577,"o":"m 550 -305 q 418 -266 471 -305 q 365 -148 365 -228 q 380 -72 365 -109 q 422 0 395 -36 l 100 0 l 100 868 l 555 868 l 555 731 l 254 731 l 254 584 l 487 584 l 487 451 l 254 451 l 254 142 l 555 142 l 555 0 q 513 -56 530 -29 q 497 -116 497 -84 q 520 -172 497 -154 q 577 -190 543 -189 l 550 -305 z "},"Ẽ":{"ha":608,"x_min":100,"x_max":557,"o":"m 100 0 l 100 868 l 555 868 l 555 731 l 254 731 l 254 584 l 487 584 l 487 451 l 254 451 l 254 142 l 555 142 l 555 0 l 100 0 m 144 957 l 114 1067 q 167 1126 134 1105 q 236 1146 200 1146 q 308 1129 274 1146 q 373 1097 341 1113 q 436 1080 405 1080 q 489 1098 467 1080 q 528 1149 512 1116 l 557 1038 q 505 980 537 1000 q 435 960 473 960 q 364 976 398 960 q 299 1009 330 992 q 235 1025 267 1025 q 182 1007 205 1025 q 144 957 158 989 z "},"Ə":{"ha":1013,"x_min":45,"x_max":960,"o":"m 502 -17 q 325 18 407 -17 q 179 115 242 53 q 81 259 116 177 q 45 435 45 341 l 45 509 l 684 509 q 738 507 711 509 q 792 501 765 505 q 736 622 777 569 q 634 706 694 675 q 502 737 574 737 q 346 695 413 737 q 240 591 279 654 l 196 774 q 334 856 256 827 q 502 885 412 885 q 679 850 597 885 q 825 753 762 815 q 924 610 888 692 q 960 434 960 528 q 924 258 960 340 q 825 115 888 177 q 679 18 762 53 q 502 -17 597 -17 m 502 130 q 639 164 577 130 q 743 256 701 198 q 796 386 784 313 q 740 379 768 382 q 684 376 712 376 l 210 376 q 265 251 224 307 q 367 163 306 195 q 502 130 428 130 z "},"Ʒ":{"ha":637,"x_min":22,"x_max":605,"o":"m 287 -17 q 132 21 203 -17 q 22 123 62 60 l 105 287 q 168 174 118 221 q 288 126 218 126 q 373 148 336 126 q 432 207 410 170 q 454 290 454 244 q 433 372 454 336 q 374 431 412 409 q 285 453 336 453 q 232 446 258 453 q 182 425 207 439 l 339 731 l 72 731 l 72 868 l 565 868 l 405 567 q 507 508 462 549 q 578 411 552 468 q 605 288 605 355 q 561 133 605 203 q 446 23 518 64 q 287 -17 373 -17 z "},"Ǯ":{"ha":637,"x_min":22,"x_max":605,"o":"m 287 -17 q 132 21 203 -17 q 22 123 62 60 l 105 287 q 168 174 118 221 q 288 126 218 126 q 373 148 336 126 q 432 207 410 170 q 454 290 454 244 q 433 372 454 336 q 374 431 412 409 q 285 453 336 453 q 232 446 258 453 q 182 425 207 439 l 339 731 l 72 731 l 72 868 l 565 868 l 405 567 q 507 508 462 549 q 578 411 552 468 q 605 288 605 355 q 561 133 605 203 q 446 23 518 64 q 287 -17 373 -17 m 314 938 l 111 1166 l 256 1166 q 286 1129 273 1148 q 316 1088 300 1111 q 347 1129 333 1111 q 378 1166 361 1148 l 519 1166 l 314 938 z "},"F":{"ha":579,"x_min":100,"x_max":555,"o":"m 100 0 l 100 868 l 555 868 l 555 735 l 254 735 l 254 584 l 526 584 l 526 451 l 254 451 l 254 0 l 100 0 z "},"G":{"ha":892,"x_min":54,"x_max":824,"o":"m 518 -17 q 336 16 421 -17 q 188 111 252 50 q 89 255 124 173 q 54 433 54 337 q 89 611 54 530 q 188 755 124 693 q 336 851 252 817 q 517 885 420 885 q 685 856 607 885 q 824 774 763 827 l 778 591 q 673 695 740 654 q 517 737 607 737 q 364 697 432 737 q 257 588 296 657 q 218 433 218 519 q 257 277 218 345 q 364 169 296 208 q 516 129 431 129 q 597 138 559 129 q 665 165 635 147 l 665 347 l 473 347 l 473 480 l 810 480 l 810 68 q 676 5 750 28 q 518 -17 601 -17 z "},"Ğ":{"ha":892,"x_min":54,"x_max":824,"o":"m 518 -17 q 336 16 421 -17 q 188 111 252 50 q 89 255 124 173 q 54 433 54 337 q 89 611 54 530 q 188 755 124 693 q 336 851 252 817 q 517 885 420 885 q 685 856 607 885 q 824 774 763 827 l 778 591 q 673 695 740 654 q 517 737 607 737 q 364 697 432 737 q 257 588 296 657 q 218 433 218 519 q 257 277 218 345 q 364 169 296 208 q 516 129 431 129 q 597 138 559 129 q 665 165 635 147 l 665 347 l 473 347 l 473 480 l 810 480 l 810 68 q 676 5 750 28 q 518 -17 601 -17 m 511 932 q 415 956 458 932 q 346 1023 371 981 q 320 1117 320 1065 l 433 1117 q 456 1062 433 1085 q 511 1039 479 1039 q 567 1061 543 1039 q 590 1117 590 1084 l 702 1117 q 677 1022 702 1064 q 609 956 652 980 q 511 932 565 932 z "},"Ǧ":{"ha":892,"x_min":54,"x_max":824,"o":"m 518 -17 q 336 16 421 -17 q 188 111 252 50 q 89 255 124 173 q 54 433 54 337 q 89 611 54 530 q 188 755 124 693 q 336 851 252 817 q 517 885 420 885 q 685 856 607 885 q 824 774 763 827 l 778 591 q 673 695 740 654 q 517 737 607 737 q 364 697 432 737 q 257 588 296 657 q 218 433 218 519 q 257 277 218 345 q 364 169 296 208 q 516 129 431 129 q 597 138 559 129 q 665 165 635 147 l 665 347 l 473 347 l 473 480 l 810 480 l 810 68 q 676 5 750 28 q 518 -17 601 -17 m 511 938 l 308 1166 l 452 1166 q 483 1129 470 1148 q 513 1088 497 1111 q 543 1129 530 1111 q 575 1166 557 1148 l 716 1166 l 511 938 z "},"Ĝ":{"ha":892,"x_min":54,"x_max":824,"o":"m 518 -17 q 336 16 421 -17 q 188 111 252 50 q 89 255 124 173 q 54 433 54 337 q 89 611 54 530 q 188 755 124 693 q 336 851 252 817 q 517 885 420 885 q 685 856 607 885 q 824 774 763 827 l 778 591 q 673 695 740 654 q 517 737 607 737 q 364 697 432 737 q 257 588 296 657 q 218 433 218 519 q 257 277 218 345 q 364 169 296 208 q 516 129 431 129 q 597 138 559 129 q 665 165 635 147 l 665 347 l 473 347 l 473 480 l 810 480 l 810 68 q 676 5 750 28 q 518 -17 601 -17 m 308 946 l 511 1175 l 716 946 l 571 946 q 540 983 554 965 q 509 1024 526 1001 q 479 983 493 1001 q 448 946 466 965 l 308 946 z "},"Ģ":{"ha":892,"x_min":54,"x_max":824,"o":"m 518 -17 q 336 16 421 -17 q 188 111 252 50 q 89 255 124 173 q 54 433 54 337 q 89 611 54 530 q 188 755 124 693 q 336 851 252 817 q 517 885 420 885 q 685 856 607 885 q 824 774 763 827 l 778 591 q 673 695 740 654 q 517 737 607 737 q 364 697 432 737 q 257 588 296 657 q 218 433 218 519 q 257 277 218 345 q 364 169 296 208 q 516 129 431 129 q 597 138 559 129 q 665 165 635 147 l 665 347 l 473 347 l 473 480 l 810 480 l 810 68 q 676 5 750 28 q 518 -17 601 -17 m 356 -318 q 412 -223 390 -276 q 439 -107 434 -171 l 582 -107 q 559 -218 578 -165 q 511 -318 541 -271 l 356 -318 z "},"Ġ":{"ha":892,"x_min":54,"x_max":824,"o":"m 518 -17 q 336 16 421 -17 q 188 111 252 50 q 89 255 124 173 q 54 433 54 337 q 89 611 54 530 q 188 755 124 693 q 336 851 252 817 q 517 885 420 885 q 685 856 607 885 q 824 774 763 827 l 778 591 q 673 695 740 654 q 517 737 607 737 q 364 697 432 737 q 257 588 296 657 q 218 433 218 519 q 257 277 218 345 q 364 169 296 208 q 516 129 431 129 q 597 138 559 129 q 665 165 635 147 l 665 347 l 473 347 l 473 480 l 810 480 l 810 68 q 676 5 750 28 q 518 -17 601 -17 m 511 955 q 450 980 476 955 q 424 1042 424 1005 q 449 1104 424 1079 q 511 1128 475 1128 q 573 1104 549 1128 q 598 1042 598 1079 q 573 980 598 1006 q 511 955 549 955 z "},"Ǥ":{"ha":892,"x_min":54,"x_max":878,"o":"m 518 -17 q 336 16 421 -17 q 188 111 252 50 q 89 255 124 173 q 54 433 54 337 q 89 611 54 530 q 188 755 124 693 q 336 851 252 817 q 517 885 420 885 q 685 856 607 885 q 824 774 763 827 l 778 591 q 673 695 740 654 q 517 737 607 737 q 364 697 432 737 q 257 588 296 657 q 218 433 218 519 q 257 277 218 345 q 364 169 296 208 q 516 129 431 129 q 597 138 559 129 q 665 165 635 147 l 665 300 l 473 300 l 473 412 l 665 412 l 665 521 l 810 521 l 810 412 l 878 412 l 878 300 l 810 300 l 810 68 q 676 5 750 28 q 518 -17 601 -17 z "},"H":{"ha":772,"x_min":100,"x_max":672,"o":"m 100 0 l 100 868 l 254 868 l 254 589 l 519 589 l 519 868 l 672 868 l 672 0 l 519 0 l 519 448 l 254 448 l 254 0 l 100 0 z "},"Ħ":{"ha":772,"x_min":29,"x_max":743,"o":"m 100 0 l 100 645 l 29 645 l 29 744 l 100 744 l 100 868 l 254 868 l 254 744 l 519 744 l 519 868 l 672 868 l 672 744 l 743 744 l 743 645 l 672 645 l 672 0 l 519 0 l 519 407 l 254 407 l 254 0 l 100 0 m 254 549 l 519 549 l 519 645 l 254 645 l 254 549 z "},"Ĥ":{"ha":772,"x_min":100,"x_max":672,"o":"m 100 0 l 100 868 l 254 868 l 254 589 l 519 589 l 519 868 l 672 868 l 672 0 l 519 0 l 519 448 l 254 448 l 254 0 l 100 0 m 182 946 l 386 1175 l 590 946 l 446 946 q 414 983 428 965 q 384 1024 400 1001 q 354 983 367 1001 q 323 946 340 965 l 182 946 z "},"I":{"ha":376,"x_min":107,"x_max":269,"o":"m 107 0 l 107 868 l 269 868 l 269 0 l 107 0 z "},"Ĳ":{"ha":911,"x_min":107,"x_max":825,"o":"m 107 0 l 107 868 l 269 868 l 269 0 l 107 0 m 565 -17 q 468 -2 516 -17 q 388 46 421 14 l 430 197 q 481 148 449 166 q 552 129 512 129 q 630 161 598 129 q 663 266 663 192 l 663 868 l 825 868 l 825 255 q 788 101 825 161 q 693 12 752 41 q 565 -17 634 -17 z "},"Í":{"ha":376,"x_min":107,"x_max":447,"o":"m 107 0 l 107 868 l 269 868 l 269 0 l 107 0 m 111 946 l 256 1137 l 447 1137 l 254 946 l 111 946 z "},"Ĭ":{"ha":376,"x_min":-3,"x_max":379,"o":"m 107 0 l 107 868 l 269 868 l 269 0 l 107 0 m 188 932 q 92 956 135 932 q 23 1023 48 981 q -3 1117 -3 1065 l 110 1117 q 133 1062 110 1085 q 188 1039 156 1039 q 244 1061 220 1039 q 267 1117 267 1084 l 379 1117 q 354 1022 379 1064 q 285 956 329 980 q 188 932 242 932 z "},"Î":{"ha":376,"x_min":-15,"x_max":393,"o":"m 107 0 l 107 868 l 269 868 l 269 0 l 107 0 m -15 946 l 188 1175 l 393 946 l 248 946 q 217 983 231 965 q 186 1024 203 1001 q 156 983 170 1001 q 125 946 143 965 l -15 946 z "},"Ȉ":{"ha":376,"x_min":-87,"x_max":364,"o":"m 107 0 l 107 868 l 269 868 l 269 0 l 107 0 m 251 946 l 145 1128 l 304 1128 l 364 946 l 251 946 m 19 946 l -87 1128 l 72 1128 l 132 946 l 19 946 z "},"Ï":{"ha":376,"x_min":-29,"x_max":405,"o":"m 107 0 l 107 868 l 269 868 l 269 0 l 107 0 m 319 956 q 258 981 284 956 q 233 1042 233 1006 q 258 1103 233 1078 q 319 1128 284 1128 q 380 1103 356 1128 q 405 1042 405 1078 q 380 981 405 1006 q 319 956 356 956 m 57 956 q -4 981 21 956 q -29 1042 -29 1006 q -4 1103 -29 1078 q 57 1128 21 1128 q 119 1103 94 1128 q 144 1042 144 1078 q 119 981 144 1006 q 57 956 94 956 z "},"İ":{"ha":376,"x_min":101,"x_max":275,"o":"m 107 0 l 107 868 l 269 868 l 269 0 l 107 0 m 188 955 q 127 980 152 955 q 101 1042 101 1005 q 126 1104 101 1079 q 188 1128 151 1128 q 250 1104 226 1128 q 275 1042 275 1079 q 250 980 275 1006 q 188 955 226 955 z "},"Ị":{"ha":376,"x_min":103,"x_max":273,"o":"m 107 0 l 107 868 l 269 868 l 269 0 l 107 0 m 188 -258 q 128 -234 152 -258 q 103 -174 103 -209 q 128 -113 103 -137 q 188 -89 152 -89 q 249 -113 225 -89 q 273 -174 273 -137 q 249 -234 273 -209 q 188 -258 225 -258 z "},"Ì":{"ha":376,"x_min":-70,"x_max":269,"o":"m 107 0 l 107 868 l 269 868 l 269 0 l 107 0 m 123 946 l -70 1137 l 121 1137 l 266 946 l 123 946 z "},"Ỉ":{"ha":376,"x_min":40,"x_max":317,"o":"m 107 0 l 107 868 l 269 868 l 269 0 l 107 0 m 139 946 q 174 992 162 972 q 185 1029 185 1013 q 172 1060 185 1047 q 136 1072 159 1072 q 97 1060 115 1072 q 69 1035 80 1048 l 40 1152 q 92 1179 58 1168 q 166 1189 126 1189 q 274 1156 231 1189 q 317 1064 317 1123 q 302 998 317 1027 q 268 946 286 968 l 139 946 z "},"Ȋ":{"ha":376,"x_min":-3,"x_max":379,"o":"m 107 0 l 107 868 l 269 868 l 269 0 l 107 0 m -3 932 q 23 1027 -3 985 q 92 1093 48 1069 q 188 1117 135 1117 q 285 1093 241 1117 q 354 1027 329 1069 q 379 932 379 985 l 267 932 q 244 988 267 965 q 188 1011 220 1011 q 134 988 157 1011 q 110 932 110 965 l -3 932 z "},"Ī":{"ha":376,"x_min":14,"x_max":364,"o":"m 107 0 l 107 868 l 269 868 l 269 0 l 107 0 m 14 989 l 14 1096 l 364 1096 l 364 989 l 14 989 z "},"Į":{"ha":376,"x_min":60,"x_max":272,"o":"m 245 -305 q 113 -266 166 -305 q 60 -148 60 -228 q 72 -72 60 -109 q 107 0 84 -36 l 107 868 l 269 868 l 269 0 q 213 -54 234 -23 q 192 -116 192 -84 q 215 -172 192 -154 q 272 -190 238 -189 l 245 -305 z "},"Ĩ":{"ha":376,"x_min":-34,"x_max":410,"o":"m 107 0 l 107 868 l 269 868 l 269 0 l 107 0 m -4 957 l -34 1067 q 19 1126 -14 1105 q 89 1146 52 1146 q 160 1129 126 1146 q 226 1097 194 1113 q 288 1080 258 1080 q 342 1098 319 1080 q 380 1149 365 1116 l 410 1038 q 357 980 390 1000 q 287 960 325 960 q 217 976 251 960 q 151 1009 182 992 q 88 1025 120 1025 q 34 1007 58 1025 q -4 957 11 989 z "},"J":{"ha":535,"x_min":12,"x_max":448,"o":"m 189 -17 q 92 -2 140 -17 q 12 46 44 14 l 54 197 q 105 148 73 166 q 176 129 136 129 q 254 161 222 129 q 286 266 286 192 l 286 868 l 448 868 l 448 255 q 412 101 448 161 q 317 12 376 41 q 189 -17 258 -17 z "},"Ĵ":{"ha":535,"x_min":12,"x_max":572,"o":"m 189 -17 q 92 -2 140 -17 q 12 46 44 14 l 54 197 q 105 148 73 166 q 176 129 136 129 q 254 161 222 129 q 286 266 286 192 l 286 868 l 448 868 l 448 255 q 412 101 448 161 q 317 12 376 41 q 189 -17 258 -17 m 165 946 l 368 1175 l 573 946 l 428 946 q 397 983 411 965 q 367 1024 383 1001 q 337 983 350 1001 q 306 946 323 965 l 165 946 z "},"K":{"ha":767,"x_min":100,"x_max":770,"o":"m 584 0 l 254 535 l 508 868 l 690 868 l 435 538 l 770 0 l 584 0 m 100 0 l 100 868 l 258 868 l 258 0 l 100 0 z "},"Ǩ":{"ha":767,"x_min":100,"x_max":770,"o":"m 584 0 l 254 535 l 508 868 l 690 868 l 435 538 l 770 0 l 584 0 m 100 0 l 100 868 l 258 868 l 258 0 l 100 0 m 357 938 l 153 1166 l 298 1166 q 329 1129 315 1148 q 359 1088 342 1111 q 389 1129 375 1111 q 421 1166 403 1148 l 561 1166 l 357 938 z "},"Ķ":{"ha":767,"x_min":100,"x_max":770,"o":"m 584 0 l 254 535 l 508 868 l 690 868 l 435 538 l 770 0 l 584 0 m 100 0 l 100 868 l 258 868 l 258 0 l 100 0 m 268 -318 q 324 -223 302 -276 q 351 -107 346 -171 l 494 -107 q 472 -218 490 -165 q 423 -318 453 -271 l 268 -318 z "},"L":{"ha":579,"x_min":100,"x_max":532,"o":"m 100 0 l 100 868 l 262 868 l 262 142 l 532 142 l 532 0 l 100 0 z "},"Ǉ":{"ha":1114,"x_min":100,"x_max":1027,"o":"m 100 0 l 100 868 l 262 868 l 262 142 l 532 142 l 532 0 l 100 0 m 768 -17 q 671 -2 719 -17 q 590 46 623 14 l 633 197 q 683 148 652 166 q 754 129 715 129 q 833 161 801 129 q 865 266 865 192 l 865 868 l 1027 868 l 1027 255 q 991 101 1027 161 q 896 12 955 41 q 768 -17 836 -17 z "},"Ĺ":{"ha":579,"x_min":99,"x_max":532,"o":"m 100 0 l 100 868 l 262 868 l 262 142 l 532 142 l 532 0 l 100 0 m 99 946 l 244 1137 l 435 1137 l 242 946 l 99 946 z "},"Ľ":{"ha":579,"x_min":100,"x_max":532,"o":"m 100 0 l 100 868 l 262 868 l 262 142 l 532 142 l 532 0 l 100 0 m 289 557 q 359 692 332 615 q 386 868 386 769 l 522 868 q 500 701 522 779 q 434 557 477 623 l 289 557 z "},"Ļ":{"ha":579,"x_min":100,"x_max":532,"o":"m 100 0 l 100 868 l 262 868 l 262 142 l 532 142 l 532 0 l 100 0 m 173 -318 q 229 -223 206 -276 q 256 -107 251 -171 l 398 -107 q 376 -218 394 -165 q 328 -318 358 -271 l 173 -318 z "},"Ŀ":{"ha":579,"x_min":100,"x_max":532,"o":"m 100 0 l 100 868 l 262 868 l 262 142 l 532 142 l 532 0 l 100 0 m 405 378 q 345 403 369 378 q 320 463 320 427 q 345 524 320 500 q 405 548 369 548 q 466 524 442 548 q 490 463 490 500 q 466 403 490 427 q 405 378 442 378 z "},"ǈ":{"ha":876,"x_min":100,"x_max":813,"o":"m 100 0 l 100 868 l 262 868 l 262 142 l 532 142 l 532 0 l 100 0 m 613 -301 l 584 -177 q 635 -160 616 -177 q 653 -101 653 -143 l 653 579 l 805 579 l 805 -101 q 751 -248 805 -196 q 613 -301 696 -301 m 728 667 q 668 692 693 667 q 643 752 643 717 q 668 813 643 789 q 728 837 693 837 q 789 813 765 837 q 813 752 813 789 q 789 692 813 717 q 728 667 765 667 z "},"Ł":{"ha":608,"x_min":11,"x_max":561,"o":"m 129 0 l 129 338 l 61 298 l 11 386 l 129 454 l 129 868 l 291 868 l 291 547 l 460 646 l 511 558 l 291 430 l 291 142 l 561 142 l 561 0 l 129 0 z "},"M":{"ha":1013,"x_min":100,"x_max":913,"o":"m 100 0 l 100 897 l 510 373 l 913 897 l 913 0 l 760 0 l 760 287 q 761 380 760 329 q 770 498 762 432 q 712 410 740 448 q 661 340 684 372 l 507 131 l 348 340 q 296 411 326 370 q 237 501 266 452 q 246 381 245 432 q 248 287 248 330 l 248 0 l 100 0 z "},"N":{"ha":890,"x_min":100,"x_max":790,"o":"m 790 -29 l 248 524 l 248 0 l 100 0 l 100 897 l 642 345 l 642 868 l 790 868 l 790 -29 z "},"Ǌ":{"ha":1426,"x_min":100,"x_max":1339,"o":"m 790 -29 l 248 524 l 248 0 l 100 0 l 100 897 l 642 345 l 642 868 l 790 868 l 790 -29 m 1079 -17 q 982 -2 1030 -17 q 902 46 935 14 l 944 197 q 995 148 964 166 q 1066 129 1026 129 q 1144 161 1112 129 q 1177 266 1177 192 l 1177 868 l 1339 868 l 1339 255 q 1303 101 1339 161 q 1207 12 1266 41 q 1079 -17 1148 -17 z "},"Ń":{"ha":890,"x_min":100,"x_max":790,"o":"m 790 -29 l 248 524 l 248 0 l 100 0 l 100 897 l 642 345 l 642 868 l 790 868 l 790 -29 m 343 888 l 488 1079 l 679 1079 l 486 888 l 343 888 z "},"Ň":{"ha":890,"x_min":100,"x_max":790,"o":"m 790 -29 l 248 524 l 248 0 l 100 0 l 100 897 l 642 345 l 642 868 l 790 868 l 790 -29 m 421 880 l 217 1108 l 362 1108 q 393 1072 379 1090 q 422 1030 406 1053 q 453 1072 439 1053 q 484 1108 467 1090 l 625 1108 l 421 880 z "},"Ņ":{"ha":890,"x_min":100,"x_max":790,"o":"m 790 -29 l 248 524 l 248 0 l 100 0 l 100 897 l 642 345 l 642 868 l 790 868 l 790 -29 m 345 -275 q 401 -180 379 -232 q 428 -64 423 -127 l 571 -64 q 549 -175 567 -122 q 501 -275 530 -228 l 345 -275 z "},"ǋ":{"ha":1186,"x_min":100,"x_max":1125,"o":"m 790 -29 l 248 524 l 248 0 l 100 0 l 100 897 l 642 345 l 642 868 l 790 868 l 790 -29 m 925 -301 l 895 -177 q 946 -160 928 -177 q 965 -101 965 -143 l 965 579 l 1117 579 l 1117 -101 q 1062 -248 1117 -196 q 925 -301 1008 -301 m 1040 667 q 979 692 1004 667 q 955 752 955 717 q 979 813 955 789 q 1040 837 1004 837 q 1101 813 1076 837 q 1125 752 1125 789 q 1101 692 1125 717 q 1040 667 1076 667 z "},"Ñ":{"ha":890,"x_min":100,"x_max":790,"o":"m 790 -29 l 248 524 l 248 0 l 100 0 l 100 897 l 642 345 l 642 868 l 790 868 l 790 -29 m 229 899 l 199 1009 q 252 1068 219 1047 q 321 1088 285 1088 q 393 1072 359 1088 q 458 1039 426 1055 q 521 1022 490 1022 q 574 1040 552 1022 q 612 1091 597 1058 l 642 980 q 590 922 622 942 q 520 902 557 902 q 449 918 483 902 q 383 951 415 935 q 320 967 352 967 q 267 949 290 967 q 229 899 243 931 z "},"Ŋ":{"ha":955,"x_min":100,"x_max":790,"o":"m 545 -191 q 448 -176 496 -191 q 367 -127 400 -160 l 410 23 q 461 -26 429 -8 q 531 -44 492 -44 q 610 -13 578 -44 q 642 93 642 18 l 642 106 l 248 520 l 248 0 l 100 0 l 100 897 l 642 331 l 642 868 l 790 868 l 790 67 q 756 -80 790 -23 q 666 -164 721 -137 q 545 -191 610 -191 z "},"O":{"ha":1022,"x_min":54,"x_max":969,"o":"m 511 -17 q 334 18 417 -17 q 188 115 251 53 q 89 258 124 177 q 54 434 54 340 q 89 610 54 528 q 188 753 124 692 q 334 850 251 815 q 511 885 417 885 q 690 850 607 885 q 835 753 773 815 q 934 610 898 692 q 969 434 969 528 q 934 258 969 340 q 835 115 898 177 q 690 18 773 53 q 511 -17 607 -17 m 511 135 q 660 175 593 135 q 765 284 726 215 q 804 434 804 352 q 765 585 804 518 q 660 693 726 653 q 511 734 593 734 q 362 693 428 734 q 257 585 296 653 q 218 434 218 517 q 257 284 218 352 q 362 175 296 215 q 511 135 428 135 z "},"Ó":{"ha":1022,"x_min":54,"x_max":969,"o":"m 511 -17 q 334 18 417 -17 q 188 115 251 53 q 89 258 124 177 q 54 434 54 340 q 89 610 54 528 q 188 753 124 692 q 334 850 251 815 q 511 885 417 885 q 690 850 607 885 q 835 753 773 815 q 934 610 898 692 q 969 434 969 528 q 934 258 969 340 q 835 115 898 177 q 690 18 773 53 q 511 -17 607 -17 m 511 135 q 660 175 593 135 q 765 284 726 215 q 804 434 804 352 q 765 585 804 518 q 660 693 726 653 q 511 734 593 734 q 362 693 428 734 q 257 585 296 653 q 218 434 218 517 q 257 284 218 352 q 362 175 296 215 q 511 135 428 135 m 434 946 l 579 1137 l 770 1137 l 577 946 l 434 946 z "},"Ŏ":{"ha":1022,"x_min":54,"x_max":969,"o":"m 511 -17 q 334 18 417 -17 q 188 115 251 53 q 89 258 124 177 q 54 434 54 340 q 89 610 54 528 q 188 753 124 692 q 334 850 251 815 q 511 885 417 885 q 690 850 607 885 q 835 753 773 815 q 934 610 898 692 q 969 434 969 528 q 934 258 969 340 q 835 115 898 177 q 690 18 773 53 q 511 -17 607 -17 m 511 135 q 660 175 593 135 q 765 284 726 215 q 804 434 804 352 q 765 585 804 518 q 660 693 726 653 q 511 734 593 734 q 362 693 428 734 q 257 585 296 653 q 218 434 218 517 q 257 284 218 352 q 362 175 296 215 q 511 135 428 135 m 511 932 q 415 956 458 932 q 346 1023 371 981 q 320 1117 320 1065 l 433 1117 q 456 1062 433 1085 q 511 1039 479 1039 q 567 1061 543 1039 q 590 1117 590 1084 l 702 1117 q 677 1022 702 1064 q 609 956 652 980 q 511 932 565 932 z "},"Ô":{"ha":1022,"x_min":54,"x_max":969,"o":"m 511 -17 q 334 18 417 -17 q 188 115 251 53 q 89 258 124 177 q 54 434 54 340 q 89 610 54 528 q 188 753 124 692 q 334 850 251 815 q 511 885 417 885 q 690 850 607 885 q 835 753 773 815 q 934 610 898 692 q 969 434 969 528 q 934 258 969 340 q 835 115 898 177 q 690 18 773 53 q 511 -17 607 -17 m 511 135 q 660 175 593 135 q 765 284 726 215 q 804 434 804 352 q 765 585 804 518 q 660 693 726 653 q 511 734 593 734 q 362 693 428 734 q 257 585 296 653 q 218 434 218 517 q 257 284 218 352 q 362 175 296 215 q 511 135 428 135 m 308 946 l 511 1175 l 716 946 l 571 946 q 540 983 554 965 q 509 1024 526 1001 q 479 983 493 1001 q 448 946 466 965 l 308 946 z "},"Ố":{"ha":1022,"x_min":54,"x_max":969,"o":"m 511 -17 q 334 18 417 -17 q 188 115 251 53 q 89 258 124 177 q 54 434 54 340 q 89 610 54 528 q 188 753 124 692 q 334 850 251 815 q 511 885 417 885 q 690 850 607 885 q 835 753 773 815 q 934 610 898 692 q 969 434 969 528 q 934 258 969 340 q 835 115 898 177 q 690 18 773 53 q 511 -17 607 -17 m 511 135 q 660 175 593 135 q 765 284 726 215 q 804 434 804 352 q 765 585 804 518 q 660 693 726 653 q 511 734 593 734 q 362 693 428 734 q 257 585 296 653 q 218 434 218 517 q 257 284 218 352 q 362 175 296 215 q 511 135 428 135 m 308 946 l 511 1175 l 716 946 l 571 946 q 540 983 554 965 q 509 1024 526 1001 q 479 983 493 1001 q 448 946 466 965 l 308 946 m 638 1079 l 706 1224 l 855 1224 l 749 1079 l 638 1079 z "},"Ộ":{"ha":1022,"x_min":54,"x_max":969,"o":"m 511 -17 q 334 18 417 -17 q 188 115 251 53 q 89 258 124 177 q 54 434 54 340 q 89 610 54 528 q 188 753 124 692 q 334 850 251 815 q 511 885 417 885 q 690 850 607 885 q 835 753 773 815 q 934 610 898 692 q 969 434 969 528 q 934 258 969 340 q 835 115 898 177 q 690 18 773 53 q 511 -17 607 -17 m 511 135 q 660 175 593 135 q 765 284 726 215 q 804 434 804 352 q 765 585 804 518 q 660 693 726 653 q 511 734 593 734 q 362 693 428 734 q 257 585 296 653 q 218 434 218 517 q 257 284 218 352 q 362 175 296 215 q 511 135 428 135 m 511 -258 q 451 -234 476 -258 q 426 -174 426 -209 q 451 -113 426 -137 q 511 -89 476 -89 q 572 -113 548 -89 q 596 -174 596 -137 q 572 -234 596 -209 q 511 -258 548 -258 m 308 946 l 511 1175 l 716 946 l 571 946 q 540 983 554 965 q 509 1024 526 1001 q 479 983 493 1001 q 448 946 466 965 l 308 946 z "},"Ồ":{"ha":1022,"x_min":54,"x_max":969,"o":"m 511 -17 q 334 18 417 -17 q 188 115 251 53 q 89 258 124 177 q 54 434 54 340 q 89 610 54 528 q 188 753 124 692 q 334 850 251 815 q 511 885 417 885 q 690 850 607 885 q 835 753 773 815 q 934 610 898 692 q 969 434 969 528 q 934 258 969 340 q 835 115 898 177 q 690 18 773 53 q 511 -17 607 -17 m 511 135 q 660 175 593 135 q 765 284 726 215 q 804 434 804 352 q 765 585 804 518 q 660 693 726 653 q 511 734 593 734 q 362 693 428 734 q 257 585 296 653 q 218 434 218 517 q 257 284 218 352 q 362 175 296 215 q 511 135 428 135 m 308 946 l 511 1175 l 716 946 l 571 946 q 540 983 554 965 q 509 1024 526 1001 q 479 983 493 1001 q 448 946 466 965 l 308 946 m 709 1079 l 604 1224 l 752 1224 l 821 1079 l 709 1079 z "},"Ổ":{"ha":1022,"x_min":54,"x_max":969,"o":"m 511 -17 q 334 18 417 -17 q 188 115 251 53 q 89 258 124 177 q 54 434 54 340 q 89 610 54 528 q 188 753 124 692 q 334 850 251 815 q 511 885 417 885 q 690 850 607 885 q 835 753 773 815 q 934 610 898 692 q 969 434 969 528 q 934 258 969 340 q 835 115 898 177 q 690 18 773 53 q 511 -17 607 -17 m 511 135 q 660 175 593 135 q 765 284 726 215 q 804 434 804 352 q 765 585 804 518 q 660 693 726 653 q 511 734 593 734 q 362 693 428 734 q 257 585 296 653 q 218 434 218 517 q 257 284 218 352 q 362 175 296 215 q 511 135 428 135 m 308 946 l 511 1175 l 716 946 l 571 946 q 540 983 554 965 q 509 1024 526 1001 q 479 983 493 1001 q 448 946 466 965 l 308 946 m 670 1071 q 702 1113 691 1094 q 713 1146 713 1131 q 701 1175 713 1164 q 666 1186 689 1186 q 635 1177 651 1186 q 609 1156 619 1168 l 584 1245 q 631 1268 601 1259 q 693 1278 661 1278 q 791 1250 750 1278 q 831 1169 831 1221 q 818 1114 831 1138 q 788 1071 805 1090 l 670 1071 z "},"Ỗ":{"ha":1022,"x_min":54,"x_max":969,"o":"m 511 -17 q 334 18 417 -17 q 188 115 251 53 q 89 258 124 177 q 54 434 54 340 q 89 610 54 528 q 188 753 124 692 q 334 850 251 815 q 511 885 417 885 q 690 850 607 885 q 835 753 773 815 q 934 610 898 692 q 969 434 969 528 q 934 258 969 340 q 835 115 898 177 q 690 18 773 53 q 511 -17 607 -17 m 511 135 q 660 175 593 135 q 765 284 726 215 q 804 434 804 352 q 765 585 804 518 q 660 693 726 653 q 511 734 593 734 q 362 693 428 734 q 257 585 296 653 q 218 434 218 517 q 257 284 218 352 q 362 175 296 215 q 511 135 428 135 m 308 946 l 511 1159 l 716 946 l 571 946 q 540 978 554 962 q 509 1014 526 994 q 479 978 493 994 q 448 946 466 962 l 308 946 m 359 1154 l 325 1251 q 371 1303 341 1285 q 434 1320 400 1320 q 489 1310 464 1320 q 539 1288 515 1299 q 587 1276 562 1276 q 634 1292 614 1276 q 665 1337 653 1308 l 698 1240 q 652 1189 681 1208 q 588 1171 623 1171 q 533 1182 558 1171 q 484 1204 507 1193 q 436 1215 460 1215 q 359 1154 383 1215 z "},"Ȍ":{"ha":1022,"x_min":54,"x_max":969,"o":"m 511 -17 q 334 18 417 -17 q 188 115 251 53 q 89 258 124 177 q 54 434 54 340 q 89 610 54 528 q 188 753 124 692 q 334 850 251 815 q 511 885 417 885 q 690 850 607 885 q 835 753 773 815 q 934 610 898 692 q 969 434 969 528 q 934 258 969 340 q 835 115 898 177 q 690 18 773 53 q 511 -17 607 -17 m 511 135 q 660 175 593 135 q 765 284 726 215 q 804 434 804 352 q 765 585 804 518 q 660 693 726 653 q 511 734 593 734 q 362 693 428 734 q 257 585 296 653 q 218 434 218 517 q 257 284 218 352 q 362 175 296 215 q 511 135 428 135 m 574 946 l 468 1128 l 627 1128 l 687 946 l 574 946 m 342 946 l 236 1128 l 395 1128 l 455 946 l 342 946 z "},"Ö":{"ha":1022,"x_min":54,"x_max":969,"o":"m 511 -17 q 334 18 417 -17 q 188 115 251 53 q 89 258 124 177 q 54 434 54 340 q 89 610 54 528 q 188 753 124 692 q 334 850 251 815 q 511 885 417 885 q 690 850 607 885 q 835 753 773 815 q 934 610 898 692 q 969 434 969 528 q 934 258 969 340 q 835 115 898 177 q 690 18 773 53 q 511 -17 607 -17 m 511 135 q 660 175 593 135 q 765 284 726 215 q 804 434 804 352 q 765 585 804 518 q 660 693 726 653 q 511 734 593 734 q 362 693 428 734 q 257 585 296 653 q 218 434 218 517 q 257 284 218 352 q 362 175 296 215 q 511 135 428 135 m 780 877 q 719 901 744 877 q 693 964 693 926 q 718 1026 693 1001 q 780 1050 743 1050 q 842 1026 818 1050 q 867 964 867 1001 q 842 902 867 927 q 780 877 818 877 m 242 877 q 180 901 205 877 q 155 964 155 926 q 180 1026 155 1001 q 242 1050 204 1050 q 304 1026 280 1050 q 329 964 329 1001 q 304 902 329 927 q 242 877 280 877 z "},"Ȫ":{"ha":1022,"x_min":54,"x_max":969,"o":"m 511 -17 q 334 18 417 -17 q 188 115 251 53 q 89 258 124 177 q 54 434 54 340 q 89 610 54 528 q 188 753 124 692 q 334 850 251 815 q 511 885 417 885 q 690 850 607 885 q 835 753 773 815 q 934 610 898 692 q 969 434 969 528 q 934 258 969 340 q 835 115 898 177 q 690 18 773 53 q 511 -17 607 -17 m 511 135 q 660 175 593 135 q 765 284 726 215 q 804 434 804 352 q 765 585 804 518 q 660 693 726 653 q 511 734 593 734 q 362 693 428 734 q 257 585 296 653 q 218 434 218 517 q 257 284 218 352 q 362 175 296 215 q 511 135 428 135 m 387 960 q 329 984 353 960 q 305 1042 305 1009 q 329 1100 305 1076 q 387 1124 354 1124 q 445 1100 421 1124 q 469 1042 469 1075 q 445 984 469 1008 q 387 960 421 960 m 636 960 q 578 984 602 960 q 554 1042 554 1009 q 578 1100 554 1076 q 636 1124 603 1124 q 694 1100 670 1124 q 718 1042 718 1075 q 693 984 718 1008 q 636 960 669 960 m 338 1190 l 338 1295 l 685 1295 l 685 1190 l 338 1190 z "},"Ȱ":{"ha":1022,"x_min":54,"x_max":969,"o":"m 511 -17 q 334 18 417 -17 q 188 115 251 53 q 89 258 124 177 q 54 434 54 340 q 89 610 54 528 q 188 753 124 692 q 334 850 251 815 q 511 885 417 885 q 690 850 607 885 q 835 753 773 815 q 934 610 898 692 q 969 434 969 528 q 934 258 969 340 q 835 115 898 177 q 690 18 773 53 q 511 -17 607 -17 m 511 135 q 660 175 593 135 q 765 284 726 215 q 804 434 804 352 q 765 585 804 518 q 660 693 726 653 q 511 734 593 734 q 362 693 428 734 q 257 585 296 653 q 218 434 218 517 q 257 284 218 352 q 362 175 296 215 q 511 135 428 135 m 511 958 q 452 982 476 958 q 427 1042 427 1007 q 452 1101 427 1077 q 511 1126 476 1126 q 571 1101 547 1126 q 595 1042 595 1077 q 571 982 595 1007 q 511 958 547 958 m 338 1190 l 338 1295 l 685 1295 l 685 1190 l 338 1190 z "},"Ọ":{"ha":1022,"x_min":54,"x_max":969,"o":"m 511 -17 q 334 18 417 -17 q 188 115 251 53 q 89 258 124 177 q 54 434 54 340 q 89 610 54 528 q 188 753 124 692 q 334 850 251 815 q 511 885 417 885 q 690 850 607 885 q 835 753 773 815 q 934 610 898 692 q 969 434 969 528 q 934 258 969 340 q 835 115 898 177 q 690 18 773 53 q 511 -17 607 -17 m 511 135 q 660 175 593 135 q 765 284 726 215 q 804 434 804 352 q 765 585 804 518 q 660 693 726 653 q 511 734 593 734 q 362 693 428 734 q 257 585 296 653 q 218 434 218 517 q 257 284 218 352 q 362 175 296 215 q 511 135 428 135 m 511 -258 q 451 -234 476 -258 q 426 -174 426 -209 q 451 -113 426 -137 q 511 -89 476 -89 q 572 -113 548 -89 q 596 -174 596 -137 q 572 -234 596 -209 q 511 -258 548 -258 z "},"Ò":{"ha":1022,"x_min":54,"x_max":969,"o":"m 511 -17 q 334 18 417 -17 q 188 115 251 53 q 89 258 124 177 q 54 434 54 340 q 89 610 54 528 q 188 753 124 692 q 334 850 251 815 q 511 885 417 885 q 690 850 607 885 q 835 753 773 815 q 934 610 898 692 q 969 434 969 528 q 934 258 969 340 q 835 115 898 177 q 690 18 773 53 q 511 -17 607 -17 m 511 135 q 660 175 593 135 q 765 284 726 215 q 804 434 804 352 q 765 585 804 518 q 660 693 726 653 q 511 734 593 734 q 362 693 428 734 q 257 585 296 653 q 218 434 218 517 q 257 284 218 352 q 362 175 296 215 q 511 135 428 135 m 447 946 l 253 1137 l 444 1137 l 589 946 l 447 946 z "},"Ỏ":{"ha":1022,"x_min":54,"x_max":969,"o":"m 511 -17 q 334 18 417 -17 q 188 115 251 53 q 89 258 124 177 q 54 434 54 340 q 89 610 54 528 q 188 753 124 692 q 334 850 251 815 q 511 885 417 885 q 690 850 607 885 q 835 753 773 815 q 934 610 898 692 q 969 434 969 528 q 934 258 969 340 q 835 115 898 177 q 690 18 773 53 q 511 -17 607 -17 m 511 135 q 660 175 593 135 q 765 284 726 215 q 804 434 804 352 q 765 585 804 518 q 660 693 726 653 q 511 734 593 734 q 362 693 428 734 q 257 585 296 653 q 218 434 218 517 q 257 284 218 352 q 362 175 296 215 q 511 135 428 135 m 462 946 q 497 992 485 972 q 508 1029 508 1013 q 495 1060 508 1047 q 459 1072 482 1072 q 421 1060 438 1072 q 393 1035 403 1048 l 363 1152 q 415 1179 381 1168 q 489 1189 449 1189 q 598 1156 555 1189 q 640 1064 640 1123 q 625 998 640 1027 q 591 946 610 968 l 462 946 z "},"Ơ":{"ha":1022,"x_min":54,"x_max":988,"o":"m 511 -17 q 334 18 417 -17 q 188 115 251 53 q 89 258 124 177 q 54 434 54 340 q 89 610 54 528 q 188 753 124 692 q 334 850 251 815 q 511 885 417 885 q 681 853 602 885 q 822 765 761 821 q 844 794 836 775 q 852 837 852 812 q 847 878 852 855 q 829 926 842 902 l 965 926 q 983 881 978 903 q 988 837 988 858 q 964 736 988 777 q 898 676 939 694 q 951 562 932 624 q 969 434 969 501 q 934 258 969 340 q 835 115 898 177 q 690 18 773 53 q 511 -17 607 -17 m 511 135 q 660 175 593 135 q 765 284 726 215 q 804 434 804 352 q 765 585 804 518 q 660 693 726 653 q 511 734 593 734 q 362 693 428 734 q 257 585 296 653 q 218 434 218 517 q 257 284 218 352 q 362 175 296 215 q 511 135 428 135 z "},"Ớ":{"ha":1022,"x_min":54,"x_max":988,"o":"m 511 -17 q 334 18 417 -17 q 188 115 251 53 q 89 258 124 177 q 54 434 54 340 q 89 610 54 528 q 188 753 124 692 q 334 850 251 815 q 511 885 417 885 q 681 853 602 885 q 822 765 761 821 q 844 794 836 775 q 852 837 852 812 q 847 878 852 855 q 829 926 842 902 l 965 926 q 983 881 978 903 q 988 837 988 858 q 964 736 988 777 q 898 676 939 694 q 951 562 932 624 q 969 434 969 501 q 934 258 969 340 q 835 115 898 177 q 690 18 773 53 q 511 -17 607 -17 m 511 135 q 660 175 593 135 q 765 284 726 215 q 804 434 804 352 q 765 585 804 518 q 660 693 726 653 q 511 734 593 734 q 362 693 428 734 q 257 585 296 653 q 218 434 218 517 q 257 284 218 352 q 362 175 296 215 q 511 135 428 135 m 434 946 l 579 1137 l 770 1137 l 577 946 l 434 946 z "},"Ợ":{"ha":1022,"x_min":54,"x_max":988,"o":"m 511 -17 q 334 18 417 -17 q 188 115 251 53 q 89 258 124 177 q 54 434 54 340 q 89 610 54 528 q 188 753 124 692 q 334 850 251 815 q 511 885 417 885 q 681 853 602 885 q 822 765 761 821 q 844 794 836 775 q 852 837 852 812 q 847 878 852 855 q 829 926 842 902 l 965 926 q 983 881 978 903 q 988 837 988 858 q 964 736 988 777 q 898 676 939 694 q 951 562 932 624 q 969 434 969 501 q 934 258 969 340 q 835 115 898 177 q 690 18 773 53 q 511 -17 607 -17 m 511 135 q 660 175 593 135 q 765 284 726 215 q 804 434 804 352 q 765 585 804 518 q 660 693 726 653 q 511 734 593 734 q 362 693 428 734 q 257 585 296 653 q 218 434 218 517 q 257 284 218 352 q 362 175 296 215 q 511 135 428 135 m 511 -258 q 451 -234 476 -258 q 426 -174 426 -209 q 451 -113 426 -137 q 511 -89 476 -89 q 572 -113 548 -89 q 596 -174 596 -137 q 572 -234 596 -209 q 511 -258 548 -258 z "},"Ờ":{"ha":1022,"x_min":54,"x_max":988,"o":"m 511 -17 q 334 18 417 -17 q 188 115 251 53 q 89 258 124 177 q 54 434 54 340 q 89 610 54 528 q 188 753 124 692 q 334 850 251 815 q 511 885 417 885 q 681 853 602 885 q 822 765 761 821 q 844 794 836 775 q 852 837 852 812 q 847 878 852 855 q 829 926 842 902 l 965 926 q 983 881 978 903 q 988 837 988 858 q 964 736 988 777 q 898 676 939 694 q 951 562 932 624 q 969 434 969 501 q 934 258 969 340 q 835 115 898 177 q 690 18 773 53 q 511 -17 607 -17 m 511 135 q 660 175 593 135 q 765 284 726 215 q 804 434 804 352 q 765 585 804 518 q 660 693 726 653 q 511 734 593 734 q 362 693 428 734 q 257 585 296 653 q 218 434 218 517 q 257 284 218 352 q 362 175 296 215 q 511 135 428 135 m 447 946 l 253 1137 l 444 1137 l 589 946 l 447 946 z "},"Ở":{"ha":1022,"x_min":54,"x_max":988,"o":"m 511 -17 q 334 18 417 -17 q 188 115 251 53 q 89 258 124 177 q 54 434 54 340 q 89 610 54 528 q 188 753 124 692 q 334 850 251 815 q 511 885 417 885 q 681 853 602 885 q 822 765 761 821 q 844 794 836 775 q 852 837 852 812 q 847 878 852 855 q 829 926 842 902 l 965 926 q 983 881 978 903 q 988 837 988 858 q 964 736 988 777 q 898 676 939 694 q 951 562 932 624 q 969 434 969 501 q 934 258 969 340 q 835 115 898 177 q 690 18 773 53 q 511 -17 607 -17 m 511 135 q 660 175 593 135 q 765 284 726 215 q 804 434 804 352 q 765 585 804 518 q 660 693 726 653 q 511 734 593 734 q 362 693 428 734 q 257 585 296 653 q 218 434 218 517 q 257 284 218 352 q 362 175 296 215 q 511 135 428 135 m 462 946 q 497 992 485 972 q 508 1029 508 1013 q 495 1060 508 1047 q 459 1072 482 1072 q 421 1060 438 1072 q 393 1035 403 1048 l 363 1152 q 415 1179 381 1168 q 489 1189 449 1189 q 598 1156 555 1189 q 640 1064 640 1123 q 625 998 640 1027 q 591 946 610 968 l 462 946 z "},"Ỡ":{"ha":1022,"x_min":54,"x_max":988,"o":"m 511 -17 q 334 18 417 -17 q 188 115 251 53 q 89 258 124 177 q 54 434 54 340 q 89 610 54 528 q 188 753 124 692 q 334 850 251 815 q 511 885 417 885 q 681 853 602 885 q 822 765 761 821 q 844 794 836 775 q 852 837 852 812 q 847 878 852 855 q 829 926 842 902 l 965 926 q 983 881 978 903 q 988 837 988 858 q 964 736 988 777 q 898 676 939 694 q 951 562 932 624 q 969 434 969 501 q 934 258 969 340 q 835 115 898 177 q 690 18 773 53 q 511 -17 607 -17 m 511 135 q 660 175 593 135 q 765 284 726 215 q 804 434 804 352 q 765 585 804 518 q 660 693 726 653 q 511 734 593 734 q 362 693 428 734 q 257 585 296 653 q 218 434 218 517 q 257 284 218 352 q 362 175 296 215 q 511 135 428 135 m 319 957 l 289 1067 q 342 1126 310 1105 q 412 1146 375 1146 q 483 1129 449 1146 q 549 1097 517 1113 q 611 1080 581 1080 q 665 1098 642 1080 q 703 1149 688 1116 l 733 1038 q 680 980 713 1000 q 611 960 648 960 q 540 976 574 960 q 474 1009 505 992 q 411 1025 443 1025 q 357 1007 381 1025 q 319 957 334 989 z "},"Ő":{"ha":1022,"x_min":54,"x_max":969,"o":"m 511 -17 q 334 18 417 -17 q 188 115 251 53 q 89 258 124 177 q 54 434 54 340 q 89 610 54 528 q 188 753 124 692 q 334 850 251 815 q 511 885 417 885 q 690 850 607 885 q 835 753 773 815 q 934 610 898 692 q 969 434 969 528 q 934 258 969 340 q 835 115 898 177 q 690 18 773 53 q 511 -17 607 -17 m 511 135 q 660 175 593 135 q 765 284 726 215 q 804 434 804 352 q 765 585 804 518 q 660 693 726 653 q 511 734 593 734 q 362 693 428 734 q 257 585 296 653 q 218 434 218 517 q 257 284 218 352 q 362 175 296 215 q 511 135 428 135 m 567 946 l 628 1128 l 787 1128 l 680 946 l 567 946 m 336 946 l 396 1128 l 556 1128 l 448 946 l 336 946 z "},"Ȏ":{"ha":1022,"x_min":54,"x_max":969,"o":"m 511 -17 q 334 18 417 -17 q 188 115 251 53 q 89 258 124 177 q 54 434 54 340 q 89 610 54 528 q 188 753 124 692 q 334 850 251 815 q 511 885 417 885 q 690 850 607 885 q 835 753 773 815 q 934 610 898 692 q 969 434 969 528 q 934 258 969 340 q 835 115 898 177 q 690 18 773 53 q 511 -17 607 -17 m 511 135 q 660 175 593 135 q 765 284 726 215 q 804 434 804 352 q 765 585 804 518 q 660 693 726 653 q 511 734 593 734 q 362 693 428 734 q 257 585 296 653 q 218 434 218 517 q 257 284 218 352 q 362 175 296 215 q 511 135 428 135 m 320 932 q 346 1027 320 985 q 415 1093 371 1069 q 511 1117 458 1117 q 608 1093 564 1117 q 677 1027 652 1069 q 702 932 702 985 l 590 932 q 567 988 590 965 q 511 1011 543 1011 q 457 988 480 1011 q 433 932 433 965 l 320 932 z "},"Ō":{"ha":1022,"x_min":54,"x_max":969,"o":"m 511 -17 q 334 18 417 -17 q 188 115 251 53 q 89 258 124 177 q 54 434 54 340 q 89 610 54 528 q 188 753 124 692 q 334 850 251 815 q 511 885 417 885 q 690 850 607 885 q 835 753 773 815 q 934 610 898 692 q 969 434 969 528 q 934 258 969 340 q 835 115 898 177 q 690 18 773 53 q 511 -17 607 -17 m 511 135 q 660 175 593 135 q 765 284 726 215 q 804 434 804 352 q 765 585 804 518 q 660 693 726 653 q 511 734 593 734 q 362 693 428 734 q 257 585 296 653 q 218 434 218 517 q 257 284 218 352 q 362 175 296 215 q 511 135 428 135 m 337 989 l 337 1096 l 687 1096 l 687 989 l 337 989 z "},"Ǫ":{"ha":1022,"x_min":54,"x_max":969,"o":"m 602 -305 q 469 -266 523 -305 q 416 -148 416 -228 q 428 -80 416 -113 q 463 -14 441 -47 q 303 32 377 -6 q 172 131 229 70 q 85 269 116 191 q 54 434 54 346 q 89 610 54 528 q 188 753 124 692 q 334 850 251 815 q 511 885 417 885 q 690 850 607 885 q 835 753 773 815 q 934 610 898 692 q 969 434 969 528 q 921 231 969 324 q 788 74 872 137 q 599 -9 704 12 q 563 -61 577 -36 q 549 -116 549 -87 q 571 -172 549 -154 q 628 -190 594 -189 l 602 -305 m 511 135 q 660 175 593 135 q 765 284 726 215 q 804 434 804 352 q 765 585 804 518 q 660 693 726 653 q 511 734 593 734 q 362 693 428 734 q 257 585 296 653 q 218 434 218 517 q 257 284 218 352 q 362 175 296 215 q 511 135 428 135 z "},"Ø":{"ha":1022,"x_min":54,"x_max":969,"o":"m 201 -29 l 119 38 l 185 118 q 89 260 124 178 q 54 434 54 341 q 89 610 54 528 q 188 753 124 692 q 334 850 251 815 q 511 885 417 885 q 645 866 581 885 q 762 811 709 847 l 822 883 l 904 817 l 844 745 q 936 604 902 684 q 969 434 969 525 q 934 258 969 340 q 835 115 898 177 q 690 18 773 53 q 511 -17 607 -17 q 382 1 444 -17 q 268 52 320 19 l 201 -29 m 286 240 l 663 692 q 592 723 630 712 q 511 734 554 734 q 362 693 428 734 q 257 585 296 653 q 218 434 218 517 q 236 329 218 378 q 286 240 255 280 m 511 135 q 660 175 593 135 q 765 284 726 215 q 804 434 804 352 q 788 535 804 488 q 742 621 771 583 l 367 173 q 436 145 400 154 q 511 135 472 135 z "},"Ǿ":{"ha":1022,"x_min":54,"x_max":969,"o":"m 201 -29 l 119 38 l 185 118 q 89 260 124 178 q 54 434 54 341 q 89 610 54 528 q 188 753 124 692 q 334 850 251 815 q 511 885 417 885 q 645 866 581 885 q 762 811 709 847 l 822 883 l 904 817 l 844 745 q 936 604 902 684 q 969 434 969 525 q 934 258 969 340 q 835 115 898 177 q 690 18 773 53 q 511 -17 607 -17 q 382 1 444 -17 q 268 52 320 19 l 201 -29 m 286 240 l 663 692 q 592 723 630 712 q 511 734 554 734 q 362 693 428 734 q 257 585 296 653 q 218 434 218 517 q 236 329 218 378 q 286 240 255 280 m 511 135 q 660 175 593 135 q 765 284 726 215 q 804 434 804 352 q 788 535 804 488 q 742 621 771 583 l 367 173 q 436 145 400 154 q 511 135 472 135 m 434 946 l 579 1137 l 770 1137 l 577 946 l 434 946 z "},"Õ":{"ha":1022,"x_min":54,"x_max":969,"o":"m 511 -17 q 334 18 417 -17 q 188 115 251 53 q 89 258 124 177 q 54 434 54 340 q 89 610 54 528 q 188 753 124 692 q 334 850 251 815 q 511 885 417 885 q 690 850 607 885 q 835 753 773 815 q 934 610 898 692 q 969 434 969 528 q 934 258 969 340 q 835 115 898 177 q 690 18 773 53 q 511 -17 607 -17 m 511 135 q 660 175 593 135 q 765 284 726 215 q 804 434 804 352 q 765 585 804 518 q 660 693 726 653 q 511 734 593 734 q 362 693 428 734 q 257 585 296 653 q 218 434 218 517 q 257 284 218 352 q 362 175 296 215 q 511 135 428 135 m 319 957 l 289 1067 q 342 1126 310 1105 q 412 1146 375 1146 q 483 1129 449 1146 q 549 1097 517 1113 q 611 1080 581 1080 q 665 1098 642 1080 q 703 1149 688 1116 l 733 1038 q 680 980 713 1000 q 611 960 648 960 q 540 976 574 960 q 474 1009 505 992 q 411 1025 443 1025 q 357 1007 381 1025 q 319 957 334 989 z "},"Ȭ":{"ha":1022,"x_min":54,"x_max":969,"o":"m 511 -17 q 334 18 417 -17 q 188 115 251 53 q 89 258 124 177 q 54 434 54 340 q 89 610 54 528 q 188 753 124 692 q 334 850 251 815 q 511 885 417 885 q 690 850 607 885 q 835 753 773 815 q 934 610 898 692 q 969 434 969 528 q 934 258 969 340 q 835 115 898 177 q 690 18 773 53 q 511 -17 607 -17 m 511 135 q 660 175 593 135 q 765 284 726 215 q 804 434 804 352 q 765 585 804 518 q 660 693 726 653 q 511 734 593 734 q 362 693 428 734 q 257 585 296 653 q 218 434 218 517 q 257 284 218 352 q 362 175 296 215 q 511 135 428 135 m 354 953 l 319 1052 q 367 1106 338 1087 q 432 1125 397 1125 q 489 1114 463 1125 q 540 1090 515 1102 q 589 1078 564 1078 q 637 1095 617 1078 q 668 1141 657 1111 l 703 1043 q 656 990 686 1009 q 590 971 627 971 q 534 983 560 971 q 483 1005 507 994 q 434 1017 459 1017 q 354 953 379 1017 m 338 1190 l 338 1295 l 685 1295 l 685 1190 l 338 1190 z "},"Œ":{"ha":1288,"x_min":54,"x_max":1235,"o":"m 498 -17 q 326 18 406 -17 q 184 115 245 53 q 89 258 123 177 q 54 434 54 340 q 88 610 54 528 q 184 753 122 692 q 326 850 245 815 q 498 885 406 885 q 662 856 589 885 q 781 774 735 826 l 781 868 l 1235 868 l 1235 731 l 934 731 l 934 584 l 1167 584 l 1167 451 l 934 451 l 934 142 l 1235 142 l 1235 0 l 781 0 l 781 95 q 660 12 733 41 q 498 -17 586 -17 m 511 135 q 660 175 593 135 q 765 284 726 215 q 804 434 804 352 q 765 585 804 518 q 660 693 726 653 q 511 734 593 734 q 362 693 428 734 q 257 585 296 653 q 218 434 218 517 q 257 284 218 352 q 362 175 296 215 q 511 135 428 135 z "},"P":{"ha":709,"x_min":100,"x_max":676,"o":"m 100 0 l 100 868 l 350 868 q 502 842 440 868 q 602 771 564 815 q 658 677 640 727 q 676 576 676 626 q 659 477 676 528 q 603 382 641 426 q 503 312 564 339 q 350 285 441 285 l 254 285 l 254 0 l 100 0 m 254 422 l 341 422 q 446 446 408 422 q 501 504 484 469 q 518 577 518 539 q 502 648 518 612 q 448 707 486 684 q 341 731 409 731 l 254 731 l 254 422 z "},"Þ":{"ha":709,"x_min":100,"x_max":676,"o":"m 100 0 l 100 868 l 254 868 l 254 752 l 350 752 q 502 726 440 752 q 602 655 564 699 q 658 561 640 611 q 676 460 676 510 q 659 361 676 412 q 603 267 641 311 q 503 196 564 223 q 350 170 441 170 l 254 170 l 254 0 l 100 0 m 254 307 l 341 307 q 446 330 408 307 q 501 388 484 353 q 518 461 518 423 q 502 532 518 497 q 448 592 486 568 q 341 615 409 615 l 254 615 l 254 307 z "},"Q":{"ha":1022,"x_min":54,"x_max":980,"o":"m 802 -29 l 742 44 q 632 -1 691 14 q 511 -17 574 -17 q 334 18 417 -17 q 188 115 251 53 q 89 258 124 177 q 54 434 54 340 q 89 610 54 528 q 188 753 124 692 q 334 850 251 815 q 511 885 417 885 q 689 850 607 885 q 835 753 772 815 q 934 610 898 692 q 969 434 969 528 q 937 268 969 346 q 849 129 905 189 l 980 -29 l 802 -29 m 511 135 q 641 166 581 135 l 418 434 l 595 434 l 746 254 q 789 337 774 291 q 804 434 804 383 q 765 585 804 518 q 660 693 726 653 q 511 734 594 734 q 363 693 429 734 q 257 585 296 653 q 218 434 218 518 q 257 284 218 352 q 363 175 296 215 q 511 135 429 135 z "},"R":{"ha":767,"x_min":103,"x_max":770,"o":"m 103 0 l 103 868 l 356 868 q 513 832 448 868 q 612 735 578 796 q 647 604 647 675 q 615 480 647 535 q 525 391 583 424 l 770 0 l 595 0 l 382 347 l 257 347 l 257 0 l 103 0 m 257 479 l 353 479 q 434 498 403 479 q 480 545 465 516 q 496 604 496 574 q 456 692 496 657 q 353 726 417 726 l 257 726 l 257 479 z "},"Ŕ":{"ha":767,"x_min":103,"x_max":770,"o":"m 103 0 l 103 868 l 356 868 q 513 832 448 868 q 612 735 578 796 q 647 604 647 675 q 615 480 647 535 q 525 391 583 424 l 770 0 l 595 0 l 382 347 l 257 347 l 257 0 l 103 0 m 257 479 l 353 479 q 434 498 403 479 q 480 545 465 516 q 496 604 496 574 q 456 692 496 657 q 353 726 417 726 l 257 726 l 257 479 m 236 946 l 381 1137 l 572 1137 l 379 946 l 236 946 z "},"Ř":{"ha":767,"x_min":103,"x_max":770,"o":"m 103 0 l 103 868 l 356 868 q 513 832 448 868 q 612 735 578 796 q 647 604 647 675 q 615 480 647 535 q 525 391 583 424 l 770 0 l 595 0 l 382 347 l 257 347 l 257 0 l 103 0 m 257 479 l 353 479 q 434 498 403 479 q 480 545 465 516 q 496 604 496 574 q 456 692 496 657 q 353 726 417 726 l 257 726 l 257 479 m 313 938 l 110 1166 l 255 1166 q 285 1129 272 1148 q 315 1088 299 1111 q 346 1129 332 1111 q 377 1166 360 1148 l 518 1166 l 313 938 z "},"Ŗ":{"ha":767,"x_min":103,"x_max":770,"o":"m 103 0 l 103 868 l 356 868 q 513 832 448 868 q 612 735 578 796 q 647 604 647 675 q 615 480 647 535 q 525 391 583 424 l 770 0 l 595 0 l 382 347 l 257 347 l 257 0 l 103 0 m 257 479 l 353 479 q 434 498 403 479 q 480 545 465 516 q 496 604 496 574 q 456 692 496 657 q 353 726 417 726 l 257 726 l 257 479 m 269 -318 q 325 -223 303 -276 q 352 -107 347 -171 l 495 -107 q 473 -218 491 -165 q 424 -318 454 -271 l 269 -318 z "},"Ȑ":{"ha":767,"x_min":39,"x_max":770,"o":"m 103 0 l 103 868 l 356 868 q 513 832 448 868 q 612 735 578 796 q 647 604 647 675 q 615 480 647 535 q 525 391 583 424 l 770 0 l 595 0 l 382 347 l 257 347 l 257 0 l 103 0 m 257 479 l 353 479 q 434 498 403 479 q 480 545 465 516 q 496 604 496 574 q 456 692 496 657 q 353 726 417 726 l 257 726 l 257 479 m 376 946 l 270 1128 l 429 1128 l 489 946 l 376 946 m 145 946 l 39 1128 l 198 1128 l 258 946 l 145 946 z "},"Ȓ":{"ha":767,"x_min":103,"x_max":770,"o":"m 103 0 l 103 868 l 356 868 q 513 832 448 868 q 612 735 578 796 q 647 604 647 675 q 615 480 647 535 q 525 391 583 424 l 770 0 l 595 0 l 382 347 l 257 347 l 257 0 l 103 0 m 257 479 l 353 479 q 434 498 403 479 q 480 545 465 516 q 496 604 496 574 q 456 692 496 657 q 353 726 417 726 l 257 726 l 257 479 m 122 932 q 148 1027 122 985 q 217 1093 174 1069 q 313 1117 260 1117 q 410 1093 367 1117 q 479 1027 454 1069 q 504 932 504 985 l 393 932 q 369 988 393 965 q 313 1011 345 1011 q 259 988 283 1011 q 235 932 235 965 l 122 932 z "},"S":{"ha":637,"x_min":57,"x_max":594,"o":"m 313 -17 q 166 13 235 -17 q 57 85 97 42 l 100 262 q 192 164 132 204 q 319 124 252 124 q 410 157 376 124 q 444 236 444 190 q 426 298 444 274 q 386 337 409 322 q 346 360 363 352 l 243 412 q 164 461 204 432 q 98 534 124 489 q 71 645 71 579 q 104 771 71 717 q 196 855 137 825 q 335 885 256 885 q 468 861 410 885 q 562 809 527 836 l 521 635 q 434 714 486 682 q 327 746 382 746 q 250 719 278 746 q 222 653 222 693 q 234 608 222 627 q 266 574 246 588 q 310 549 286 560 l 414 497 q 468 466 438 485 q 528 417 499 447 q 575 346 557 388 q 594 246 594 304 q 559 112 594 172 q 462 17 525 52 q 313 -17 399 -17 z "},"Ś":{"ha":637,"x_min":57,"x_max":594,"o":"m 313 -17 q 166 13 235 -17 q 57 85 97 42 l 100 262 q 192 164 132 204 q 319 124 252 124 q 410 157 376 124 q 444 236 444 190 q 426 298 444 274 q 386 337 409 322 q 346 360 363 352 l 243 412 q 164 461 204 432 q 98 534 124 489 q 71 645 71 579 q 104 771 71 717 q 196 855 137 825 q 335 885 256 885 q 468 861 410 885 q 562 809 527 836 l 521 635 q 434 714 486 682 q 327 746 382 746 q 250 719 278 746 q 222 653 222 693 q 234 608 222 627 q 266 574 246 588 q 310 549 286 560 l 414 497 q 468 466 438 485 q 528 417 499 447 q 575 346 557 388 q 594 246 594 304 q 559 112 594 172 q 462 17 525 52 q 313 -17 399 -17 m 250 946 l 394 1137 l 585 1137 l 393 946 l 250 946 z "},"Š":{"ha":637,"x_min":57,"x_max":594,"o":"m 313 -17 q 166 13 235 -17 q 57 85 97 42 l 100 262 q 192 164 132 204 q 319 124 252 124 q 410 157 376 124 q 444 236 444 190 q 426 298 444 274 q 386 337 409 322 q 346 360 363 352 l 243 412 q 164 461 204 432 q 98 534 124 489 q 71 645 71 579 q 104 771 71 717 q 196 855 137 825 q 335 885 256 885 q 468 861 410 885 q 562 809 527 836 l 521 635 q 434 714 486 682 q 327 746 382 746 q 250 719 278 746 q 222 653 222 693 q 234 608 222 627 q 266 574 246 588 q 310 549 286 560 l 414 497 q 468 466 438 485 q 528 417 499 447 q 575 346 557 388 q 594 246 594 304 q 559 112 594 172 q 462 17 525 52 q 313 -17 399 -17 m 327 938 l 123 1166 l 268 1166 q 299 1129 285 1148 q 329 1088 313 1111 q 359 1129 345 1111 q 391 1166 373 1148 l 531 1166 l 327 938 z "},"Ş":{"ha":637,"x_min":53,"x_max":594,"o":"m 53 -182 l 231 -8 q 133 28 177 4 q 57 85 88 53 l 100 262 q 192 164 132 204 q 319 124 252 124 q 410 157 376 124 q 444 236 444 190 q 426 298 444 274 q 386 337 409 322 q 346 360 363 352 l 243 412 q 164 461 204 432 q 98 534 124 489 q 71 645 71 579 q 104 771 71 717 q 196 855 137 825 q 335 885 256 885 q 468 861 410 885 q 562 809 527 836 l 521 635 q 434 714 486 682 q 327 746 382 746 q 250 719 278 746 q 222 653 222 693 q 234 608 222 627 q 266 574 246 588 q 310 549 286 560 l 414 497 q 468 466 438 485 q 528 417 499 447 q 575 346 557 388 q 594 246 594 304 q 532 74 594 146 q 365 -14 471 2 l 243 -182 l 53 -182 z "},"Ŝ":{"ha":637,"x_min":57,"x_max":594,"o":"m 313 -17 q 166 13 235 -17 q 57 85 97 42 l 100 262 q 192 164 132 204 q 319 124 252 124 q 410 157 376 124 q 444 236 444 190 q 426 298 444 274 q 386 337 409 322 q 346 360 363 352 l 243 412 q 164 461 204 432 q 98 534 124 489 q 71 645 71 579 q 104 771 71 717 q 196 855 137 825 q 335 885 256 885 q 468 861 410 885 q 562 809 527 836 l 521 635 q 434 714 486 682 q 327 746 382 746 q 250 719 278 746 q 222 653 222 693 q 234 608 222 627 q 266 574 246 588 q 310 549 286 560 l 414 497 q 468 466 438 485 q 528 417 499 447 q 575 346 557 388 q 594 246 594 304 q 559 112 594 172 q 462 17 525 52 q 313 -17 399 -17 m 123 946 l 327 1175 l 531 946 l 387 946 q 355 983 369 965 q 325 1024 341 1001 q 295 983 309 1001 q 264 946 282 965 l 123 946 z "},"Ș":{"ha":637,"x_min":57,"x_max":594,"o":"m 313 -17 q 166 13 235 -17 q 57 85 97 42 l 100 262 q 192 164 132 204 q 319 124 252 124 q 410 157 376 124 q 444 236 444 190 q 426 298 444 274 q 386 337 409 322 q 346 360 363 352 l 243 412 q 164 461 204 432 q 98 534 124 489 q 71 645 71 579 q 104 771 71 717 q 196 855 137 825 q 335 885 256 885 q 468 861 410 885 q 562 809 527 836 l 521 635 q 434 714 486 682 q 327 746 382 746 q 250 719 278 746 q 222 653 222 693 q 234 608 222 627 q 266 574 246 588 q 310 549 286 560 l 414 497 q 468 466 438 485 q 528 417 499 447 q 575 346 557 388 q 594 246 594 304 q 559 112 594 172 q 462 17 525 52 q 313 -17 399 -17 m 152 -318 q 208 -223 186 -276 q 235 -107 231 -171 l 378 -107 q 356 -218 374 -165 q 308 -318 338 -271 l 152 -318 z "},"ẞ":{"ha":950,"x_min":100,"x_max":914,"o":"m 598 -17 q 443 21 513 -17 q 333 122 373 59 l 416 286 q 478 172 428 219 q 599 124 529 124 q 683 146 646 124 q 743 205 720 168 q 765 288 765 242 q 744 371 765 334 q 684 430 722 408 q 596 451 646 451 q 543 444 568 451 q 492 423 517 437 l 647 728 l 261 728 l 261 0 l 100 0 l 100 868 l 876 868 l 713 565 q 816 506 771 547 q 888 410 861 466 q 914 287 914 354 q 871 132 914 202 q 756 23 828 63 q 598 -17 684 -17 z "},"T":{"ha":680,"x_min":42,"x_max":639,"o":"m 42 726 l 42 868 l 639 868 l 639 726 l 421 726 l 421 0 l 259 0 l 259 726 l 42 726 z "},"Ŧ":{"ha":680,"x_min":42,"x_max":639,"o":"m 259 0 l 259 378 l 109 378 l 109 490 l 259 490 l 259 726 l 42 726 l 42 868 l 639 868 l 639 726 l 421 726 l 421 490 l 572 490 l 572 378 l 421 378 l 421 0 l 259 0 z "},"Ť":{"ha":680,"x_min":42,"x_max":639,"o":"m 42 726 l 42 868 l 639 868 l 639 726 l 421 726 l 421 0 l 259 0 l 259 726 l 42 726 m 340 938 l 137 1166 l 282 1166 q 313 1129 299 1148 q 342 1088 326 1111 q 373 1129 359 1111 q 404 1166 387 1148 l 545 1166 l 340 938 z "},"Ţ":{"ha":680,"x_min":42,"x_max":639,"o":"m 86 -182 l 259 0 l 259 726 l 42 726 l 42 868 l 639 868 l 639 726 l 421 726 l 421 0 l 276 -182 l 86 -182 z "},"Ț":{"ha":680,"x_min":42,"x_max":639,"o":"m 42 726 l 42 868 l 639 868 l 639 726 l 421 726 l 421 0 l 259 0 l 259 726 l 42 726 m 186 -318 q 242 -223 220 -276 q 269 -107 264 -171 l 412 -107 q 390 -218 408 -165 q 341 -318 371 -271 l 186 -318 z "},"U":{"ha":772,"x_min":78,"x_max":693,"o":"m 386 -18 q 228 19 297 -18 q 118 125 158 57 q 78 287 78 194 l 78 868 l 240 868 l 240 295 q 282 177 240 221 q 389 132 323 132 q 495 175 452 132 q 537 289 537 218 l 537 868 l 693 868 l 693 290 q 654 126 693 196 q 545 19 614 57 q 386 -18 476 -18 z "},"Ú":{"ha":772,"x_min":78,"x_max":693,"o":"m 386 -18 q 228 19 297 -18 q 118 125 158 57 q 78 287 78 194 l 78 868 l 240 868 l 240 295 q 282 177 240 221 q 389 132 323 132 q 495 175 452 132 q 537 289 537 218 l 537 868 l 693 868 l 693 290 q 654 126 693 196 q 545 19 614 57 q 386 -18 476 -18 m 309 946 l 453 1137 l 644 1137 l 451 946 l 309 946 z "},"Ŭ":{"ha":772,"x_min":78,"x_max":693,"o":"m 386 -18 q 228 19 297 -18 q 118 125 158 57 q 78 287 78 194 l 78 868 l 240 868 l 240 295 q 282 177 240 221 q 389 132 323 132 q 495 175 452 132 q 537 289 537 218 l 537 868 l 693 868 l 693 290 q 654 126 693 196 q 545 19 614 57 q 386 -18 476 -18 m 386 932 q 289 956 333 932 q 220 1023 246 981 q 195 1117 195 1065 l 308 1117 q 331 1062 308 1085 q 386 1039 354 1039 q 441 1061 418 1039 q 465 1117 465 1084 l 577 1117 q 552 1022 577 1064 q 483 956 527 980 q 386 932 440 932 z "},"Û":{"ha":772,"x_min":78,"x_max":693,"o":"m 386 -18 q 228 19 297 -18 q 118 125 158 57 q 78 287 78 194 l 78 868 l 240 868 l 240 295 q 282 177 240 221 q 389 132 323 132 q 495 175 452 132 q 537 289 537 218 l 537 868 l 693 868 l 693 290 q 654 126 693 196 q 545 19 614 57 q 386 -18 476 -18 m 182 946 l 386 1175 l 590 946 l 446 946 q 414 983 428 965 q 384 1024 400 1001 q 354 983 367 1001 q 323 946 340 965 l 182 946 z "},"Ȕ":{"ha":772,"x_min":78,"x_max":693,"o":"m 386 -18 q 228 19 297 -18 q 118 125 158 57 q 78 287 78 194 l 78 868 l 240 868 l 240 295 q 282 177 240 221 q 389 132 323 132 q 495 175 452 132 q 537 289 537 218 l 537 868 l 693 868 l 693 290 q 654 126 693 196 q 545 19 614 57 q 386 -18 476 -18 m 448 946 l 342 1128 l 502 1128 l 561 946 l 448 946 m 217 946 l 111 1128 l 270 1128 l 330 946 l 217 946 z "},"Ü":{"ha":772,"x_min":78,"x_max":693,"o":"m 386 -18 q 228 19 297 -18 q 118 125 158 57 q 78 287 78 194 l 78 868 l 240 868 l 240 295 q 282 177 240 221 q 389 132 323 132 q 495 175 452 132 q 537 289 537 218 l 537 868 l 693 868 l 693 290 q 654 126 693 196 q 545 19 614 57 q 386 -18 476 -18 m 517 956 q 456 981 481 956 q 431 1042 431 1006 q 456 1103 431 1078 q 517 1128 481 1128 q 578 1103 554 1128 q 603 1042 603 1078 q 578 981 603 1006 q 517 956 554 956 m 255 956 q 194 981 219 956 q 169 1042 169 1006 q 194 1103 169 1078 q 255 1128 219 1128 q 316 1103 291 1128 q 341 1042 341 1078 q 316 981 341 1006 q 255 956 291 956 z "},"Ụ":{"ha":772,"x_min":78,"x_max":693,"o":"m 386 -18 q 228 19 297 -18 q 118 125 158 57 q 78 287 78 194 l 78 868 l 240 868 l 240 295 q 282 177 240 221 q 389 132 323 132 q 495 175 452 132 q 537 289 537 218 l 537 868 l 693 868 l 693 290 q 654 126 693 196 q 545 19 614 57 q 386 -18 476 -18 m 386 -258 q 326 -234 350 -258 q 301 -174 301 -209 q 326 -113 301 -137 q 386 -89 350 -89 q 447 -113 422 -89 q 471 -174 471 -137 q 447 -234 471 -209 q 386 -258 422 -258 z "},"Ù":{"ha":772,"x_min":78,"x_max":693,"o":"m 386 -18 q 228 19 297 -18 q 118 125 158 57 q 78 287 78 194 l 78 868 l 240 868 l 240 295 q 282 177 240 221 q 389 132 323 132 q 495 175 452 132 q 537 289 537 218 l 537 868 l 693 868 l 693 290 q 654 126 693 196 q 545 19 614 57 q 386 -18 476 -18 m 321 946 l 127 1137 l 318 1137 l 464 946 l 321 946 z "},"Ủ":{"ha":772,"x_min":78,"x_max":693,"o":"m 386 -18 q 228 19 297 -18 q 118 125 158 57 q 78 287 78 194 l 78 868 l 240 868 l 240 295 q 282 177 240 221 q 389 132 323 132 q 495 175 452 132 q 537 289 537 218 l 537 868 l 693 868 l 693 290 q 654 126 693 196 q 545 19 614 57 q 386 -18 476 -18 m 337 946 q 371 992 360 972 q 383 1029 383 1013 q 370 1060 383 1047 q 334 1072 357 1072 q 295 1060 313 1072 q 267 1035 278 1048 l 237 1152 q 290 1179 256 1168 q 364 1189 324 1189 q 472 1156 429 1189 q 515 1064 515 1123 q 500 998 515 1027 q 466 946 484 968 l 337 946 z "},"Ư":{"ha":902,"x_min":78,"x_max":893,"o":"m 386 -18 q 228 19 297 -18 q 118 125 158 57 q 78 287 78 194 l 78 868 l 240 868 l 240 295 q 282 177 240 221 q 388 132 323 132 q 494 175 452 132 q 535 289 535 218 l 535 868 l 684 868 l 684 764 q 691 762 687 763 q 698 762 694 762 q 743 781 724 762 q 762 837 762 800 q 757 878 762 855 q 739 926 752 902 l 870 926 q 888 880 883 902 q 893 836 893 857 q 871 740 893 779 q 813 681 849 701 q 736 661 777 661 q 693 666 716 661 l 693 290 q 654 126 693 196 q 545 19 614 57 q 386 -18 476 -18 z "},"Ứ":{"ha":902,"x_min":78,"x_max":893,"o":"m 386 -18 q 228 19 297 -18 q 118 125 158 57 q 78 287 78 194 l 78 868 l 240 868 l 240 295 q 282 177 240 221 q 388 132 323 132 q 494 175 452 132 q 535 289 535 218 l 535 868 l 684 868 l 684 764 q 691 762 687 763 q 698 762 694 762 q 743 781 724 762 q 762 837 762 800 q 757 878 762 855 q 739 926 752 902 l 870 926 q 888 880 883 902 q 893 836 893 857 q 871 740 893 779 q 813 681 849 701 q 736 661 777 661 q 693 666 716 661 l 693 290 q 654 126 693 196 q 545 19 614 57 q 386 -18 476 -18 m 309 946 l 453 1137 l 644 1137 l 451 946 l 309 946 z "},"Ự":{"ha":902,"x_min":78,"x_max":893,"o":"m 386 -18 q 228 19 297 -18 q 118 125 158 57 q 78 287 78 194 l 78 868 l 240 868 l 240 295 q 282 177 240 221 q 388 132 323 132 q 494 175 452 132 q 535 289 535 218 l 535 868 l 684 868 l 684 764 q 691 762 687 763 q 698 762 694 762 q 743 781 724 762 q 762 837 762 800 q 757 878 762 855 q 739 926 752 902 l 870 926 q 888 880 883 902 q 893 836 893 857 q 871 740 893 779 q 813 681 849 701 q 736 661 777 661 q 693 666 716 661 l 693 290 q 654 126 693 196 q 545 19 614 57 q 386 -18 476 -18 m 386 -258 q 326 -234 350 -258 q 301 -174 301 -209 q 326 -113 301 -137 q 386 -89 350 -89 q 447 -113 422 -89 q 471 -174 471 -137 q 447 -234 471 -209 q 386 -258 422 -258 z "},"Ừ":{"ha":902,"x_min":78,"x_max":893,"o":"m 386 -18 q 228 19 297 -18 q 118 125 158 57 q 78 287 78 194 l 78 868 l 240 868 l 240 295 q 282 177 240 221 q 388 132 323 132 q 494 175 452 132 q 535 289 535 218 l 535 868 l 684 868 l 684 764 q 691 762 687 763 q 698 762 694 762 q 743 781 724 762 q 762 837 762 800 q 757 878 762 855 q 739 926 752 902 l 870 926 q 888 880 883 902 q 893 836 893 857 q 871 740 893 779 q 813 681 849 701 q 736 661 777 661 q 693 666 716 661 l 693 290 q 654 126 693 196 q 545 19 614 57 q 386 -18 476 -18 m 321 946 l 127 1137 l 318 1137 l 464 946 l 321 946 z "},"Ử":{"ha":902,"x_min":78,"x_max":893,"o":"m 386 -18 q 228 19 297 -18 q 118 125 158 57 q 78 287 78 194 l 78 868 l 240 868 l 240 295 q 282 177 240 221 q 388 132 323 132 q 494 175 452 132 q 535 289 535 218 l 535 868 l 684 868 l 684 764 q 691 762 687 763 q 698 762 694 762 q 743 781 724 762 q 762 837 762 800 q 757 878 762 855 q 739 926 752 902 l 870 926 q 888 880 883 902 q 893 836 893 857 q 871 740 893 779 q 813 681 849 701 q 736 661 777 661 q 693 666 716 661 l 693 290 q 654 126 693 196 q 545 19 614 57 q 386 -18 476 -18 m 337 946 q 371 992 360 972 q 383 1029 383 1013 q 370 1060 383 1047 q 334 1072 357 1072 q 295 1060 313 1072 q 267 1035 278 1048 l 237 1152 q 290 1179 256 1168 q 364 1189 324 1189 q 472 1156 429 1189 q 515 1064 515 1123 q 500 998 515 1027 q 466 946 484 968 l 337 946 z "},"Ữ":{"ha":902,"x_min":78,"x_max":893,"o":"m 386 -18 q 228 19 297 -18 q 118 125 158 57 q 78 287 78 194 l 78 868 l 240 868 l 240 295 q 282 177 240 221 q 388 132 323 132 q 494 175 452 132 q 535 289 535 218 l 535 868 l 684 868 l 684 764 q 691 762 687 763 q 698 762 694 762 q 743 781 724 762 q 762 837 762 800 q 757 878 762 855 q 739 926 752 902 l 870 926 q 888 880 883 902 q 893 836 893 857 q 871 740 893 779 q 813 681 849 701 q 736 661 777 661 q 693 666 716 661 l 693 290 q 654 126 693 196 q 545 19 614 57 q 386 -18 476 -18 m 194 957 l 164 1067 q 217 1126 184 1105 q 286 1146 250 1146 q 358 1129 324 1146 q 423 1097 392 1113 q 486 1080 455 1080 q 540 1098 517 1080 q 578 1149 562 1116 l 608 1038 q 555 980 587 1000 q 485 960 523 960 q 414 976 448 960 q 349 1009 380 992 q 285 1025 317 1025 q 232 1007 256 1025 q 194 957 208 989 z "},"Ű":{"ha":772,"x_min":78,"x_max":693,"o":"m 386 -18 q 228 19 297 -18 q 118 125 158 57 q 78 287 78 194 l 78 868 l 240 868 l 240 295 q 282 177 240 221 q 389 132 323 132 q 495 175 452 132 q 537 289 537 218 l 537 868 l 693 868 l 693 290 q 654 126 693 196 q 545 19 614 57 q 386 -18 476 -18 m 442 946 l 503 1128 l 662 1128 l 555 946 l 442 946 m 210 946 l 271 1128 l 430 1128 l 323 946 l 210 946 z "},"Ȗ":{"ha":772,"x_min":78,"x_max":693,"o":"m 386 -18 q 228 19 297 -18 q 118 125 158 57 q 78 287 78 194 l 78 868 l 240 868 l 240 295 q 282 177 240 221 q 389 132 323 132 q 495 175 452 132 q 537 289 537 218 l 537 868 l 693 868 l 693 290 q 654 126 693 196 q 545 19 614 57 q 386 -18 476 -18 m 195 932 q 220 1027 195 985 q 289 1093 246 1069 q 386 1117 333 1117 q 483 1093 439 1117 q 552 1027 527 1069 q 577 932 577 985 l 465 932 q 441 988 465 965 q 386 1011 418 1011 q 331 988 355 1011 q 308 932 308 965 l 195 932 z "},"Ū":{"ha":772,"x_min":78,"x_max":693,"o":"m 386 -18 q 228 19 297 -18 q 118 125 158 57 q 78 287 78 194 l 78 868 l 240 868 l 240 295 q 282 177 240 221 q 389 132 323 132 q 495 175 452 132 q 537 289 537 218 l 537 868 l 693 868 l 693 290 q 654 126 693 196 q 545 19 614 57 q 386 -18 476 -18 m 211 989 l 211 1096 l 561 1096 l 561 989 l 211 989 z "},"Ų":{"ha":772,"x_min":78,"x_max":693,"o":"m 476 -305 q 344 -266 397 -305 q 290 -148 290 -228 q 299 -90 290 -122 q 336 -14 308 -59 q 202 35 259 -5 q 111 138 144 74 q 78 287 78 203 l 78 868 l 240 868 l 240 295 q 282 177 240 221 q 389 132 323 132 q 495 175 452 132 q 537 289 537 218 l 537 868 l 693 868 l 693 290 q 633 94 693 172 q 475 -8 573 16 q 437 -60 451 -35 q 423 -116 423 -86 q 446 -172 423 -154 q 503 -190 469 -189 l 476 -305 z "},"Ů":{"ha":772,"x_min":78,"x_max":693,"o":"m 386 -18 q 228 19 297 -18 q 118 125 158 57 q 78 287 78 194 l 78 868 l 240 868 l 240 295 q 282 177 240 221 q 389 132 323 132 q 495 175 452 132 q 537 289 537 218 l 537 868 l 693 868 l 693 290 q 654 126 693 196 q 545 19 614 57 q 386 -18 476 -18 m 386 913 q 293 951 332 913 q 255 1042 255 988 q 293 1134 255 1097 q 386 1171 331 1171 q 479 1134 440 1171 q 518 1042 518 1097 q 480 950 518 987 q 386 913 442 913 m 386 988 q 424 1004 409 988 q 440 1042 440 1019 q 424 1080 440 1065 q 386 1096 408 1096 q 348 1080 364 1096 q 332 1042 332 1065 q 348 1004 332 1019 q 386 988 364 988 z "},"Ũ":{"ha":772,"x_min":78,"x_max":693,"o":"m 386 -18 q 228 19 297 -18 q 118 125 158 57 q 78 287 78 194 l 78 868 l 240 868 l 240 295 q 282 177 240 221 q 389 132 323 132 q 495 175 452 132 q 537 289 537 218 l 537 868 l 693 868 l 693 290 q 654 126 693 196 q 545 19 614 57 q 386 -18 476 -18 m 194 957 l 164 1067 q 217 1126 184 1105 q 286 1146 250 1146 q 358 1129 324 1146 q 423 1097 392 1113 q 486 1080 455 1080 q 540 1098 517 1080 q 578 1149 562 1116 l 608 1038 q 555 980 587 1000 q 485 960 523 960 q 414 976 448 960 q 349 1009 380 992 q 285 1025 317 1025 q 232 1007 256 1025 q 194 957 208 989 z "},"V":{"ha":738,"x_min":8,"x_max":731,"o":"m 368 -29 l 8 868 l 174 868 l 331 470 q 353 414 342 441 q 373 354 364 387 q 393 413 383 387 q 416 470 403 439 l 573 868 l 731 868 l 370 -29 l 368 -29 z "},"W":{"ha":1172,"x_min":8,"x_max":1165,"o":"m 359 -30 l 8 868 l 173 868 l 332 460 q 352 407 342 434 q 372 340 361 379 q 394 407 384 379 q 416 460 405 434 l 590 897 l 765 460 q 787 408 775 435 q 809 340 799 380 q 830 408 821 380 q 850 460 840 435 l 1008 868 l 1165 868 l 814 -30 l 629 432 q 609 485 619 457 q 586 553 598 513 q 564 486 575 513 q 544 432 554 458 l 359 -30 z "},"Ẃ":{"ha":1172,"x_min":8,"x_max":1165,"o":"m 359 -30 l 8 868 l 173 868 l 332 460 q 352 407 342 434 q 372 340 361 379 q 394 407 384 379 q 416 460 405 434 l 590 897 l 765 460 q 787 408 775 435 q 809 340 799 380 q 830 408 821 380 q 850 460 840 435 l 1008 868 l 1165 868 l 814 -30 l 629 432 q 609 485 619 457 q 586 553 598 513 q 564 486 575 513 q 544 432 554 458 l 359 -30 m 513 946 l 658 1137 l 849 1137 l 656 946 l 513 946 z "},"Ŵ":{"ha":1172,"x_min":8,"x_max":1165,"o":"m 359 -30 l 8 868 l 173 868 l 332 460 q 352 407 342 434 q 372 340 361 379 q 394 407 384 379 q 416 460 405 434 l 590 897 l 765 460 q 787 408 775 435 q 809 340 799 380 q 830 408 821 380 q 850 460 840 435 l 1008 868 l 1165 868 l 814 -30 l 629 432 q 609 485 619 457 q 586 553 598 513 q 564 486 575 513 q 544 432 554 458 l 359 -30 m 387 946 l 590 1175 l 795 946 l 650 946 q 619 983 633 965 q 588 1024 605 1001 q 558 983 572 1001 q 528 946 545 965 l 387 946 z "},"Ẅ":{"ha":1172,"x_min":8,"x_max":1165,"o":"m 359 -30 l 8 868 l 173 868 l 332 460 q 352 407 342 434 q 372 340 361 379 q 394 407 384 379 q 416 460 405 434 l 590 897 l 765 460 q 787 408 775 435 q 809 340 799 380 q 830 408 821 380 q 850 460 840 435 l 1008 868 l 1165 868 l 814 -30 l 629 432 q 609 485 619 457 q 586 553 598 513 q 564 486 575 513 q 544 432 554 458 l 359 -30 m 758 877 q 696 901 721 877 q 671 964 671 926 q 696 1026 671 1001 q 758 1050 720 1050 q 820 1026 796 1050 q 845 964 845 1001 q 820 902 845 927 q 758 877 796 877 m 422 877 q 361 901 386 877 q 336 964 336 926 q 360 1026 336 1001 q 422 1050 385 1050 q 485 1026 460 1050 q 509 964 509 1001 q 485 902 509 927 q 422 877 460 877 z "},"Ẁ":{"ha":1172,"x_min":8,"x_max":1165,"o":"m 359 -30 l 8 868 l 173 868 l 332 460 q 352 407 342 434 q 372 340 361 379 q 394 407 384 379 q 416 460 405 434 l 590 897 l 765 460 q 787 408 775 435 q 809 340 799 380 q 830 408 821 380 q 850 460 840 435 l 1008 868 l 1165 868 l 814 -30 l 629 432 q 609 485 619 457 q 586 553 598 513 q 564 486 575 513 q 544 432 554 458 l 359 -30 m 526 946 l 332 1137 l 523 1137 l 668 946 l 526 946 z "},"X":{"ha":839,"x_min":6,"x_max":838,"o":"m 6 0 l 313 500 l 83 868 l 264 868 l 350 733 q 386 674 368 705 q 423 602 403 643 q 461 675 444 644 q 497 734 478 706 l 584 868 l 757 868 l 528 504 l 838 0 l 653 0 l 489 268 q 456 326 473 296 q 420 392 439 355 q 383 326 399 355 q 349 268 367 296 l 185 0 l 6 0 z "},"Y":{"ha":680,"x_min":9,"x_max":671,"o":"m 261 0 l 261 413 l 9 868 l 187 868 l 299 659 q 322 614 311 637 q 345 562 334 592 q 368 614 357 592 q 392 659 380 637 l 505 868 l 671 868 l 419 413 l 419 0 l 261 0 z "},"Ý":{"ha":680,"x_min":9,"x_max":671,"o":"m 261 0 l 261 413 l 9 868 l 187 868 l 299 659 q 322 614 311 637 q 345 562 334 592 q 368 614 357 592 q 392 659 380 637 l 505 868 l 671 868 l 419 413 l 419 0 l 261 0 m 264 946 l 409 1137 l 600 1137 l 407 946 l 264 946 z "},"Ŷ":{"ha":680,"x_min":9,"x_max":671,"o":"m 261 0 l 261 413 l 9 868 l 187 868 l 299 659 q 322 614 311 637 q 345 562 334 592 q 368 614 357 592 q 392 659 380 637 l 505 868 l 671 868 l 419 413 l 419 0 l 261 0 m 138 946 l 341 1175 l 546 946 l 401 946 q 370 983 384 965 q 340 1024 356 1001 q 310 983 323 1001 q 279 946 296 965 l 138 946 z "},"Ÿ":{"ha":680,"x_min":9,"x_max":671,"o":"m 261 0 l 261 413 l 9 868 l 187 868 l 299 659 q 322 614 311 637 q 345 562 334 592 q 368 614 357 592 q 392 659 380 637 l 505 868 l 671 868 l 419 413 l 419 0 l 261 0 m 473 956 q 412 981 437 956 q 387 1042 387 1006 q 412 1103 387 1078 q 473 1128 437 1128 q 534 1103 509 1128 q 558 1042 558 1078 q 534 981 558 1006 q 473 956 509 956 m 210 956 q 149 981 175 956 q 124 1042 124 1006 q 149 1103 124 1078 q 210 1128 175 1128 q 272 1103 247 1128 q 297 1042 297 1078 q 272 981 297 1006 q 210 956 247 956 z "},"Ỵ":{"ha":680,"x_min":9,"x_max":671,"o":"m 261 0 l 261 413 l 9 868 l 187 868 l 299 659 q 322 614 311 637 q 345 562 334 592 q 368 614 357 592 q 392 659 380 637 l 505 868 l 671 868 l 419 413 l 419 0 l 261 0 m 341 -258 q 281 -234 306 -258 q 257 -174 257 -209 q 281 -113 257 -137 q 341 -89 306 -89 q 402 -113 378 -89 q 426 -174 426 -137 q 402 -234 426 -209 q 341 -258 378 -258 z "},"Ỳ":{"ha":680,"x_min":9,"x_max":671,"o":"m 261 0 l 261 413 l 9 868 l 187 868 l 299 659 q 322 614 311 637 q 345 562 334 592 q 368 614 357 592 q 392 659 380 637 l 505 868 l 671 868 l 419 413 l 419 0 l 261 0 m 277 946 l 83 1137 l 274 1137 l 420 946 l 277 946 z "},"Ỷ":{"ha":680,"x_min":9,"x_max":671,"o":"m 261 0 l 261 413 l 9 868 l 187 868 l 299 659 q 322 614 311 637 q 345 562 334 592 q 368 614 357 592 q 392 659 380 637 l 505 868 l 671 868 l 419 413 l 419 0 l 261 0 m 292 946 q 327 992 315 972 q 339 1029 339 1013 q 326 1060 339 1047 q 289 1072 313 1072 q 251 1060 268 1072 q 223 1035 233 1048 l 193 1152 q 245 1179 211 1168 q 319 1189 280 1189 q 428 1156 385 1189 q 471 1064 471 1123 q 455 998 471 1027 q 421 946 440 968 l 292 946 z "},"Ȳ":{"ha":680,"x_min":9,"x_max":671,"o":"m 261 0 l 261 413 l 9 868 l 187 868 l 299 659 q 322 614 311 637 q 345 562 334 592 q 368 614 357 592 q 392 659 380 637 l 505 868 l 671 868 l 419 413 l 419 0 l 261 0 m 167 989 l 167 1096 l 517 1096 l 517 989 l 167 989 z "},"Ỹ":{"ha":680,"x_min":9,"x_max":671,"o":"m 261 0 l 261 413 l 9 868 l 187 868 l 299 659 q 322 614 311 637 q 345 562 334 592 q 368 614 357 592 q 392 659 380 637 l 505 868 l 671 868 l 419 413 l 419 0 l 261 0 m 149 957 l 120 1067 q 173 1126 140 1105 q 242 1146 205 1146 q 313 1129 280 1146 q 379 1097 347 1113 q 442 1080 411 1080 q 495 1098 473 1080 q 533 1149 518 1116 l 563 1038 q 511 980 543 1000 q 441 960 478 960 q 370 976 404 960 q 304 1009 336 992 q 241 1025 273 1025 q 188 1007 211 1025 q 149 957 164 989 z "},"Z":{"ha":651,"x_min":23,"x_max":616,"o":"m 23 0 l 384 726 l 66 726 l 66 868 l 616 868 l 256 142 l 597 142 l 597 0 l 23 0 z "},"Ź":{"ha":651,"x_min":23,"x_max":616,"o":"m 23 0 l 384 726 l 66 726 l 66 868 l 616 868 l 256 142 l 597 142 l 597 0 l 23 0 m 262 946 l 407 1137 l 598 1137 l 405 946 l 262 946 z "},"Ž":{"ha":651,"x_min":23,"x_max":616,"o":"m 23 0 l 384 726 l 66 726 l 66 868 l 616 868 l 256 142 l 597 142 l 597 0 l 23 0 m 340 938 l 136 1166 l 281 1166 q 312 1129 298 1148 q 341 1088 325 1111 q 372 1129 358 1111 q 403 1166 386 1148 l 544 1166 l 340 938 z "},"Ż":{"ha":651,"x_min":23,"x_max":616,"o":"m 23 0 l 384 726 l 66 726 l 66 868 l 616 868 l 256 142 l 597 142 l 597 0 l 23 0 m 340 955 q 278 980 304 955 q 253 1042 253 1005 q 278 1104 253 1079 q 340 1128 303 1128 q 402 1104 377 1128 q 426 1042 426 1079 q 402 980 426 1006 q 340 955 377 955 z "},"a":{"ha":719,"x_min":40,"x_max":648,"o":"m 328 -14 q 183 27 249 -14 q 79 137 118 68 q 40 289 40 206 q 79 442 40 373 q 183 551 118 510 q 328 592 249 592 q 433 572 385 592 q 515 516 481 552 l 515 579 l 648 579 l 648 0 l 515 0 l 515 64 q 433 7 481 28 q 328 -14 385 -14 m 346 121 q 430 144 393 121 q 489 205 467 167 q 511 289 511 243 q 489 374 511 336 q 430 435 467 412 q 347 458 393 458 q 264 435 301 458 q 204 374 227 412 q 182 289 182 336 q 204 205 182 243 q 264 144 227 167 q 346 121 301 121 z "},"á":{"ha":719,"x_min":40,"x_max":648,"o":"m 328 -14 q 183 27 249 -14 q 79 137 118 68 q 40 289 40 206 q 79 442 40 373 q 183 551 118 510 q 328 592 249 592 q 433 572 385 592 q 515 516 481 552 l 515 579 l 648 579 l 648 0 l 515 0 l 515 64 q 433 7 481 28 q 328 -14 385 -14 m 346 121 q 430 144 393 121 q 489 205 467 167 q 511 289 511 243 q 489 374 511 336 q 430 435 467 412 q 347 458 393 458 q 264 435 301 458 q 204 374 227 412 q 182 289 182 336 q 204 205 182 243 q 264 144 227 167 q 346 121 301 121 m 285 657 l 374 848 l 541 848 l 407 657 l 285 657 z "},"ă":{"ha":719,"x_min":40,"x_max":648,"o":"m 328 -14 q 183 27 249 -14 q 79 137 118 68 q 40 289 40 206 q 79 442 40 373 q 183 551 118 510 q 328 592 249 592 q 433 572 385 592 q 515 516 481 552 l 515 579 l 648 579 l 648 0 l 515 0 l 515 64 q 433 7 481 28 q 328 -14 385 -14 m 346 121 q 430 144 393 121 q 489 205 467 167 q 511 289 511 243 q 489 374 511 336 q 430 435 467 412 q 347 458 393 458 q 264 435 301 458 q 204 374 227 412 q 182 289 182 336 q 204 205 182 243 q 264 144 227 167 q 346 121 301 121 m 350 642 q 254 667 297 642 q 185 734 210 692 q 159 828 159 775 l 272 828 q 295 773 272 796 q 350 749 318 749 q 406 772 382 749 q 429 828 429 795 l 541 828 q 516 733 541 774 q 448 666 491 691 q 350 642 404 642 z "},"ắ":{"ha":719,"x_min":40,"x_max":648,"o":"m 328 -14 q 183 27 249 -14 q 79 137 118 68 q 40 289 40 206 q 79 442 40 373 q 183 551 118 510 q 328 592 249 592 q 433 572 385 592 q 515 516 481 552 l 515 579 l 648 579 l 648 0 l 515 0 l 515 64 q 433 7 481 28 q 328 -14 385 -14 m 346 121 q 430 144 393 121 q 489 205 467 167 q 511 289 511 243 q 489 374 511 336 q 430 435 467 412 q 347 458 393 458 q 264 435 301 458 q 204 374 227 412 q 182 289 182 336 q 204 205 182 243 q 264 144 227 167 q 346 121 301 121 m 350 642 q 254 667 297 642 q 185 734 210 692 q 159 828 159 775 l 266 828 q 291 768 266 793 q 350 744 316 744 q 409 768 384 744 q 434 828 434 793 l 541 828 q 516 733 541 774 q 448 666 491 691 q 350 642 404 642 m 283 848 l 351 992 l 500 992 l 394 848 l 283 848 z "},"ặ":{"ha":719,"x_min":40,"x_max":648,"o":"m 328 -14 q 183 27 249 -14 q 79 137 118 68 q 40 289 40 206 q 79 442 40 373 q 183 551 118 510 q 328 592 249 592 q 433 572 385 592 q 515 516 481 552 l 515 579 l 648 579 l 648 0 l 515 0 l 515 64 q 433 7 481 28 q 328 -14 385 -14 m 346 121 q 430 144 393 121 q 489 205 467 167 q 511 289 511 243 q 489 374 511 336 q 430 435 467 412 q 347 458 393 458 q 264 435 301 458 q 204 374 227 412 q 182 289 182 336 q 204 205 182 243 q 264 144 227 167 q 346 121 301 121 m 342 -258 q 282 -234 307 -258 q 258 -174 258 -209 q 282 -113 258 -137 q 342 -89 307 -89 q 403 -113 379 -89 q 427 -174 427 -137 q 403 -234 427 -209 q 342 -258 379 -258 m 350 642 q 254 667 297 642 q 185 734 210 692 q 159 828 159 775 l 272 828 q 295 773 272 796 q 350 749 318 749 q 406 772 382 749 q 429 828 429 795 l 541 828 q 516 733 541 774 q 448 666 491 691 q 350 642 404 642 z "},"ằ":{"ha":719,"x_min":40,"x_max":648,"o":"m 328 -14 q 183 27 249 -14 q 79 137 118 68 q 40 289 40 206 q 79 442 40 373 q 183 551 118 510 q 328 592 249 592 q 433 572 385 592 q 515 516 481 552 l 515 579 l 648 579 l 648 0 l 515 0 l 515 64 q 433 7 481 28 q 328 -14 385 -14 m 346 121 q 430 144 393 121 q 489 205 467 167 q 511 289 511 243 q 489 374 511 336 q 430 435 467 412 q 347 458 393 458 q 264 435 301 458 q 204 374 227 412 q 182 289 182 336 q 204 205 182 243 q 264 144 227 167 q 346 121 301 121 m 350 642 q 254 666 297 642 q 185 733 210 691 q 159 828 159 775 l 266 828 q 291 768 266 793 q 350 744 316 744 q 409 768 384 744 q 434 828 434 793 l 541 828 q 516 733 541 774 q 448 666 491 691 q 350 642 404 642 m 306 848 l 201 992 l 349 992 l 418 848 l 306 848 z "},"ẳ":{"ha":719,"x_min":40,"x_max":648,"o":"m 328 -14 q 183 27 249 -14 q 79 137 118 68 q 40 289 40 206 q 79 442 40 373 q 183 551 118 510 q 328 592 249 592 q 433 572 385 592 q 515 516 481 552 l 515 579 l 648 579 l 648 0 l 515 0 l 515 64 q 433 7 481 28 q 328 -14 385 -14 m 346 121 q 430 144 393 121 q 489 205 467 167 q 511 289 511 243 q 489 374 511 336 q 430 435 467 412 q 347 458 393 458 q 264 435 301 458 q 204 374 227 412 q 182 289 182 336 q 204 205 182 243 q 264 144 227 167 q 346 121 301 121 m 350 642 q 254 666 297 642 q 185 733 210 691 q 159 828 159 775 l 266 828 q 291 768 266 793 q 350 744 316 744 q 409 768 384 744 q 434 828 434 793 l 541 828 q 516 733 541 774 q 448 667 491 692 q 350 642 404 642 m 296 848 q 323 882 314 867 q 332 910 332 897 q 320 939 332 928 q 285 951 308 951 q 254 941 270 951 q 228 920 238 932 l 203 1009 q 250 1033 220 1023 q 312 1042 280 1042 q 410 1013 369 1042 q 450 934 450 985 q 440 887 450 908 q 413 848 430 866 l 296 848 z "},"ẵ":{"ha":719,"x_min":40,"x_max":648,"o":"m 328 -14 q 183 27 249 -14 q 79 137 118 68 q 40 289 40 206 q 79 442 40 373 q 183 551 118 510 q 328 592 249 592 q 433 572 385 592 q 515 516 481 552 l 515 579 l 648 579 l 648 0 l 515 0 l 515 64 q 433 7 481 28 q 328 -14 385 -14 m 346 121 q 430 144 393 121 q 489 205 467 167 q 511 289 511 243 q 489 374 511 336 q 430 435 467 412 q 347 458 393 458 q 264 435 301 458 q 204 374 227 412 q 182 289 182 336 q 204 205 182 243 q 264 144 227 167 q 346 121 301 121 m 350 642 q 254 667 297 642 q 185 734 210 692 q 159 828 159 775 l 266 828 q 291 768 266 793 q 350 744 316 744 q 409 768 384 744 q 434 828 434 793 l 541 828 q 516 733 541 774 q 448 666 491 691 q 350 642 404 642 m 198 864 l 164 962 q 210 1013 180 995 q 273 1031 239 1031 q 328 1020 303 1031 q 378 998 354 1010 q 426 987 401 987 q 473 1003 453 987 q 503 1047 492 1019 l 537 951 q 491 900 520 918 q 427 882 462 882 q 372 893 397 882 q 323 915 346 904 q 275 926 299 926 q 198 864 222 926 z "},"â":{"ha":719,"x_min":40,"x_max":648,"o":"m 328 -14 q 183 27 249 -14 q 79 137 118 68 q 40 289 40 206 q 79 442 40 373 q 183 551 118 510 q 328 592 249 592 q 433 572 385 592 q 515 516 481 552 l 515 579 l 648 579 l 648 0 l 515 0 l 515 64 q 433 7 481 28 q 328 -14 385 -14 m 346 121 q 430 144 393 121 q 489 205 467 167 q 511 289 511 243 q 489 374 511 336 q 430 435 467 412 q 347 458 393 458 q 264 435 301 458 q 204 374 227 412 q 182 289 182 336 q 204 205 182 243 q 264 144 227 167 q 346 121 301 121 m 147 657 l 350 885 l 555 657 l 410 657 q 379 693 393 675 q 348 735 365 712 q 318 693 332 712 q 287 657 305 675 l 147 657 z "},"ấ":{"ha":719,"x_min":40,"x_max":693,"o":"m 328 -14 q 183 27 249 -14 q 79 137 118 68 q 40 289 40 206 q 79 442 40 373 q 183 551 118 510 q 328 592 249 592 q 433 572 385 592 q 515 516 481 552 l 515 579 l 648 579 l 648 0 l 515 0 l 515 64 q 433 7 481 28 q 328 -14 385 -14 m 346 121 q 430 144 393 121 q 489 205 467 167 q 511 289 511 243 q 489 374 511 336 q 430 435 467 412 q 347 458 393 458 q 264 435 301 458 q 204 374 227 412 q 182 289 182 336 q 204 205 182 243 q 264 144 227 167 q 346 121 301 121 m 147 657 l 350 885 l 555 657 l 410 657 q 379 693 393 675 q 348 735 365 712 q 318 693 332 712 q 287 657 305 675 l 147 657 m 476 790 l 545 935 l 693 935 l 588 790 l 476 790 z "},"ậ":{"ha":719,"x_min":40,"x_max":648,"o":"m 328 -14 q 183 27 249 -14 q 79 137 118 68 q 40 289 40 206 q 79 442 40 373 q 183 551 118 510 q 328 592 249 592 q 433 572 385 592 q 515 516 481 552 l 515 579 l 648 579 l 648 0 l 515 0 l 515 64 q 433 7 481 28 q 328 -14 385 -14 m 346 121 q 430 144 393 121 q 489 205 467 167 q 511 289 511 243 q 489 374 511 336 q 430 435 467 412 q 347 458 393 458 q 264 435 301 458 q 204 374 227 412 q 182 289 182 336 q 204 205 182 243 q 264 144 227 167 q 346 121 301 121 m 342 -258 q 282 -234 307 -258 q 258 -174 258 -209 q 282 -113 258 -137 q 342 -89 307 -89 q 403 -113 379 -89 q 427 -174 427 -137 q 403 -234 427 -209 q 342 -258 379 -258 m 147 657 l 350 885 l 555 657 l 410 657 q 379 693 393 675 q 348 735 365 712 q 318 693 332 712 q 287 657 305 675 l 147 657 z "},"ầ":{"ha":719,"x_min":40,"x_max":660,"o":"m 328 -14 q 183 27 249 -14 q 79 137 118 68 q 40 289 40 206 q 79 442 40 373 q 183 551 118 510 q 328 592 249 592 q 433 572 385 592 q 515 516 481 552 l 515 579 l 648 579 l 648 0 l 515 0 l 515 64 q 433 7 481 28 q 328 -14 385 -14 m 346 121 q 430 144 393 121 q 489 205 467 167 q 511 289 511 243 q 489 374 511 336 q 430 435 467 412 q 347 458 393 458 q 264 435 301 458 q 204 374 227 412 q 182 289 182 336 q 204 205 182 243 q 264 144 227 167 q 346 121 301 121 m 147 657 l 350 885 l 555 657 l 410 657 q 379 693 393 675 q 348 735 365 712 q 318 693 332 712 q 287 657 305 675 l 147 657 m 548 790 l 443 935 l 591 935 l 660 790 l 548 790 z "},"ẩ":{"ha":719,"x_min":40,"x_max":669,"o":"m 328 -14 q 183 27 249 -14 q 79 137 118 68 q 40 289 40 206 q 79 442 40 373 q 183 551 118 510 q 328 592 249 592 q 433 572 385 592 q 515 516 481 552 l 515 579 l 648 579 l 648 0 l 515 0 l 515 64 q 433 7 481 28 q 328 -14 385 -14 m 346 121 q 430 144 393 121 q 489 205 467 167 q 511 289 511 243 q 489 374 511 336 q 430 435 467 412 q 347 458 393 458 q 264 435 301 458 q 204 374 227 412 q 182 289 182 336 q 204 205 182 243 q 264 144 227 167 q 346 121 301 121 m 147 657 l 350 885 l 555 657 l 410 657 q 379 693 393 675 q 348 735 365 712 q 318 693 332 712 q 287 657 305 675 l 147 657 m 509 781 q 541 823 530 804 q 552 856 552 842 q 540 886 552 875 q 505 897 528 897 q 474 888 490 897 q 448 867 458 879 l 422 956 q 470 979 440 969 q 531 989 500 989 q 630 960 589 989 q 670 880 670 932 q 657 825 670 849 q 627 781 644 801 l 509 781 z "},"ẫ":{"ha":719,"x_min":40,"x_max":648,"o":"m 328 -14 q 183 27 249 -14 q 79 137 118 68 q 40 289 40 206 q 79 442 40 373 q 183 551 118 510 q 328 592 249 592 q 433 572 385 592 q 515 516 481 552 l 515 579 l 648 579 l 648 0 l 515 0 l 515 64 q 433 7 481 28 q 328 -14 385 -14 m 346 121 q 430 144 393 121 q 489 205 467 167 q 511 289 511 243 q 489 374 511 336 q 430 435 467 412 q 347 458 393 458 q 264 435 301 458 q 204 374 227 412 q 182 289 182 336 q 204 205 182 243 q 264 144 227 167 q 346 121 301 121 m 147 657 l 350 870 l 555 657 l 410 657 q 379 689 393 672 q 348 724 365 705 q 318 689 332 705 q 287 657 305 672 l 147 657 m 198 864 l 164 962 q 210 1013 180 995 q 273 1031 239 1031 q 328 1020 303 1031 q 378 998 354 1010 q 426 987 401 987 q 473 1003 453 987 q 503 1047 492 1019 l 537 951 q 491 900 520 918 q 427 882 462 882 q 372 893 397 882 q 323 915 346 904 q 275 926 299 926 q 198 864 222 926 z "},"ȁ":{"ha":719,"x_min":40,"x_max":648,"o":"m 328 -14 q 183 27 249 -14 q 79 137 118 68 q 40 289 40 206 q 79 442 40 373 q 183 551 118 510 q 328 592 249 592 q 433 572 385 592 q 515 516 481 552 l 515 579 l 648 579 l 648 0 l 515 0 l 515 64 q 433 7 481 28 q 328 -14 385 -14 m 346 121 q 430 144 393 121 q 489 205 467 167 q 511 289 511 243 q 489 374 511 336 q 430 435 467 412 q 347 458 393 458 q 264 435 301 458 q 204 374 227 412 q 182 289 182 336 q 204 205 182 243 q 264 144 227 167 q 346 121 301 121 m 413 657 l 307 839 l 466 839 l 526 657 l 413 657 m 181 657 l 75 839 l 234 839 l 294 657 l 181 657 z "},"ä":{"ha":719,"x_min":40,"x_max":648,"o":"m 328 -14 q 183 27 249 -14 q 79 137 118 68 q 40 289 40 206 q 79 442 40 373 q 183 551 118 510 q 328 592 249 592 q 433 572 385 592 q 515 516 481 552 l 515 579 l 648 579 l 648 0 l 515 0 l 515 64 q 433 7 481 28 q 328 -14 385 -14 m 346 121 q 430 144 393 121 q 489 205 467 167 q 511 289 511 243 q 489 374 511 336 q 430 435 467 412 q 347 458 393 458 q 264 435 301 458 q 204 374 227 412 q 182 289 182 336 q 204 205 182 243 q 264 144 227 167 q 346 121 301 121 m 226 670 q 168 695 192 670 q 144 752 144 720 q 168 811 144 787 q 226 834 193 834 q 284 810 260 834 q 308 752 308 786 q 284 694 308 719 q 226 670 259 670 m 475 670 q 417 695 441 670 q 393 752 393 720 q 417 811 393 787 q 475 834 442 834 q 533 810 509 834 q 557 752 557 786 q 532 694 557 719 q 475 670 508 670 z "},"ạ":{"ha":719,"x_min":40,"x_max":648,"o":"m 328 -14 q 183 27 249 -14 q 79 137 118 68 q 40 289 40 206 q 79 442 40 373 q 183 551 118 510 q 328 592 249 592 q 433 572 385 592 q 515 516 481 552 l 515 579 l 648 579 l 648 0 l 515 0 l 515 64 q 433 7 481 28 q 328 -14 385 -14 m 346 121 q 430 144 393 121 q 489 205 467 167 q 511 289 511 243 q 489 374 511 336 q 430 435 467 412 q 347 458 393 458 q 264 435 301 458 q 204 374 227 412 q 182 289 182 336 q 204 205 182 243 q 264 144 227 167 q 346 121 301 121 m 342 -258 q 282 -234 307 -258 q 258 -174 258 -209 q 282 -113 258 -137 q 342 -89 307 -89 q 403 -113 379 -89 q 427 -174 427 -137 q 403 -234 427 -209 q 342 -258 379 -258 z "},"à":{"ha":719,"x_min":40,"x_max":648,"o":"m 328 -14 q 183 27 249 -14 q 79 137 118 68 q 40 289 40 206 q 79 442 40 373 q 183 551 118 510 q 328 592 249 592 q 433 572 385 592 q 515 516 481 552 l 515 579 l 648 579 l 648 0 l 515 0 l 515 64 q 433 7 481 28 q 328 -14 385 -14 m 346 121 q 430 144 393 121 q 489 205 467 167 q 511 289 511 243 q 489 374 511 336 q 430 435 467 412 q 347 458 393 458 q 264 435 301 458 q 204 374 227 412 q 182 289 182 336 q 204 205 182 243 q 264 144 227 167 q 346 121 301 121 m 294 657 l 159 848 l 327 848 l 415 657 l 294 657 z "},"ả":{"ha":719,"x_min":40,"x_max":648,"o":"m 328 -14 q 183 27 249 -14 q 79 137 118 68 q 40 289 40 206 q 79 442 40 373 q 183 551 118 510 q 328 592 249 592 q 433 572 385 592 q 515 516 481 552 l 515 579 l 648 579 l 648 0 l 515 0 l 515 64 q 433 7 481 28 q 328 -14 385 -14 m 346 121 q 430 144 393 121 q 489 205 467 167 q 511 289 511 243 q 489 374 511 336 q 430 435 467 412 q 347 458 393 458 q 264 435 301 458 q 204 374 227 412 q 182 289 182 336 q 204 205 182 243 q 264 144 227 167 q 346 121 301 121 m 304 657 q 338 705 326 684 q 350 743 350 725 q 337 774 350 762 q 300 786 323 786 q 264 776 282 786 q 235 753 247 766 l 209 851 q 260 876 228 865 q 328 886 292 886 q 435 855 391 886 q 478 768 478 823 q 464 706 478 733 q 431 657 449 678 l 304 657 z "},"ȃ":{"ha":719,"x_min":40,"x_max":648,"o":"m 328 -14 q 183 27 249 -14 q 79 137 118 68 q 40 289 40 206 q 79 442 40 373 q 183 551 118 510 q 328 592 249 592 q 433 572 385 592 q 515 516 481 552 l 515 579 l 648 579 l 648 0 l 515 0 l 515 64 q 433 7 481 28 q 328 -14 385 -14 m 346 121 q 430 144 393 121 q 489 205 467 167 q 511 289 511 243 q 489 374 511 336 q 430 435 467 412 q 347 458 393 458 q 264 435 301 458 q 204 374 227 412 q 182 289 182 336 q 204 205 182 243 q 264 144 227 167 q 346 121 301 121 m 159 642 q 185 737 159 695 q 254 803 210 779 q 350 828 297 828 q 447 803 403 828 q 516 737 491 779 q 541 642 541 695 l 429 642 q 406 698 429 675 q 350 721 382 721 q 296 698 319 721 q 272 642 272 675 l 159 642 z "},"ā":{"ha":719,"x_min":40,"x_max":648,"o":"m 328 -14 q 183 27 249 -14 q 79 137 118 68 q 40 289 40 206 q 79 442 40 373 q 183 551 118 510 q 328 592 249 592 q 433 572 385 592 q 515 516 481 552 l 515 579 l 648 579 l 648 0 l 515 0 l 515 64 q 433 7 481 28 q 328 -14 385 -14 m 346 121 q 430 144 393 121 q 489 205 467 167 q 511 289 511 243 q 489 374 511 336 q 430 435 467 412 q 347 458 393 458 q 264 435 301 458 q 204 374 227 412 q 182 289 182 336 q 204 205 182 243 q 264 144 227 167 q 346 121 301 121 m 176 699 l 176 806 l 526 806 l 526 699 l 176 699 z "},"ą":{"ha":719,"x_min":40,"x_max":669,"o":"m 642 -305 q 511 -266 564 -305 q 457 -148 457 -228 q 473 -72 457 -109 q 515 0 488 -36 l 515 64 q 433 7 481 28 q 328 -14 385 -14 q 183 27 249 -14 q 79 137 118 68 q 40 289 40 206 q 79 442 40 373 q 183 551 118 510 q 328 592 249 592 q 433 572 385 592 q 515 516 481 552 l 515 579 l 648 579 l 648 0 q 606 -56 622 -29 q 590 -116 590 -84 q 613 -172 590 -154 q 669 -190 636 -189 l 642 -305 m 346 121 q 430 144 393 121 q 489 205 467 167 q 511 289 511 243 q 489 374 511 336 q 430 435 467 412 q 347 458 393 458 q 264 435 301 458 q 204 374 227 412 q 182 289 182 336 q 204 205 182 243 q 264 144 227 167 q 346 121 301 121 z "},"å":{"ha":719,"x_min":40,"x_max":648,"o":"m 328 -14 q 183 27 249 -14 q 79 137 118 68 q 40 289 40 206 q 79 442 40 373 q 183 551 118 510 q 328 592 249 592 q 433 572 385 592 q 515 516 481 552 l 515 579 l 648 579 l 648 0 l 515 0 l 515 64 q 433 7 481 28 q 328 -14 385 -14 m 346 121 q 430 144 393 121 q 489 205 467 167 q 511 289 511 243 q 489 374 511 336 q 430 435 467 412 q 347 458 393 458 q 264 435 301 458 q 204 374 227 412 q 182 289 182 336 q 204 205 182 243 q 264 144 227 167 q 346 121 301 121 m 350 624 q 258 661 296 624 q 219 752 219 698 q 257 844 219 807 q 350 882 295 882 q 443 844 404 882 q 482 752 482 807 q 444 661 482 697 q 350 624 406 624 m 350 698 q 389 714 373 698 q 404 752 404 730 q 388 791 404 775 q 350 806 372 806 q 312 791 328 806 q 296 752 296 775 q 312 714 296 730 q 350 698 328 698 z "},"ǻ":{"ha":719,"x_min":40,"x_max":648,"o":"m 328 -14 q 183 27 249 -14 q 79 137 118 68 q 40 289 40 206 q 79 442 40 373 q 183 551 118 510 q 328 592 249 592 q 433 572 385 592 q 515 516 481 552 l 515 579 l 648 579 l 648 0 l 515 0 l 515 64 q 433 7 481 28 q 328 -14 385 -14 m 346 121 q 430 144 393 121 q 489 205 467 167 q 511 289 511 243 q 489 374 511 336 q 430 435 467 412 q 347 458 393 458 q 264 435 301 458 q 204 374 227 412 q 182 289 182 336 q 204 205 182 243 q 264 144 227 167 q 346 121 301 121 m 350 624 q 258 661 296 624 q 219 752 219 698 q 257 844 219 807 q 350 882 295 882 q 443 844 404 882 q 482 752 482 807 q 444 661 482 697 q 350 624 406 624 m 350 698 q 389 714 373 698 q 404 752 404 730 q 388 791 404 775 q 350 806 372 806 q 312 791 328 806 q 296 752 296 775 q 312 714 296 730 q 350 698 328 698 m 297 926 l 355 1050 l 494 1050 l 408 926 l 297 926 z "},"ã":{"ha":719,"x_min":40,"x_max":648,"o":"m 328 -14 q 183 27 249 -14 q 79 137 118 68 q 40 289 40 206 q 79 442 40 373 q 183 551 118 510 q 328 592 249 592 q 433 572 385 592 q 515 516 481 552 l 515 579 l 648 579 l 648 0 l 515 0 l 515 64 q 433 7 481 28 q 328 -14 385 -14 m 346 121 q 430 144 393 121 q 489 205 467 167 q 511 289 511 243 q 489 374 511 336 q 430 435 467 412 q 347 458 393 458 q 264 435 301 458 q 204 374 227 412 q 182 289 182 336 q 204 205 182 243 q 264 144 227 167 q 346 121 301 121 m 177 659 l 138 769 q 190 828 157 807 q 262 848 223 848 q 326 836 297 848 q 381 811 354 824 q 437 799 409 799 q 489 817 468 799 q 524 868 511 835 l 562 758 q 510 699 543 720 q 438 679 477 679 q 376 691 405 679 q 319 716 346 703 q 264 728 292 728 q 212 710 233 728 q 177 659 190 692 z "},"æ":{"ha":1064,"x_min":40,"x_max":1030,"o":"m 758 -17 q 614 12 678 -17 q 507 91 550 41 q 405 15 466 42 q 273 -13 344 -13 q 149 11 203 -13 q 68 77 96 35 q 40 177 40 120 q 110 317 40 265 q 293 369 180 369 q 456 336 380 369 l 460 355 q 414 438 457 404 q 298 473 371 473 q 196 453 243 473 q 115 402 149 433 l 83 532 q 191 579 131 562 q 313 595 251 595 q 438 575 383 595 q 530 518 494 555 q 622 575 570 555 q 733 596 674 596 q 885 557 818 596 q 991 452 952 519 q 1030 300 1030 385 l 1030 245 l 670 245 q 623 248 646 245 q 578 255 600 251 q 638 152 588 192 q 761 112 687 112 q 861 135 816 112 q 934 192 906 157 l 968 50 q 871 0 926 16 q 758 -17 817 -17 m 285 105 q 397 136 346 105 q 460 213 448 168 l 457 228 q 386 249 425 241 q 309 257 346 257 q 216 236 250 257 q 182 179 182 216 q 210 126 182 148 q 285 105 237 105 m 574 348 q 622 355 598 353 q 670 358 645 358 l 796 358 q 844 356 821 358 q 889 350 868 355 q 833 440 875 406 q 731 474 791 474 q 632 439 674 474 q 574 348 589 404 z "},"ǽ":{"ha":1064,"x_min":40,"x_max":1030,"o":"m 758 -17 q 614 12 678 -17 q 507 91 550 41 q 405 15 466 42 q 273 -13 344 -13 q 149 11 203 -13 q 68 77 96 35 q 40 177 40 120 q 110 317 40 265 q 293 369 180 369 q 456 336 380 369 l 460 355 q 414 438 457 404 q 298 473 371 473 q 196 453 243 473 q 115 402 149 433 l 83 532 q 191 579 131 562 q 313 595 251 595 q 438 575 383 595 q 530 518 494 555 q 622 575 570 555 q 733 596 674 596 q 885 557 818 596 q 991 452 952 519 q 1030 300 1030 385 l 1030 245 l 670 245 q 623 248 646 245 q 578 255 600 251 q 638 152 588 192 q 761 112 687 112 q 861 135 816 112 q 934 192 906 157 l 968 50 q 871 0 926 16 q 758 -17 817 -17 m 285 105 q 397 136 346 105 q 460 213 448 168 l 457 228 q 386 249 425 241 q 309 257 346 257 q 216 236 250 257 q 182 179 182 216 q 210 126 182 148 q 285 105 237 105 m 574 348 q 622 355 598 353 q 670 358 645 358 l 796 358 q 844 356 821 358 q 889 350 868 355 q 833 440 875 406 q 731 474 791 474 q 632 439 674 474 q 574 348 589 404 m 464 657 l 553 848 l 720 848 l 585 657 l 464 657 z "},"b":{"ha":719,"x_min":71,"x_max":680,"o":"m 390 -14 q 286 7 334 -14 q 204 62 239 27 l 204 0 l 71 0 l 71 926 l 223 926 l 223 534 q 299 577 257 562 q 390 592 340 592 q 536 552 471 592 q 641 442 602 511 q 680 289 680 373 q 641 137 680 206 q 536 27 602 68 q 390 -14 471 -14 m 371 121 q 455 144 418 121 q 514 205 492 167 q 536 289 536 243 q 514 374 536 336 q 455 435 492 412 q 372 458 418 458 q 289 435 326 458 q 230 374 252 412 q 207 289 207 336 q 230 205 207 243 q 289 144 252 167 q 371 121 326 121 z "},"c":{"ha":586,"x_min":40,"x_max":560,"o":"m 350 -17 q 193 24 264 -17 q 81 136 122 66 q 40 289 40 205 q 81 444 40 374 q 193 555 122 514 q 350 596 264 596 q 465 576 411 596 q 560 517 519 556 l 520 357 q 453 429 496 398 q 355 459 411 459 q 269 436 307 459 q 209 375 231 413 q 187 289 187 337 q 209 204 187 243 q 269 143 231 166 q 355 121 307 121 q 453 150 411 121 q 520 223 496 180 l 560 62 q 465 3 519 23 q 350 -17 411 -17 z "},"ć":{"ha":586,"x_min":40,"x_max":560,"o":"m 350 -17 q 193 24 264 -17 q 81 136 122 66 q 40 289 40 205 q 81 444 40 374 q 193 555 122 514 q 350 596 264 596 q 465 576 411 596 q 560 517 519 556 l 520 357 q 453 429 496 398 q 355 459 411 459 q 269 436 307 459 q 209 375 231 413 q 187 289 187 337 q 209 204 187 243 q 269 143 231 166 q 355 121 307 121 q 453 150 411 121 q 520 223 496 180 l 560 62 q 465 3 519 23 q 350 -17 411 -17 m 293 657 l 382 848 l 549 848 l 415 657 l 293 657 z "},"č":{"ha":586,"x_min":40,"x_max":562,"o":"m 350 -17 q 193 24 264 -17 q 81 136 122 66 q 40 289 40 205 q 81 444 40 374 q 193 555 122 514 q 350 596 264 596 q 465 576 411 596 q 560 517 519 556 l 520 357 q 453 429 496 398 q 355 459 411 459 q 269 436 307 459 q 209 375 231 413 q 187 289 187 337 q 209 204 187 243 q 269 143 231 166 q 355 121 307 121 q 453 150 411 121 q 520 223 496 180 l 560 62 q 465 3 519 23 q 350 -17 411 -17 m 358 648 l 154 877 l 299 877 q 330 840 316 858 q 360 799 343 822 q 390 840 376 822 q 421 877 404 858 l 562 877 l 358 648 z "},"ç":{"ha":586,"x_min":40,"x_max":560,"o":"m 104 -182 l 281 -10 q 157 49 211 7 q 71 154 102 92 q 40 289 40 217 q 81 444 40 374 q 193 555 122 514 q 350 596 264 596 q 465 576 411 596 q 560 517 519 556 l 520 357 q 453 429 496 398 q 355 459 411 459 q 269 436 307 459 q 209 375 231 413 q 187 289 187 337 q 209 204 187 243 q 269 143 231 166 q 355 121 307 121 q 453 150 411 121 q 520 223 496 180 l 560 62 q 494 16 530 35 q 418 -10 458 -2 l 294 -182 l 104 -182 z "},"ĉ":{"ha":586,"x_min":40,"x_max":562,"o":"m 350 -17 q 193 24 264 -17 q 81 136 122 66 q 40 289 40 205 q 81 444 40 374 q 193 555 122 514 q 350 596 264 596 q 465 576 411 596 q 560 517 519 556 l 520 357 q 453 429 496 398 q 355 459 411 459 q 269 436 307 459 q 209 375 231 413 q 187 289 187 337 q 209 204 187 243 q 269 143 231 166 q 355 121 307 121 q 453 150 411 121 q 520 223 496 180 l 560 62 q 465 3 519 23 q 350 -17 411 -17 m 154 657 l 358 885 l 562 657 l 418 657 q 386 693 400 675 q 356 735 372 712 q 326 693 340 712 q 295 657 313 675 l 154 657 z "},"ċ":{"ha":586,"x_min":40,"x_max":560,"o":"m 350 -17 q 193 24 264 -17 q 81 136 122 66 q 40 289 40 205 q 81 444 40 374 q 193 555 122 514 q 350 596 264 596 q 465 576 411 596 q 560 517 519 556 l 520 357 q 453 429 496 398 q 355 459 411 459 q 269 436 307 459 q 209 375 231 413 q 187 289 187 337 q 209 204 187 243 q 269 143 231 166 q 355 121 307 121 q 453 150 411 121 q 520 223 496 180 l 560 62 q 465 3 519 23 q 350 -17 411 -17 m 358 667 q 298 692 322 667 q 273 752 273 717 q 298 813 273 789 q 358 837 322 837 q 419 813 394 837 q 443 752 443 789 q 419 692 443 717 q 358 667 394 667 z "},"d":{"ha":719,"x_min":40,"x_max":648,"o":"m 329 -14 q 183 27 249 -14 q 79 137 118 68 q 40 289 40 206 q 79 442 40 373 q 183 551 118 510 q 329 592 249 592 q 420 577 378 592 q 496 534 462 562 l 496 926 l 648 926 l 648 0 l 515 0 l 515 62 q 433 7 481 27 q 329 -14 385 -14 m 346 121 q 430 144 393 121 q 489 205 467 167 q 511 289 511 243 q 489 374 511 336 q 430 435 467 412 q 347 458 393 458 q 264 435 301 458 q 204 374 227 412 q 182 289 182 336 q 204 205 182 243 q 264 144 227 167 q 346 121 301 121 z "},"ð":{"ha":699,"x_min":40,"x_max":661,"o":"m 351 -17 q 193 24 264 -17 q 81 135 122 66 q 40 290 40 204 q 79 442 40 374 q 184 550 118 510 q 330 590 250 590 q 375 586 353 590 q 416 572 396 583 q 363 644 391 608 q 306 716 335 680 l 172 629 l 129 695 l 256 777 q 193 852 225 815 q 128 926 161 888 l 292 926 q 326 886 309 907 q 361 845 343 865 l 481 924 l 524 858 l 410 783 q 501 666 460 721 q 565 575 541 611 q 637 433 613 502 q 661 299 661 365 q 619 136 661 207 q 507 24 578 66 q 351 -17 437 -17 m 349 121 q 434 143 396 121 q 494 204 472 166 q 516 289 516 243 q 494 375 516 337 q 434 436 472 413 q 349 459 395 459 q 266 436 304 459 q 205 375 228 413 q 183 289 183 337 q 205 204 183 243 q 265 143 228 166 q 349 121 303 121 z "},"ď":{"ha":892,"x_min":40,"x_max":897,"o":"m 329 -14 q 183 27 249 -14 q 79 137 118 68 q 40 289 40 206 q 79 442 40 373 q 183 551 118 510 q 329 592 249 592 q 420 577 378 592 q 496 534 462 562 l 496 926 l 648 926 l 648 0 l 515 0 l 515 62 q 433 7 481 27 q 329 -14 385 -14 m 346 121 q 430 144 393 121 q 489 205 467 167 q 511 289 511 243 q 489 374 511 336 q 430 435 467 412 q 347 458 393 458 q 264 435 301 458 q 204 374 227 412 q 182 289 182 336 q 204 205 182 243 q 264 144 227 167 q 346 121 301 121 m 665 615 q 734 750 707 673 q 761 926 761 827 l 897 926 q 875 759 897 837 q 809 615 853 681 l 665 615 z "},"đ":{"ha":719,"x_min":40,"x_max":705,"o":"m 329 -14 q 183 27 249 -14 q 79 137 118 68 q 40 289 40 206 q 79 442 40 373 q 183 551 118 510 q 329 592 249 592 q 427 574 382 592 q 506 526 472 557 l 506 705 l 313 705 l 313 800 l 506 800 l 506 926 l 648 926 l 648 800 l 705 800 l 705 705 l 648 705 l 648 0 l 515 0 l 515 62 q 433 7 481 27 q 329 -14 385 -14 m 346 121 q 430 144 393 121 q 489 205 467 167 q 511 289 511 243 q 489 374 511 336 q 430 435 467 412 q 347 458 393 458 q 264 435 301 458 q 204 374 227 412 q 182 289 182 336 q 204 205 182 243 q 264 144 227 167 q 346 121 301 121 z "},"ǆ":{"ha":1230,"x_min":40,"x_max":1205,"o":"m 329 -14 q 183 27 249 -14 q 79 137 118 68 q 40 289 40 206 q 79 442 40 373 q 183 551 118 510 q 329 592 249 592 q 420 577 378 592 q 496 534 462 562 l 496 926 l 648 926 l 648 0 l 515 0 l 515 62 q 433 7 481 27 q 329 -14 385 -14 m 346 121 q 430 144 393 121 q 489 205 467 167 q 511 289 511 243 q 489 374 511 336 q 430 435 467 412 q 347 458 393 458 q 264 435 301 458 q 204 374 227 412 q 182 289 182 336 q 204 205 182 243 q 264 144 227 167 q 346 121 301 121 m 745 0 l 989 451 l 763 451 l 763 579 l 1205 579 l 960 127 l 1187 127 l 1187 0 l 745 0 m 983 648 l 779 877 l 924 877 q 955 840 941 858 q 985 799 968 822 q 1015 840 1001 822 q 1046 877 1029 858 l 1187 877 l 983 648 z "},"e":{"ha":670,"x_min":40,"x_max":638,"o":"m 365 -17 q 195 23 269 -17 q 81 135 122 64 q 40 295 40 205 q 80 449 40 382 q 188 557 120 517 q 340 596 257 596 q 491 557 424 596 q 598 452 558 519 q 638 300 638 385 l 638 245 l 278 245 q 231 248 254 245 q 184 255 207 251 q 245 152 196 192 q 368 112 294 112 q 468 135 423 112 q 541 192 512 157 l 576 50 q 478 0 532 16 q 365 -17 424 -17 m 180 348 q 278 358 230 358 l 402 358 q 451 356 428 358 q 496 350 475 355 q 439 440 481 406 q 339 474 397 474 q 238 439 281 474 q 180 348 196 404 z "},"é":{"ha":670,"x_min":40,"x_max":638,"o":"m 365 -17 q 195 23 269 -17 q 81 135 122 64 q 40 295 40 205 q 80 449 40 382 q 188 557 120 517 q 340 596 257 596 q 491 557 424 596 q 598 452 558 519 q 638 300 638 385 l 638 245 l 278 245 q 231 248 254 245 q 184 255 207 251 q 245 152 196 192 q 368 112 294 112 q 468 135 423 112 q 541 192 512 157 l 576 50 q 478 0 532 16 q 365 -17 424 -17 m 180 348 q 278 358 230 358 l 402 358 q 451 356 428 358 q 496 350 475 355 q 439 440 481 406 q 339 474 397 474 q 238 439 281 474 q 180 348 196 404 m 277 657 l 366 848 l 532 848 l 398 657 l 277 657 z "},"ĕ":{"ha":670,"x_min":40,"x_max":638,"o":"m 365 -17 q 195 23 269 -17 q 81 135 122 64 q 40 295 40 205 q 80 449 40 382 q 188 557 120 517 q 340 596 257 596 q 491 557 424 596 q 598 452 558 519 q 638 300 638 385 l 638 245 l 278 245 q 231 248 254 245 q 184 255 207 251 q 245 152 196 192 q 368 112 294 112 q 468 135 423 112 q 541 192 512 157 l 576 50 q 478 0 532 16 q 365 -17 424 -17 m 180 348 q 278 358 230 358 l 402 358 q 451 356 428 358 q 496 350 475 355 q 439 440 481 406 q 339 474 397 474 q 238 439 281 474 q 180 348 196 404 m 341 642 q 245 667 288 642 q 176 734 202 692 q 150 828 150 775 l 263 828 q 286 773 263 796 q 341 749 310 749 q 397 772 373 749 q 421 828 421 795 l 532 828 q 507 733 532 774 q 439 666 482 691 q 341 642 395 642 z "},"ě":{"ha":670,"x_min":40,"x_max":638,"o":"m 365 -17 q 195 23 269 -17 q 81 135 122 64 q 40 295 40 205 q 80 449 40 382 q 188 557 120 517 q 340 596 257 596 q 491 557 424 596 q 598 452 558 519 q 638 300 638 385 l 638 245 l 278 245 q 231 248 254 245 q 184 255 207 251 q 245 152 196 192 q 368 112 294 112 q 468 135 423 112 q 541 192 512 157 l 576 50 q 478 0 532 16 q 365 -17 424 -17 m 180 348 q 278 358 230 358 l 402 358 q 451 356 428 358 q 496 350 475 355 q 439 440 481 406 q 339 474 397 474 q 238 439 281 474 q 180 348 196 404 m 341 648 l 138 877 l 283 877 q 313 840 300 858 q 343 799 327 822 q 374 840 360 822 q 405 877 388 858 l 546 877 l 341 648 z "},"ê":{"ha":670,"x_min":40,"x_max":638,"o":"m 365 -17 q 195 23 269 -17 q 81 135 122 64 q 40 295 40 205 q 80 449 40 382 q 188 557 120 517 q 340 596 257 596 q 491 557 424 596 q 598 452 558 519 q 638 300 638 385 l 638 245 l 278 245 q 231 248 254 245 q 184 255 207 251 q 245 152 196 192 q 368 112 294 112 q 468 135 423 112 q 541 192 512 157 l 576 50 q 478 0 532 16 q 365 -17 424 -17 m 180 348 q 278 358 230 358 l 402 358 q 451 356 428 358 q 496 350 475 355 q 439 440 481 406 q 339 474 397 474 q 238 439 281 474 q 180 348 196 404 m 138 657 l 341 885 l 546 657 l 401 657 q 370 693 384 675 q 340 735 356 712 q 310 693 323 712 q 279 657 296 675 l 138 657 z "},"ế":{"ha":670,"x_min":40,"x_max":685,"o":"m 365 -17 q 195 23 269 -17 q 81 135 122 64 q 40 295 40 205 q 80 449 40 382 q 188 557 120 517 q 340 596 257 596 q 491 557 424 596 q 598 452 558 519 q 638 300 638 385 l 638 245 l 278 245 q 231 248 254 245 q 184 255 207 251 q 245 152 196 192 q 368 112 294 112 q 468 135 423 112 q 541 192 512 157 l 576 50 q 478 0 532 16 q 365 -17 424 -17 m 180 348 q 278 358 230 358 l 402 358 q 451 356 428 358 q 496 350 475 355 q 439 440 481 406 q 339 474 397 474 q 238 439 281 474 q 180 348 196 404 m 138 657 l 341 885 l 546 657 l 401 657 q 370 693 384 675 q 340 735 356 712 q 310 693 323 712 q 279 657 296 675 l 138 657 m 468 790 l 536 935 l 685 935 l 580 790 l 468 790 z "},"ệ":{"ha":670,"x_min":40,"x_max":638,"o":"m 365 -17 q 195 23 269 -17 q 81 135 122 64 q 40 295 40 205 q 80 449 40 382 q 188 557 120 517 q 340 596 257 596 q 491 557 424 596 q 598 452 558 519 q 638 300 638 385 l 638 245 l 278 245 q 231 248 254 245 q 184 255 207 251 q 245 152 196 192 q 368 112 294 112 q 468 135 423 112 q 541 192 512 157 l 576 50 q 478 0 532 16 q 365 -17 424 -17 m 180 348 q 278 358 230 358 l 402 358 q 451 356 428 358 q 496 350 475 355 q 439 440 481 406 q 339 474 397 474 q 238 439 281 474 q 180 348 196 404 m 341 -258 q 281 -234 306 -258 q 257 -174 257 -209 q 281 -113 257 -137 q 341 -89 306 -89 q 402 -113 378 -89 q 426 -174 426 -137 q 402 -234 426 -209 q 341 -258 378 -258 m 138 657 l 341 885 l 546 657 l 401 657 q 370 693 384 675 q 340 735 356 712 q 310 693 323 712 q 279 657 296 675 l 138 657 z "},"ề":{"ha":670,"x_min":40,"x_max":650,"o":"m 365 -17 q 195 23 269 -17 q 81 135 122 64 q 40 295 40 205 q 80 449 40 382 q 188 557 120 517 q 340 596 257 596 q 491 557 424 596 q 598 452 558 519 q 638 300 638 385 l 638 245 l 278 245 q 231 248 254 245 q 184 255 207 251 q 245 152 196 192 q 368 112 294 112 q 468 135 423 112 q 541 192 512 157 l 576 50 q 478 0 532 16 q 365 -17 424 -17 m 180 348 q 278 358 230 358 l 402 358 q 451 356 428 358 q 496 350 475 355 q 439 440 481 406 q 339 474 397 474 q 238 439 281 474 q 180 348 196 404 m 138 657 l 341 885 l 546 657 l 401 657 q 370 693 384 675 q 340 735 356 712 q 310 693 323 712 q 279 657 296 675 l 138 657 m 539 790 l 434 935 l 583 935 l 651 790 l 539 790 z "},"ể":{"ha":670,"x_min":40,"x_max":661,"o":"m 365 -17 q 195 23 269 -17 q 81 135 122 64 q 40 295 40 205 q 80 449 40 382 q 188 557 120 517 q 340 596 257 596 q 491 557 424 596 q 598 452 558 519 q 638 300 638 385 l 638 245 l 278 245 q 231 248 254 245 q 184 255 207 251 q 245 152 196 192 q 368 112 294 112 q 468 135 423 112 q 541 192 512 157 l 576 50 q 478 0 532 16 q 365 -17 424 -17 m 180 348 q 278 358 230 358 l 402 358 q 451 356 428 358 q 496 350 475 355 q 439 440 481 406 q 339 474 397 474 q 238 439 281 474 q 180 348 196 404 m 138 657 l 341 885 l 546 657 l 401 657 q 370 693 384 675 q 340 735 356 712 q 310 693 323 712 q 279 657 296 675 l 138 657 m 501 781 q 532 823 521 804 q 543 856 543 842 q 531 886 543 875 q 497 897 519 897 q 465 888 481 897 q 439 867 449 879 l 414 956 q 461 979 431 969 q 523 989 491 989 q 621 960 581 989 q 662 880 662 932 q 649 825 662 849 q 618 781 636 801 l 501 781 z "},"ễ":{"ha":670,"x_min":40,"x_max":638,"o":"m 365 -17 q 195 23 269 -17 q 81 135 122 64 q 40 295 40 205 q 80 449 40 382 q 188 557 120 517 q 340 596 257 596 q 491 557 424 596 q 598 452 558 519 q 638 300 638 385 l 638 245 l 278 245 q 231 248 254 245 q 184 255 207 251 q 245 152 196 192 q 368 112 294 112 q 468 135 423 112 q 541 192 512 157 l 576 50 q 478 0 532 16 q 365 -17 424 -17 m 180 348 q 278 358 230 358 l 402 358 q 451 356 428 358 q 496 350 475 355 q 439 440 481 406 q 339 474 397 474 q 238 439 281 474 q 180 348 196 404 m 138 657 l 341 870 l 546 657 l 401 657 q 370 689 384 672 q 340 724 356 705 q 310 689 323 705 q 279 657 296 672 l 138 657 m 189 864 l 155 962 q 201 1013 172 995 q 264 1031 231 1031 q 320 1020 294 1031 q 369 998 345 1010 q 418 987 393 987 q 464 1003 445 987 q 495 1047 483 1019 l 529 951 q 482 900 511 918 q 419 882 453 882 q 363 893 389 882 q 314 915 338 904 q 266 926 290 926 q 189 864 213 926 z "},"ȅ":{"ha":670,"x_min":40,"x_max":638,"o":"m 365 -17 q 195 23 269 -17 q 81 135 122 64 q 40 295 40 205 q 80 449 40 382 q 188 557 120 517 q 340 596 257 596 q 491 557 424 596 q 598 452 558 519 q 638 300 638 385 l 638 245 l 278 245 q 231 248 254 245 q 184 255 207 251 q 245 152 196 192 q 368 112 294 112 q 468 135 423 112 q 541 192 512 157 l 576 50 q 478 0 532 16 q 365 -17 424 -17 m 180 348 q 278 358 230 358 l 402 358 q 451 356 428 358 q 496 350 475 355 q 439 440 481 406 q 339 474 397 474 q 238 439 281 474 q 180 348 196 404 m 404 657 l 298 839 l 457 839 l 517 657 l 404 657 m 173 657 l 67 839 l 226 839 l 285 657 l 173 657 z "},"ë":{"ha":670,"x_min":40,"x_max":638,"o":"m 365 -17 q 195 23 269 -17 q 81 135 122 64 q 40 295 40 205 q 80 449 40 382 q 188 557 120 517 q 340 596 257 596 q 491 557 424 596 q 598 452 558 519 q 638 300 638 385 l 638 245 l 278 245 q 231 248 254 245 q 184 255 207 251 q 245 152 196 192 q 368 112 294 112 q 468 135 423 112 q 541 192 512 157 l 576 50 q 478 0 532 16 q 365 -17 424 -17 m 180 348 q 278 358 230 358 l 402 358 q 451 356 428 358 q 496 350 475 355 q 439 440 481 406 q 339 474 397 474 q 238 439 281 474 q 180 348 196 404 m 217 670 q 159 695 183 670 q 135 752 135 720 q 160 811 135 787 q 217 834 184 834 q 275 810 252 834 q 299 752 299 786 q 275 694 299 719 q 217 670 251 670 m 466 670 q 408 695 432 670 q 384 752 384 720 q 408 811 384 787 q 466 834 433 834 q 524 810 501 834 q 548 752 548 786 q 524 694 548 719 q 466 670 500 670 z "},"ė":{"ha":670,"x_min":40,"x_max":638,"o":"m 365 -17 q 195 23 269 -17 q 81 135 122 64 q 40 295 40 205 q 80 449 40 382 q 188 557 120 517 q 340 596 257 596 q 491 557 424 596 q 598 452 558 519 q 638 300 638 385 l 638 245 l 278 245 q 231 248 254 245 q 184 255 207 251 q 245 152 196 192 q 368 112 294 112 q 468 135 423 112 q 541 192 512 157 l 576 50 q 478 0 532 16 q 365 -17 424 -17 m 180 348 q 278 358 230 358 l 402 358 q 451 356 428 358 q 496 350 475 355 q 439 440 481 406 q 339 474 397 474 q 238 439 281 474 q 180 348 196 404 m 341 667 q 281 692 306 667 q 257 752 257 717 q 281 813 257 789 q 341 837 306 837 q 402 813 378 837 q 426 752 426 789 q 402 692 426 717 q 341 667 378 667 z "},"ẹ":{"ha":670,"x_min":40,"x_max":638,"o":"m 365 -17 q 195 23 269 -17 q 81 135 122 64 q 40 295 40 205 q 80 449 40 382 q 188 557 120 517 q 340 596 257 596 q 491 557 424 596 q 598 452 558 519 q 638 300 638 385 l 638 245 l 278 245 q 231 248 254 245 q 184 255 207 251 q 245 152 196 192 q 368 112 294 112 q 468 135 423 112 q 541 192 512 157 l 576 50 q 478 0 532 16 q 365 -17 424 -17 m 180 348 q 278 358 230 358 l 402 358 q 451 356 428 358 q 496 350 475 355 q 439 440 481 406 q 339 474 397 474 q 238 439 281 474 q 180 348 196 404 m 341 -258 q 281 -234 306 -258 q 257 -174 257 -209 q 281 -113 257 -137 q 341 -89 306 -89 q 402 -113 378 -89 q 426 -174 426 -137 q 402 -234 426 -209 q 341 -258 378 -258 z "},"è":{"ha":670,"x_min":40,"x_max":638,"o":"m 365 -17 q 195 23 269 -17 q 81 135 122 64 q 40 295 40 205 q 80 449 40 382 q 188 557 120 517 q 340 596 257 596 q 491 557 424 596 q 598 452 558 519 q 638 300 638 385 l 638 245 l 278 245 q 231 248 254 245 q 184 255 207 251 q 245 152 196 192 q 368 112 294 112 q 468 135 423 112 q 541 192 512 157 l 576 50 q 478 0 532 16 q 365 -17 424 -17 m 180 348 q 278 358 230 358 l 402 358 q 451 356 428 358 q 496 350 475 355 q 439 440 481 406 q 339 474 397 474 q 238 439 281 474 q 180 348 196 404 m 285 657 l 150 848 l 318 848 l 406 657 l 285 657 z "},"ẻ":{"ha":670,"x_min":40,"x_max":638,"o":"m 365 -17 q 195 23 269 -17 q 81 135 122 64 q 40 295 40 205 q 80 449 40 382 q 188 557 120 517 q 340 596 257 596 q 491 557 424 596 q 598 452 558 519 q 638 300 638 385 l 638 245 l 278 245 q 231 248 254 245 q 184 255 207 251 q 245 152 196 192 q 368 112 294 112 q 468 135 423 112 q 541 192 512 157 l 576 50 q 478 0 532 16 q 365 -17 424 -17 m 180 348 q 278 358 230 358 l 402 358 q 451 356 428 358 q 496 350 475 355 q 439 440 481 406 q 339 474 397 474 q 238 439 281 474 q 180 348 196 404 m 295 657 q 329 705 317 684 q 341 743 341 725 q 328 774 341 762 q 291 786 314 786 q 256 776 273 786 q 227 753 238 766 l 201 851 q 251 876 219 865 q 319 886 284 886 q 426 855 382 886 q 470 768 470 823 q 455 706 470 733 q 422 657 441 678 l 295 657 z "},"ȇ":{"ha":670,"x_min":40,"x_max":638,"o":"m 365 -17 q 195 23 269 -17 q 81 135 122 64 q 40 295 40 205 q 80 449 40 382 q 188 557 120 517 q 340 596 257 596 q 491 557 424 596 q 598 452 558 519 q 638 300 638 385 l 638 245 l 278 245 q 231 248 254 245 q 184 255 207 251 q 245 152 196 192 q 368 112 294 112 q 468 135 423 112 q 541 192 512 157 l 576 50 q 478 0 532 16 q 365 -17 424 -17 m 180 348 q 278 358 230 358 l 402 358 q 451 356 428 358 q 496 350 475 355 q 439 440 481 406 q 339 474 397 474 q 238 439 281 474 q 180 348 196 404 m 150 642 q 176 737 150 695 q 245 803 202 779 q 341 828 288 828 q 438 803 394 828 q 507 737 482 779 q 532 642 532 695 l 421 642 q 397 698 421 675 q 341 721 373 721 q 287 698 311 721 q 263 642 263 675 l 150 642 z "},"ē":{"ha":670,"x_min":40,"x_max":638,"o":"m 365 -17 q 195 23 269 -17 q 81 135 122 64 q 40 295 40 205 q 80 449 40 382 q 188 557 120 517 q 340 596 257 596 q 491 557 424 596 q 598 452 558 519 q 638 300 638 385 l 638 245 l 278 245 q 231 248 254 245 q 184 255 207 251 q 245 152 196 192 q 368 112 294 112 q 468 135 423 112 q 541 192 512 157 l 576 50 q 478 0 532 16 q 365 -17 424 -17 m 180 348 q 278 358 230 358 l 402 358 q 451 356 428 358 q 496 350 475 355 q 439 440 481 406 q 339 474 397 474 q 238 439 281 474 q 180 348 196 404 m 167 699 l 167 806 l 517 806 l 517 699 l 167 699 z "},"ę":{"ha":670,"x_min":40,"x_max":638,"o":"m 530 -305 q 398 -266 451 -305 q 344 -148 344 -228 q 357 -84 344 -118 q 398 -15 369 -51 q 381 -17 390 -16 q 365 -17 373 -17 q 195 23 269 -17 q 81 135 122 64 q 40 295 40 205 q 80 449 40 382 q 188 557 120 517 q 340 596 257 596 q 491 557 424 596 q 598 452 558 519 q 638 300 638 385 l 638 245 l 278 245 q 231 248 254 245 q 184 255 207 251 q 245 152 196 192 q 368 112 294 112 q 468 133 423 112 q 542 186 513 154 l 576 50 q 499 -48 520 -13 q 477 -116 477 -84 q 500 -172 477 -154 q 557 -190 523 -189 l 530 -305 m 180 348 q 278 358 230 358 l 402 358 q 451 356 428 358 q 496 350 475 355 q 439 440 481 406 q 339 474 397 474 q 238 439 281 474 q 180 348 196 404 z "},"ẽ":{"ha":670,"x_min":40,"x_max":638,"o":"m 365 -17 q 195 23 269 -17 q 81 135 122 64 q 40 295 40 205 q 80 449 40 382 q 188 557 120 517 q 340 596 257 596 q 491 557 424 596 q 598 452 558 519 q 638 300 638 385 l 638 245 l 278 245 q 231 248 254 245 q 184 255 207 251 q 245 152 196 192 q 368 112 294 112 q 468 135 423 112 q 541 192 512 157 l 576 50 q 478 0 532 16 q 365 -17 424 -17 m 180 348 q 278 358 230 358 l 402 358 q 451 356 428 358 q 496 350 475 355 q 439 440 481 406 q 339 474 397 474 q 238 439 281 474 q 180 348 196 404 m 168 659 l 129 769 q 181 828 149 807 q 254 848 214 848 q 317 836 288 848 q 373 811 345 824 q 428 799 400 799 q 481 817 459 799 q 515 868 503 835 l 554 758 q 502 699 534 720 q 429 679 469 679 q 367 691 396 679 q 311 716 338 703 q 256 728 284 728 q 203 710 225 728 q 168 659 181 692 z "},"ə":{"ha":670,"x_min":34,"x_max":632,"o":"m 331 -17 q 179 22 247 -17 q 73 128 112 61 q 34 279 34 195 l 34 334 l 393 334 q 440 331 417 334 q 486 324 463 329 q 426 427 476 387 q 303 468 377 468 q 203 445 248 468 q 130 387 158 421 l 95 530 q 192 579 138 562 q 306 596 247 596 q 476 556 402 596 q 590 445 549 515 q 632 284 632 374 q 591 130 632 198 q 483 22 551 62 q 331 -17 415 -17 m 332 106 q 433 140 391 106 q 490 231 475 175 q 393 221 441 221 l 268 221 q 219 223 242 221 q 175 229 197 225 q 231 139 189 173 q 332 106 273 106 z "},"ʒ":{"ha":637,"x_min":21,"x_max":599,"o":"m 283 -307 q 132 -270 201 -307 q 21 -172 63 -233 l 102 -11 q 166 -120 117 -75 q 285 -165 216 -165 q 368 -143 331 -165 q 428 -84 406 -122 q 450 -1 450 -46 q 429 82 450 44 q 369 140 407 119 q 282 162 331 162 q 227 155 253 162 q 177 134 202 148 l 335 443 l 80 443 l 80 579 l 560 579 l 396 272 q 500 214 454 254 q 572 118 545 174 q 599 -4 599 63 q 556 -158 599 -90 q 440 -267 512 -227 q 283 -307 368 -307 z "},"ǯ":{"ha":637,"x_min":21,"x_max":599,"o":"m 283 -307 q 132 -270 201 -307 q 21 -172 63 -233 l 102 -11 q 166 -120 117 -75 q 285 -165 216 -165 q 368 -143 331 -165 q 428 -84 406 -122 q 450 -1 450 -46 q 429 82 450 44 q 369 140 407 119 q 282 162 331 162 q 227 155 253 162 q 177 134 202 148 l 335 443 l 80 443 l 80 579 l 560 579 l 396 272 q 500 214 454 254 q 572 118 545 174 q 599 -4 599 63 q 556 -158 599 -90 q 440 -267 512 -227 q 283 -307 368 -307 m 311 648 l 107 877 l 252 877 q 283 840 269 858 q 313 799 296 822 q 343 840 329 822 q 374 877 357 858 l 515 877 l 311 648 z "},"f":{"ha":434,"x_min":25,"x_max":462,"o":"m 139 0 l 139 457 l 25 457 l 25 579 l 142 579 l 142 731 q 201 885 142 832 q 345 938 259 938 q 408 930 377 938 q 462 908 438 923 l 431 780 q 357 818 399 818 q 310 800 332 818 q 287 733 287 782 l 287 579 l 410 579 l 410 457 l 290 457 l 290 0 l 139 0 z "},"g":{"ha":719,"x_min":40,"x_max":648,"o":"m 319 -307 q 192 -287 252 -307 q 89 -233 133 -267 l 126 -80 q 207 -148 157 -122 q 319 -174 257 -174 q 462 -122 410 -174 q 514 14 514 -69 l 514 62 q 432 7 479 27 q 328 -14 385 -14 q 183 27 249 -14 q 79 137 118 68 q 40 289 40 206 q 79 442 40 373 q 183 551 118 510 q 328 592 249 592 q 433 572 385 592 q 515 516 481 552 l 515 579 l 648 579 l 648 -6 q 602 -168 648 -100 q 481 -271 557 -235 q 319 -307 406 -307 m 346 121 q 430 144 393 121 q 489 205 467 167 q 511 289 511 243 q 489 374 511 336 q 430 435 467 412 q 347 458 393 458 q 264 435 301 458 q 204 374 227 412 q 182 289 182 336 q 204 205 182 243 q 264 144 227 167 q 346 121 301 121 z "},"ğ":{"ha":719,"x_min":40,"x_max":648,"o":"m 319 -307 q 192 -287 252 -307 q 89 -233 133 -267 l 126 -80 q 207 -148 157 -122 q 319 -174 257 -174 q 462 -122 410 -174 q 514 14 514 -69 l 514 62 q 432 7 479 27 q 328 -14 385 -14 q 183 27 249 -14 q 79 137 118 68 q 40 289 40 206 q 79 442 40 373 q 183 551 118 510 q 328 592 249 592 q 433 572 385 592 q 515 516 481 552 l 515 579 l 648 579 l 648 -6 q 602 -168 648 -100 q 481 -271 557 -235 q 319 -307 406 -307 m 346 121 q 430 144 393 121 q 489 205 467 167 q 511 289 511 243 q 489 374 511 336 q 430 435 467 412 q 347 458 393 458 q 264 435 301 458 q 204 374 227 412 q 182 289 182 336 q 204 205 182 243 q 264 144 227 167 q 346 121 301 121 m 367 642 q 271 667 314 642 q 202 734 228 692 q 177 828 177 775 l 289 828 q 313 773 289 796 q 367 749 336 749 q 423 772 399 749 q 447 828 447 795 l 558 828 q 533 733 558 774 q 465 666 508 691 q 367 642 421 642 z "},"ǧ":{"ha":719,"x_min":40,"x_max":648,"o":"m 319 -307 q 192 -287 252 -307 q 89 -233 133 -267 l 126 -80 q 207 -148 157 -122 q 319 -174 257 -174 q 462 -122 410 -174 q 514 14 514 -69 l 514 62 q 432 7 479 27 q 328 -14 385 -14 q 183 27 249 -14 q 79 137 118 68 q 40 289 40 206 q 79 442 40 373 q 183 551 118 510 q 328 592 249 592 q 433 572 385 592 q 515 516 481 552 l 515 579 l 648 579 l 648 -6 q 602 -168 648 -100 q 481 -271 557 -235 q 319 -307 406 -307 m 346 121 q 430 144 393 121 q 489 205 467 167 q 511 289 511 243 q 489 374 511 336 q 430 435 467 412 q 347 458 393 458 q 264 435 301 458 q 204 374 227 412 q 182 289 182 336 q 204 205 182 243 q 264 144 227 167 q 346 121 301 121 m 367 648 l 164 877 l 309 877 q 340 840 326 858 q 369 799 353 822 q 400 840 386 822 q 431 877 414 858 l 572 877 l 367 648 z "},"ĝ":{"ha":719,"x_min":40,"x_max":648,"o":"m 319 -307 q 192 -287 252 -307 q 89 -233 133 -267 l 126 -80 q 207 -148 157 -122 q 319 -174 257 -174 q 462 -122 410 -174 q 514 14 514 -69 l 514 62 q 432 7 479 27 q 328 -14 385 -14 q 183 27 249 -14 q 79 137 118 68 q 40 289 40 206 q 79 442 40 373 q 183 551 118 510 q 328 592 249 592 q 433 572 385 592 q 515 516 481 552 l 515 579 l 648 579 l 648 -6 q 602 -168 648 -100 q 481 -271 557 -235 q 319 -307 406 -307 m 346 121 q 430 144 393 121 q 489 205 467 167 q 511 289 511 243 q 489 374 511 336 q 430 435 467 412 q 347 458 393 458 q 264 435 301 458 q 204 374 227 412 q 182 289 182 336 q 204 205 182 243 q 264 144 227 167 q 346 121 301 121 m 164 657 l 367 885 l 572 657 l 427 657 q 396 693 410 675 q 366 735 382 712 q 336 693 349 712 q 305 657 322 675 l 164 657 z "},"ģ":{"ha":719,"x_min":40,"x_max":648,"o":"m 319 -307 q 192 -287 252 -307 q 89 -233 133 -267 l 126 -80 q 207 -148 157 -122 q 319 -174 257 -174 q 462 -122 410 -174 q 514 14 514 -69 l 514 62 q 432 7 479 27 q 328 -14 385 -14 q 183 27 249 -14 q 79 137 118 68 q 40 289 40 206 q 79 442 40 373 q 183 551 118 510 q 328 592 249 592 q 433 572 385 592 q 515 516 481 552 l 515 579 l 648 579 l 648 -6 q 602 -168 648 -100 q 481 -271 557 -235 q 319 -307 406 -307 m 346 121 q 430 144 393 121 q 489 205 467 167 q 511 289 511 243 q 489 374 511 336 q 430 435 467 412 q 347 458 393 458 q 264 435 301 458 q 204 374 227 412 q 182 289 182 336 q 204 205 182 243 q 264 144 227 167 q 346 121 301 121 m 296 686 q 319 798 301 745 q 367 897 338 851 l 523 897 q 466 803 488 856 q 439 686 444 750 l 296 686 z "},"ġ":{"ha":719,"x_min":40,"x_max":648,"o":"m 319 -307 q 192 -287 252 -307 q 89 -233 133 -267 l 126 -80 q 207 -148 157 -122 q 319 -174 257 -174 q 462 -122 410 -174 q 514 14 514 -69 l 514 62 q 432 7 479 27 q 328 -14 385 -14 q 183 27 249 -14 q 79 137 118 68 q 40 289 40 206 q 79 442 40 373 q 183 551 118 510 q 328 592 249 592 q 433 572 385 592 q 515 516 481 552 l 515 579 l 648 579 l 648 -6 q 602 -168 648 -100 q 481 -271 557 -235 q 319 -307 406 -307 m 346 121 q 430 144 393 121 q 489 205 467 167 q 511 289 511 243 q 489 374 511 336 q 430 435 467 412 q 347 458 393 458 q 264 435 301 458 q 204 374 227 412 q 182 289 182 336 q 204 205 182 243 q 264 144 227 167 q 346 121 301 121 m 367 667 q 307 692 332 667 q 283 752 283 717 q 307 813 283 789 q 367 837 332 837 q 428 813 404 837 q 452 752 452 789 q 428 692 452 717 q 367 667 404 667 z "},"ǥ":{"ha":719,"x_min":40,"x_max":710,"o":"m 319 -307 q 192 -287 252 -307 q 89 -233 133 -267 l 126 -80 q 207 -148 157 -122 q 319 -174 257 -174 q 462 -121 410 -174 q 514 14 514 -68 l 514 62 q 432 7 479 27 q 328 -14 385 -14 q 183 27 249 -14 q 79 137 118 68 q 40 289 40 206 q 79 442 40 373 q 183 552 118 511 q 328 592 249 592 q 433 572 385 592 q 515 516 481 552 l 515 579 l 648 579 l 648 337 l 710 337 l 710 242 l 648 242 l 648 -6 q 602 -168 648 -100 q 481 -271 557 -235 q 319 -307 406 -307 m 347 121 q 447 155 403 121 q 504 242 490 190 l 317 242 l 317 337 l 504 337 q 447 423 490 389 q 347 458 403 458 q 264 435 301 458 q 204 374 227 413 q 182 289 182 336 q 204 205 182 243 q 264 144 227 167 q 347 121 301 121 z "},"h":{"ha":680,"x_min":71,"x_max":621,"o":"m 71 0 l 71 926 l 223 926 l 223 526 q 297 578 255 560 q 386 596 339 596 q 501 567 448 596 q 588 480 555 537 q 621 343 621 423 l 621 0 l 469 0 l 469 323 q 437 418 469 376 q 346 459 405 459 q 260 426 298 459 q 223 325 223 393 l 223 0 l 71 0 z "},"ħ":{"ha":680,"x_min":14,"x_max":621,"o":"m 71 0 l 71 705 l 14 705 l 14 800 l 71 800 l 71 926 l 213 926 l 213 800 l 406 800 l 406 705 l 213 705 l 213 514 q 289 575 244 555 q 386 596 334 596 q 501 567 448 596 q 588 480 555 537 q 621 343 621 423 l 621 0 l 474 0 l 474 317 q 440 416 474 373 q 346 459 407 459 q 258 423 296 459 q 219 320 219 387 l 219 0 l 71 0 z "},"ĥ":{"ha":680,"x_min":-59,"x_max":621,"o":"m 71 0 l 71 926 l 223 926 l 223 526 q 297 578 255 560 q 386 596 339 596 q 501 567 448 596 q 588 480 555 537 q 621 343 621 423 l 621 0 l 469 0 l 469 323 q 437 418 469 376 q 346 459 405 459 q 260 426 298 459 q 223 325 223 393 l 223 0 l 71 0 m -59 1004 l 145 1233 l 349 1004 l 204 1004 q 173 1041 187 1022 q 143 1082 159 1059 q 113 1041 126 1059 q 82 1004 99 1022 l -59 1004 z "},"i":{"ha":297,"x_min":64,"x_max":233,"o":"m 72 0 l 72 579 l 225 579 l 225 0 l 72 0 m 149 667 q 88 692 113 667 q 64 752 64 717 q 88 813 64 789 q 149 837 113 837 q 209 813 185 837 q 233 752 233 789 q 209 692 233 717 q 149 667 185 667 z "},"ı":{"ha":297,"x_min":72,"x_max":225,"o":"m 72 0 l 72 579 l 225 579 l 225 0 l 72 0 z "},"í":{"ha":297,"x_min":72,"x_max":340,"o":"m 72 0 l 72 579 l 225 579 l 225 0 l 72 0 m 84 657 l 173 848 l 340 848 l 205 657 l 84 657 z "},"ĭ":{"ha":297,"x_min":-42,"x_max":340,"o":"m 72 0 l 72 579 l 225 579 l 225 0 l 72 0 m 149 642 q 52 667 95 642 q -17 734 9 692 q -42 828 -42 775 l 70 828 q 94 773 70 796 q 149 749 117 749 q 204 772 180 749 q 228 828 228 795 l 340 828 q 314 733 340 774 q 246 666 289 691 q 149 642 203 642 z "},"î":{"ha":297,"x_min":-56,"x_max":352,"o":"m 72 0 l 72 579 l 225 579 l 225 0 l 72 0 m -55 657 l 149 885 l 353 657 l 208 657 q 177 693 191 675 q 147 735 163 712 q 117 693 130 712 q 86 657 103 675 l -55 657 z "},"ȉ":{"ha":297,"x_min":-127,"x_max":324,"o":"m 72 0 l 72 579 l 225 579 l 225 0 l 72 0 m 211 657 l 105 839 l 264 839 l 324 657 l 211 657 m -20 657 l -126 839 l 33 839 l 93 657 l -20 657 z "},"ï":{"ha":297,"x_min":-58,"x_max":355,"o":"m 72 0 l 72 579 l 225 579 l 225 0 l 72 0 m 24 670 q -34 695 -10 670 q -58 752 -58 720 q -33 811 -58 787 q 24 834 -9 834 q 82 810 59 834 q 106 752 106 786 q 82 694 106 719 q 24 670 58 670 m 273 670 q 215 695 239 670 q 191 752 191 720 q 216 811 191 787 q 273 834 240 834 q 331 810 308 834 q 355 752 355 786 q 331 694 355 719 q 273 670 307 670 z "},"ị":{"ha":297,"x_min":64,"x_max":233,"o":"m 72 0 l 72 579 l 225 579 l 225 0 l 72 0 m 149 667 q 88 692 113 667 q 64 752 64 717 q 88 813 64 789 q 149 837 113 837 q 209 813 185 837 q 233 752 233 789 q 209 692 233 717 q 149 667 185 667 m 149 -258 q 88 -234 113 -258 q 64 -174 64 -209 q 88 -113 64 -137 q 149 -89 113 -89 q 209 -113 185 -89 q 233 -174 233 -137 q 209 -234 233 -209 q 149 -258 185 -258 z "},"ì":{"ha":297,"x_min":-42,"x_max":225,"o":"m 72 0 l 72 579 l 225 579 l 225 0 l 72 0 m 93 657 l -42 848 l 125 848 l 213 657 l 93 657 z "},"ỉ":{"ha":297,"x_min":7,"x_max":277,"o":"m 72 0 l 72 579 l 225 579 l 225 0 l 72 0 m 102 657 q 136 705 124 684 q 149 743 149 725 q 135 774 149 762 q 98 786 122 786 q 63 776 80 786 q 34 753 45 766 l 8 851 q 58 876 26 865 q 126 886 91 886 q 233 855 189 886 q 277 768 277 823 q 262 706 277 733 q 230 657 248 678 l 102 657 z "},"ȋ":{"ha":297,"x_min":-42,"x_max":340,"o":"m 72 0 l 72 579 l 225 579 l 225 0 l 72 0 m -42 642 q -17 737 -42 695 q 52 803 9 779 q 149 828 95 828 q 245 803 202 828 q 314 737 289 779 q 340 642 340 695 l 228 642 q 204 698 228 675 q 149 721 180 721 q 94 698 118 721 q 70 642 70 675 l -42 642 z "},"ĳ":{"ha":593,"x_min":64,"x_max":531,"o":"m 72 0 l 72 579 l 225 579 l 225 0 l 72 0 m 149 667 q 88 692 113 667 q 64 752 64 717 q 88 813 64 789 q 149 837 113 837 q 209 813 185 837 q 233 752 233 789 q 209 692 233 717 q 149 667 185 667 m 332 -301 l 302 -177 q 353 -160 335 -177 q 371 -101 371 -143 l 371 579 l 524 579 l 524 -101 q 469 -248 524 -196 q 332 -301 415 -301 m 447 667 q 386 692 411 667 q 362 752 362 717 q 386 813 362 789 q 447 837 411 837 q 507 813 483 837 q 531 752 531 789 q 507 692 531 717 q 447 667 483 667 z "},"ī":{"ha":297,"x_min":2,"x_max":294,"o":"m 72 0 l 72 579 l 225 579 l 225 0 l 72 0 m 3 699 l 3 806 l 295 806 l 295 699 l 3 699 z "},"į":{"ha":297,"x_min":24,"x_max":236,"o":"m 209 -305 q 78 -266 131 -305 q 24 -148 24 -228 q 37 -72 24 -109 q 72 0 50 -36 l 72 579 l 225 579 l 225 0 q 176 -56 195 -29 q 157 -116 157 -84 q 180 -172 157 -154 q 236 -190 203 -189 l 209 -305 m 149 667 q 88 692 113 667 q 64 752 64 717 q 88 813 64 789 q 149 837 113 837 q 209 813 185 837 q 233 752 233 789 q 209 692 233 717 q 149 667 184 667 z "},"ĩ":{"ha":297,"x_min":-64,"x_max":361,"o":"m 72 0 l 72 579 l 225 579 l 225 0 l 72 0 m -25 659 l -64 769 q -12 828 -44 807 q 61 848 21 848 q 124 836 95 848 q 180 811 152 824 q 235 799 207 799 q 288 817 266 799 q 322 868 310 835 l 361 758 q 309 699 341 720 q 236 679 276 679 q 174 691 204 679 q 118 716 145 703 q 63 728 91 728 q 10 710 32 728 q -25 659 -12 692 z "},"j":{"ha":297,"x_min":5,"x_max":234,"o":"m 35 -301 l 5 -177 q 56 -160 38 -177 q 74 -101 74 -143 l 74 579 l 227 579 l 227 -101 q 172 -248 227 -196 q 35 -301 118 -301 m 149 667 q 89 692 114 667 q 65 752 65 717 q 89 813 65 789 q 149 837 114 837 q 210 813 186 837 q 234 752 234 789 q 210 692 234 717 q 149 667 186 667 z "},"ȷ":{"ha":297,"x_min":5,"x_max":227,"o":"m 35 -301 l 5 -177 q 56 -160 38 -177 q 74 -101 74 -143 l 74 579 l 227 579 l 227 -101 q 172 -248 227 -196 q 35 -301 118 -301 z "},"ĵ":{"ha":297,"x_min":-54,"x_max":354,"o":"m 35 -301 l 5 -177 q 56 -160 38 -177 q 74 -101 74 -143 l 74 579 l 227 579 l 227 -101 q 172 -248 227 -196 q 35 -301 118 -301 m -54 657 l 149 885 l 354 657 l 209 657 q 178 693 192 675 q 148 735 164 712 q 118 693 131 712 q 87 657 104 675 l -54 657 z "},"k":{"ha":637,"x_min":71,"x_max":636,"o":"m 454 0 l 216 318 l 412 579 l 578 579 l 384 331 l 636 0 l 454 0 m 71 0 l 71 926 l 223 926 l 223 0 l 71 0 z "},"ǩ":{"ha":637,"x_min":-59,"x_max":636,"o":"m 454 0 l 216 318 l 412 579 l 578 579 l 384 331 l 636 0 l 454 0 m 71 0 l 71 926 l 223 926 l 223 0 l 71 0 m 145 995 l -59 1224 l 86 1224 q 117 1187 103 1206 q 147 1146 130 1169 q 177 1187 163 1169 q 208 1224 191 1206 l 349 1224 l 145 995 z "},"ķ":{"ha":637,"x_min":71,"x_max":636,"o":"m 454 0 l 216 318 l 412 579 l 578 579 l 384 331 l 636 0 l 454 0 m 71 0 l 71 926 l 223 926 l 223 0 l 71 0 m 164 -318 q 220 -223 198 -276 q 247 -107 242 -171 l 390 -107 q 367 -218 386 -165 q 319 -318 349 -271 l 164 -318 z "},"ĸ":{"ha":637,"x_min":71,"x_max":634,"o":"m 452 0 l 213 318 l 408 579 l 574 579 l 384 329 l 634 0 l 452 0 m 71 0 l 71 579 l 219 579 l 219 0 l 71 0 z "},"l":{"ha":297,"x_min":72,"x_max":225,"o":"m 72 0 l 72 926 l 225 926 l 225 0 l 72 0 z "},"ĺ":{"ha":297,"x_min":71,"x_max":407,"o":"m 72 0 l 72 926 l 225 926 l 225 0 l 72 0 m 71 1004 l 216 1195 l 407 1195 l 214 1004 l 71 1004 z "},"ľ":{"ha":471,"x_min":72,"x_max":474,"o":"m 72 0 l 72 926 l 225 926 l 225 0 l 72 0 m 241 615 q 311 750 284 673 q 338 926 338 827 l 474 926 q 451 759 474 837 q 386 615 429 681 l 241 615 z "},"ļ":{"ha":297,"x_min":-7,"x_max":225,"o":"m 72 0 l 72 926 l 225 926 l 225 0 l 72 0 m -6 -318 q 50 -223 28 -276 q 77 -107 72 -171 l 220 -107 q 198 -218 216 -165 q 149 -318 179 -271 l -6 -318 z "},"ŀ":{"ha":413,"x_min":72,"x_max":443,"o":"m 72 0 l 72 926 l 225 926 l 225 0 l 72 0 m 358 320 q 298 345 322 320 q 273 405 273 369 q 298 466 273 442 q 358 490 322 490 q 419 466 394 490 q 443 405 443 442 q 419 345 443 369 q 358 320 394 320 z "},"ǉ":{"ha":593,"x_min":72,"x_max":531,"o":"m 72 0 l 72 926 l 225 926 l 225 0 l 72 0 m 332 -301 l 302 -177 q 353 -160 335 -177 q 371 -101 371 -143 l 371 579 l 524 579 l 524 -101 q 469 -248 524 -196 q 332 -301 415 -301 m 447 667 q 386 692 411 667 q 362 752 362 717 q 386 813 362 789 q 447 837 411 837 q 507 813 483 837 q 531 752 531 789 q 507 692 531 717 q 447 667 483 667 z "},"ł":{"ha":355,"x_min":-17,"x_max":366,"o":"m 101 0 l 101 364 l 29 316 l -17 389 l 101 466 l 101 926 l 254 926 l 254 566 l 320 611 l 366 538 l 254 464 l 254 0 l 101 0 z "},"m":{"ha":1051,"x_min":71,"x_max":992,"o":"m 71 0 l 71 579 l 208 579 l 208 510 q 285 574 239 553 q 383 596 332 596 q 482 573 436 596 q 559 508 529 551 q 644 574 593 552 q 754 596 695 596 q 871 567 817 596 q 959 483 925 538 q 992 351 992 428 l 992 0 l 840 0 l 840 330 q 809 421 840 385 q 724 458 777 458 q 667 445 694 458 q 624 403 640 431 q 608 332 608 375 l 608 0 l 455 0 l 455 330 q 441 396 455 367 q 400 442 426 425 q 340 459 374 459 q 284 445 311 459 q 240 403 257 431 q 223 332 223 375 l 223 0 l 71 0 z "},"n":{"ha":680,"x_min":71,"x_max":621,"o":"m 71 0 l 71 579 l 208 579 l 208 507 q 286 573 239 551 q 386 596 333 596 q 501 567 448 596 q 588 480 555 537 q 621 343 621 423 l 621 0 l 469 0 l 469 323 q 437 418 469 376 q 346 459 405 459 q 260 426 298 459 q 223 325 223 393 l 223 0 l 71 0 z "},"ń":{"ha":680,"x_min":71,"x_max":621,"o":"m 71 0 l 71 579 l 208 579 l 208 507 q 286 573 239 551 q 386 596 333 596 q 501 567 448 596 q 588 480 555 537 q 621 343 621 423 l 621 0 l 469 0 l 469 323 q 437 418 469 376 q 346 459 405 459 q 260 426 298 459 q 223 325 223 393 l 223 0 l 71 0 m 276 657 l 365 848 l 531 848 l 397 657 l 276 657 z "},"ň":{"ha":680,"x_min":71,"x_max":621,"o":"m 71 0 l 71 579 l 208 579 l 208 507 q 286 573 239 551 q 386 596 333 596 q 501 567 448 596 q 588 480 555 537 q 621 343 621 423 l 621 0 l 469 0 l 469 323 q 437 418 469 376 q 346 459 405 459 q 260 426 298 459 q 223 325 223 393 l 223 0 l 71 0 m 340 648 l 137 877 l 282 877 q 313 840 299 858 q 342 799 326 822 q 373 840 359 822 q 404 877 387 858 l 545 877 l 340 648 z "},"ņ":{"ha":680,"x_min":71,"x_max":621,"o":"m 71 0 l 71 579 l 208 579 l 208 507 q 286 573 239 551 q 386 596 333 596 q 501 567 448 596 q 588 480 555 537 q 621 343 621 423 l 621 0 l 469 0 l 469 323 q 437 418 469 376 q 346 459 405 459 q 260 426 298 459 q 223 325 223 393 l 223 0 l 71 0 m 186 -318 q 242 -223 220 -276 q 269 -107 264 -171 l 412 -107 q 390 -218 408 -165 q 341 -318 371 -271 l 186 -318 z "},"ǌ":{"ha":977,"x_min":71,"x_max":914,"o":"m 71 0 l 71 579 l 208 579 l 208 507 q 286 573 239 551 q 386 596 333 596 q 501 567 448 596 q 588 480 555 537 q 621 343 621 423 l 621 0 l 469 0 l 469 323 q 437 418 469 376 q 346 459 405 459 q 260 426 298 459 q 223 325 223 393 l 223 0 l 71 0 m 715 -301 l 685 -177 q 736 -160 718 -177 q 754 -101 754 -143 l 754 579 l 907 579 l 907 -101 q 852 -248 907 -196 q 715 -301 798 -301 m 829 667 q 769 692 794 667 q 745 752 745 717 q 769 813 745 789 q 829 837 794 837 q 890 813 866 837 q 914 752 914 789 q 890 692 914 717 q 829 667 866 667 z "},"ñ":{"ha":680,"x_min":71,"x_max":621,"o":"m 71 0 l 71 579 l 208 579 l 208 507 q 286 573 239 551 q 386 596 333 596 q 501 567 448 596 q 588 480 555 537 q 621 343 621 423 l 621 0 l 469 0 l 469 323 q 437 418 469 376 q 346 459 405 459 q 260 426 298 459 q 223 325 223 393 l 223 0 l 71 0 m 167 659 l 128 769 q 180 828 148 807 q 253 848 213 848 q 316 836 287 848 q 372 811 344 824 q 427 799 399 799 q 480 817 458 799 q 514 868 502 835 l 553 758 q 501 699 533 720 q 428 679 468 679 q 366 691 395 679 q 310 716 337 703 q 255 728 283 728 q 202 710 224 728 q 167 659 180 692 z "},"ŋ":{"ha":680,"x_min":71,"x_max":621,"o":"m 428 -301 l 398 -177 q 450 -160 432 -177 q 469 -101 469 -143 l 469 323 q 437 418 469 376 q 346 459 405 459 q 260 426 298 459 q 223 325 223 393 l 223 0 l 71 0 l 71 579 l 208 579 l 208 507 q 286 573 239 551 q 386 596 333 596 q 501 567 448 596 q 588 480 555 537 q 621 343 621 423 l 621 -101 q 566 -248 621 -196 q 428 -301 511 -301 z "},"o":{"ha":699,"x_min":40,"x_max":661,"o":"m 350 -17 q 193 24 264 -17 q 81 135 122 66 q 40 289 40 204 q 81 444 40 375 q 193 555 122 513 q 349 596 264 596 q 506 555 436 596 q 619 444 577 513 q 661 289 661 375 q 619 136 661 205 q 506 24 577 66 q 350 -17 436 -17 m 349 121 q 434 143 396 121 q 494 204 472 166 q 516 289 516 243 q 494 375 516 337 q 434 436 472 413 q 349 459 396 459 q 265 436 303 459 q 205 375 228 413 q 183 289 183 337 q 205 204 183 243 q 265 143 228 166 q 349 121 303 121 z "},"ó":{"ha":699,"x_min":40,"x_max":661,"o":"m 350 -17 q 193 24 264 -17 q 81 135 122 66 q 40 289 40 204 q 81 444 40 375 q 193 555 122 513 q 349 596 264 596 q 506 555 436 596 q 619 444 577 513 q 661 289 661 375 q 619 136 661 205 q 506 24 577 66 q 350 -17 436 -17 m 349 121 q 434 143 396 121 q 494 204 472 166 q 516 289 516 243 q 494 375 516 337 q 434 436 472 413 q 349 459 396 459 q 265 436 303 459 q 205 375 228 413 q 183 289 183 337 q 205 204 183 243 q 265 143 228 166 q 349 121 303 121 m 285 657 l 374 848 l 541 848 l 407 657 l 285 657 z "},"ŏ":{"ha":699,"x_min":40,"x_max":661,"o":"m 350 -17 q 193 24 264 -17 q 81 135 122 66 q 40 289 40 204 q 81 444 40 375 q 193 555 122 513 q 349 596 264 596 q 506 555 436 596 q 619 444 577 513 q 661 289 661 375 q 619 136 661 205 q 506 24 577 66 q 350 -17 436 -17 m 349 121 q 434 143 396 121 q 494 204 472 166 q 516 289 516 243 q 494 375 516 337 q 434 436 472 413 q 349 459 396 459 q 265 436 303 459 q 205 375 228 413 q 183 289 183 337 q 205 204 183 243 q 265 143 228 166 q 349 121 303 121 m 350 642 q 254 667 297 642 q 185 734 210 692 q 159 828 159 775 l 272 828 q 295 773 272 796 q 350 749 318 749 q 406 772 382 749 q 429 828 429 795 l 541 828 q 516 733 541 774 q 448 666 491 691 q 350 642 404 642 z "},"ô":{"ha":699,"x_min":40,"x_max":661,"o":"m 350 -17 q 193 24 264 -17 q 81 135 122 66 q 40 289 40 204 q 81 444 40 375 q 193 555 122 513 q 349 596 264 596 q 506 555 436 596 q 619 444 577 513 q 661 289 661 375 q 619 136 661 205 q 506 24 577 66 q 350 -17 436 -17 m 349 121 q 434 143 396 121 q 494 204 472 166 q 516 289 516 243 q 494 375 516 337 q 434 436 472 413 q 349 459 396 459 q 265 436 303 459 q 205 375 228 413 q 183 289 183 337 q 205 204 183 243 q 265 143 228 166 q 349 121 303 121 m 147 657 l 350 885 l 555 657 l 410 657 q 379 693 393 675 q 348 735 365 712 q 318 693 332 712 q 287 657 305 675 l 147 657 z "},"ố":{"ha":699,"x_min":40,"x_max":693,"o":"m 350 -17 q 193 24 264 -17 q 81 135 122 66 q 40 289 40 204 q 81 444 40 375 q 193 555 122 513 q 349 596 264 596 q 506 555 436 596 q 619 444 577 513 q 661 289 661 375 q 619 136 661 205 q 506 24 577 66 q 350 -17 436 -17 m 349 121 q 434 143 396 121 q 494 204 472 166 q 516 289 516 243 q 494 375 516 337 q 434 436 472 413 q 349 459 396 459 q 265 436 303 459 q 205 375 228 413 q 183 289 183 337 q 205 204 183 243 q 265 143 228 166 q 349 121 303 121 m 147 657 l 350 885 l 555 657 l 410 657 q 379 693 393 675 q 348 735 365 712 q 318 693 332 712 q 287 657 305 675 l 147 657 m 476 790 l 545 935 l 693 935 l 588 790 l 476 790 z "},"ộ":{"ha":699,"x_min":40,"x_max":661,"o":"m 350 -17 q 193 24 264 -17 q 81 135 122 66 q 40 289 40 204 q 81 444 40 375 q 193 555 122 513 q 349 596 264 596 q 506 555 436 596 q 619 444 577 513 q 661 289 661 375 q 619 136 661 205 q 506 24 577 66 q 350 -17 436 -17 m 349 121 q 434 143 396 121 q 494 204 472 166 q 516 289 516 243 q 494 375 516 337 q 434 436 472 413 q 349 459 396 459 q 265 436 303 459 q 205 375 228 413 q 183 289 183 337 q 205 204 183 243 q 265 143 228 166 q 349 121 303 121 m 350 -258 q 290 -234 314 -258 q 265 -174 265 -209 q 290 -113 265 -137 q 350 -89 314 -89 q 411 -113 387 -89 q 435 -174 435 -137 q 411 -234 435 -209 q 350 -258 387 -258 m 147 657 l 350 885 l 555 657 l 410 657 q 379 693 393 675 q 348 735 365 712 q 318 693 332 712 q 287 657 305 675 l 147 657 z "},"ồ":{"ha":699,"x_min":40,"x_max":661,"o":"m 350 -17 q 193 24 264 -17 q 81 135 122 66 q 40 289 40 204 q 81 444 40 375 q 193 555 122 513 q 349 596 264 596 q 506 555 436 596 q 619 444 577 513 q 661 289 661 375 q 619 136 661 205 q 506 24 577 66 q 350 -17 436 -17 m 349 121 q 434 143 396 121 q 494 204 472 166 q 516 289 516 243 q 494 375 516 337 q 434 436 472 413 q 349 459 396 459 q 265 436 303 459 q 205 375 228 413 q 183 289 183 337 q 205 204 183 243 q 265 143 228 166 q 349 121 303 121 m 147 657 l 350 885 l 555 657 l 410 657 q 379 693 393 675 q 348 735 365 712 q 318 693 332 712 q 287 657 305 675 l 147 657 m 548 790 l 443 935 l 591 935 l 660 790 l 548 790 z "},"ổ":{"ha":699,"x_min":40,"x_max":669,"o":"m 350 -17 q 193 24 264 -17 q 81 135 122 66 q 40 289 40 204 q 81 444 40 375 q 193 555 122 513 q 349 596 264 596 q 506 555 436 596 q 619 444 577 513 q 661 289 661 375 q 619 136 661 205 q 506 24 577 66 q 350 -17 436 -17 m 349 121 q 434 143 396 121 q 494 204 472 166 q 516 289 516 243 q 494 375 516 337 q 434 436 472 413 q 349 459 396 459 q 265 436 303 459 q 205 375 228 413 q 183 289 183 337 q 205 204 183 243 q 265 143 228 166 q 349 121 303 121 m 147 657 l 350 885 l 555 657 l 410 657 q 379 693 393 675 q 348 735 365 712 q 318 693 332 712 q 287 657 305 675 l 147 657 m 509 781 q 541 823 530 804 q 552 856 552 842 q 540 886 552 875 q 505 897 528 897 q 474 888 490 897 q 448 867 458 879 l 422 956 q 470 979 440 969 q 531 989 500 989 q 630 960 589 989 q 670 880 670 932 q 657 825 670 849 q 627 781 644 801 l 509 781 z "},"ỗ":{"ha":699,"x_min":40,"x_max":661,"o":"m 350 -17 q 193 24 264 -17 q 81 135 122 66 q 40 289 40 204 q 81 444 40 375 q 193 555 122 513 q 349 596 264 596 q 506 555 436 596 q 619 444 577 513 q 661 289 661 375 q 619 136 661 205 q 506 24 577 66 q 350 -17 436 -17 m 349 121 q 434 143 396 121 q 494 204 472 166 q 516 289 516 243 q 494 375 516 337 q 434 436 472 413 q 349 459 396 459 q 265 436 303 459 q 205 375 228 413 q 183 289 183 337 q 205 204 183 243 q 265 143 228 166 q 349 121 303 121 m 147 657 l 350 870 l 555 657 l 410 657 q 379 689 393 672 q 348 724 365 705 q 318 689 332 705 q 287 657 305 672 l 147 657 m 198 864 l 164 962 q 210 1013 180 995 q 273 1031 239 1031 q 328 1020 303 1031 q 378 998 354 1010 q 426 987 401 987 q 473 1003 453 987 q 503 1047 492 1019 l 537 951 q 491 900 520 918 q 427 882 462 882 q 372 893 397 882 q 323 915 346 904 q 275 926 299 926 q 198 864 222 926 z "},"ȍ":{"ha":699,"x_min":40,"x_max":661,"o":"m 350 -17 q 193 24 264 -17 q 81 135 122 66 q 40 289 40 204 q 81 444 40 375 q 193 555 122 513 q 349 596 264 596 q 506 555 436 596 q 619 444 577 513 q 661 289 661 375 q 619 136 661 205 q 506 24 577 66 q 350 -17 436 -17 m 349 121 q 434 143 396 121 q 494 204 472 166 q 516 289 516 243 q 494 375 516 337 q 434 436 472 413 q 349 459 396 459 q 265 436 303 459 q 205 375 228 413 q 183 289 183 337 q 205 204 183 243 q 265 143 228 166 q 349 121 303 121 m 413 657 l 307 839 l 466 839 l 526 657 l 413 657 m 181 657 l 75 839 l 234 839 l 294 657 l 181 657 z "},"ö":{"ha":699,"x_min":40,"x_max":661,"o":"m 350 -17 q 193 24 264 -17 q 81 135 122 66 q 40 289 40 204 q 81 444 40 375 q 193 555 122 513 q 349 596 264 596 q 506 555 436 596 q 619 444 577 513 q 661 289 661 375 q 619 136 661 205 q 506 24 577 66 q 350 -17 436 -17 m 349 121 q 434 143 396 121 q 494 204 472 166 q 516 289 516 243 q 494 375 516 337 q 434 436 472 413 q 349 459 396 459 q 265 436 303 459 q 205 375 228 413 q 183 289 183 337 q 205 204 183 243 q 265 143 228 166 q 349 121 303 121 m 226 670 q 168 695 192 670 q 144 752 144 720 q 168 811 144 787 q 226 834 193 834 q 284 810 260 834 q 308 752 308 786 q 284 694 308 719 q 226 670 259 670 m 475 670 q 417 695 441 670 q 393 752 393 720 q 417 811 393 787 q 475 834 442 834 q 533 810 509 834 q 557 752 557 786 q 532 694 557 719 q 475 670 508 670 z "},"ȫ":{"ha":699,"x_min":40,"x_max":661,"o":"m 350 -17 q 193 24 264 -17 q 81 135 122 66 q 40 289 40 204 q 81 444 40 375 q 193 555 122 513 q 349 596 264 596 q 506 555 436 596 q 619 444 577 513 q 661 289 661 375 q 619 136 661 205 q 506 24 577 66 q 350 -17 436 -17 m 349 121 q 434 143 396 121 q 494 204 472 166 q 516 289 516 243 q 494 375 516 337 q 434 436 472 413 q 349 459 396 459 q 265 436 303 459 q 205 375 228 413 q 183 289 183 337 q 205 204 183 243 q 265 143 228 166 q 349 121 303 121 m 226 670 q 168 695 192 670 q 144 752 144 720 q 168 811 144 787 q 226 834 193 834 q 284 810 260 834 q 308 752 308 786 q 284 694 308 719 q 226 670 259 670 m 475 670 q 417 695 441 670 q 393 752 393 720 q 417 811 393 787 q 475 834 442 834 q 533 810 509 834 q 557 752 557 786 q 532 694 557 719 q 475 670 508 670 m 177 901 l 177 1006 l 524 1006 l 524 901 l 177 901 z "},"ȱ":{"ha":699,"x_min":40,"x_max":661,"o":"m 350 -17 q 193 24 264 -17 q 81 135 122 66 q 40 289 40 204 q 81 444 40 375 q 193 555 122 513 q 349 596 264 596 q 506 555 436 596 q 619 444 577 513 q 661 289 661 375 q 619 136 661 205 q 506 24 577 66 q 350 -17 436 -17 m 349 121 q 434 143 396 121 q 494 204 472 166 q 516 289 516 243 q 494 375 516 337 q 434 436 472 413 q 349 459 396 459 q 265 436 303 459 q 205 375 228 413 q 183 289 183 337 q 205 204 183 243 q 265 143 228 166 q 349 121 303 121 m 350 668 q 291 693 315 668 q 266 752 266 718 q 291 812 266 788 q 350 836 315 836 q 410 812 386 836 q 434 752 434 788 q 410 693 434 718 q 350 668 386 668 m 177 901 l 177 1006 l 524 1006 l 524 901 l 177 901 z "},"ọ":{"ha":699,"x_min":40,"x_max":661,"o":"m 350 -17 q 193 24 264 -17 q 81 135 122 66 q 40 289 40 204 q 81 444 40 375 q 193 555 122 513 q 349 596 264 596 q 506 555 436 596 q 619 444 577 513 q 661 289 661 375 q 619 136 661 205 q 506 24 577 66 q 350 -17 436 -17 m 349 121 q 434 143 396 121 q 494 204 472 166 q 516 289 516 243 q 494 375 516 337 q 434 436 472 413 q 349 459 396 459 q 265 436 303 459 q 205 375 228 413 q 183 289 183 337 q 205 204 183 243 q 265 143 228 166 q 349 121 303 121 m 350 -258 q 290 -234 314 -258 q 265 -174 265 -209 q 290 -113 265 -137 q 350 -89 314 -89 q 411 -113 387 -89 q 435 -174 435 -137 q 411 -234 435 -209 q 350 -258 387 -258 z "},"ò":{"ha":699,"x_min":40,"x_max":661,"o":"m 350 -17 q 193 24 264 -17 q 81 135 122 66 q 40 289 40 204 q 81 444 40 375 q 193 555 122 513 q 349 596 264 596 q 506 555 436 596 q 619 444 577 513 q 661 289 661 375 q 619 136 661 205 q 506 24 577 66 q 350 -17 436 -17 m 349 121 q 434 143 396 121 q 494 204 472 166 q 516 289 516 243 q 494 375 516 337 q 434 436 472 413 q 349 459 396 459 q 265 436 303 459 q 205 375 228 413 q 183 289 183 337 q 205 204 183 243 q 265 143 228 166 q 349 121 303 121 m 294 657 l 159 848 l 327 848 l 415 657 l 294 657 z "},"ỏ":{"ha":699,"x_min":40,"x_max":661,"o":"m 350 -17 q 193 24 264 -17 q 81 135 122 66 q 40 289 40 204 q 81 444 40 375 q 193 555 122 513 q 349 596 264 596 q 506 555 436 596 q 619 444 577 513 q 661 289 661 375 q 619 136 661 205 q 506 24 577 66 q 350 -17 436 -17 m 349 121 q 434 143 396 121 q 494 204 472 166 q 516 289 516 243 q 494 375 516 337 q 434 436 472 413 q 349 459 396 459 q 265 436 303 459 q 205 375 228 413 q 183 289 183 337 q 205 204 183 243 q 265 143 228 166 q 349 121 303 121 m 304 657 q 338 705 326 684 q 350 743 350 725 q 337 774 350 762 q 300 786 323 786 q 264 776 282 786 q 235 753 247 766 l 209 851 q 260 876 228 865 q 328 886 292 886 q 435 855 391 886 q 478 768 478 823 q 464 706 478 733 q 431 657 449 678 l 304 657 z "},"ơ":{"ha":743,"x_min":40,"x_max":734,"o":"m 350 -17 q 193 24 264 -17 q 81 135 122 66 q 40 289 40 204 q 81 444 40 375 q 193 555 122 513 q 350 596 264 596 q 484 566 422 596 q 588 485 546 536 q 603 511 598 496 q 609 548 609 527 q 604 589 609 565 q 585 637 599 612 l 711 637 q 729 591 724 613 q 734 548 734 569 q 707 448 734 488 q 642 394 681 409 q 661 289 661 345 q 619 135 661 204 q 506 24 577 66 q 350 -17 436 -17 m 183 289 q 205 204 183 243 q 265 143 228 166 q 349 121 303 121 q 434 143 396 121 q 494 204 472 166 q 516 289 516 243 q 494 375 516 337 q 434 436 472 413 q 349 459 396 459 q 265 436 303 459 q 205 375 228 413 q 183 289 183 337 z "},"ớ":{"ha":743,"x_min":40,"x_max":734,"o":"m 350 -17 q 193 24 264 -17 q 81 135 122 66 q 40 289 40 204 q 81 444 40 375 q 193 555 122 513 q 350 596 264 596 q 484 566 422 596 q 588 485 546 536 q 603 511 598 496 q 609 548 609 527 q 604 589 609 565 q 585 637 599 612 l 711 637 q 729 591 724 613 q 734 548 734 569 q 707 448 734 488 q 642 394 681 409 q 661 289 661 345 q 619 135 661 204 q 506 24 577 66 q 350 -17 436 -17 m 183 289 q 205 204 183 243 q 265 143 228 166 q 349 121 303 121 q 434 143 396 121 q 494 204 472 166 q 516 289 516 243 q 494 375 516 337 q 434 436 472 413 q 349 459 396 459 q 265 436 303 459 q 205 375 228 413 q 183 289 183 337 m 285 657 l 374 848 l 541 848 l 407 657 l 285 657 z "},"ợ":{"ha":743,"x_min":40,"x_max":734,"o":"m 350 -17 q 193 24 264 -17 q 81 135 122 66 q 40 289 40 204 q 81 444 40 375 q 193 555 122 513 q 350 596 264 596 q 484 566 422 596 q 588 485 546 536 q 603 511 598 496 q 609 548 609 527 q 604 589 609 565 q 585 637 599 612 l 711 637 q 729 591 724 613 q 734 548 734 569 q 707 448 734 488 q 642 394 681 409 q 661 289 661 345 q 619 135 661 204 q 506 24 577 66 q 350 -17 436 -17 m 183 289 q 205 204 183 243 q 265 143 228 166 q 349 121 303 121 q 434 143 396 121 q 494 204 472 166 q 516 289 516 243 q 494 375 516 337 q 434 436 472 413 q 349 459 396 459 q 265 436 303 459 q 205 375 228 413 q 183 289 183 337 m 350 -258 q 290 -234 314 -258 q 265 -174 265 -209 q 290 -113 265 -137 q 350 -89 314 -89 q 411 -113 387 -89 q 435 -174 435 -137 q 411 -234 435 -209 q 350 -258 387 -258 z "},"ờ":{"ha":743,"x_min":40,"x_max":734,"o":"m 350 -17 q 193 24 264 -17 q 81 135 122 66 q 40 289 40 204 q 81 444 40 375 q 193 555 122 513 q 350 596 264 596 q 484 566 422 596 q 588 485 546 536 q 603 511 598 496 q 609 548 609 527 q 604 589 609 565 q 585 637 599 612 l 711 637 q 729 591 724 613 q 734 548 734 569 q 707 448 734 488 q 642 394 681 409 q 661 289 661 345 q 619 135 661 204 q 506 24 577 66 q 350 -17 436 -17 m 183 289 q 205 204 183 243 q 265 143 228 166 q 349 121 303 121 q 434 143 396 121 q 494 204 472 166 q 516 289 516 243 q 494 375 516 337 q 434 436 472 413 q 349 459 396 459 q 265 436 303 459 q 205 375 228 413 q 183 289 183 337 m 294 657 l 159 848 l 327 848 l 415 657 l 294 657 z "},"ở":{"ha":743,"x_min":40,"x_max":734,"o":"m 350 -17 q 193 24 264 -17 q 81 135 122 66 q 40 289 40 204 q 81 444 40 375 q 193 555 122 513 q 350 596 264 596 q 484 566 422 596 q 588 485 546 536 q 603 511 598 496 q 609 548 609 527 q 604 589 609 565 q 585 637 599 612 l 711 637 q 729 591 724 613 q 734 548 734 569 q 707 448 734 488 q 642 394 681 409 q 661 289 661 345 q 619 135 661 204 q 506 24 577 66 q 350 -17 436 -17 m 183 289 q 205 204 183 243 q 265 143 228 166 q 349 121 303 121 q 434 143 396 121 q 494 204 472 166 q 516 289 516 243 q 494 375 516 337 q 434 436 472 413 q 349 459 396 459 q 265 436 303 459 q 205 375 228 413 q 183 289 183 337 m 304 657 q 338 705 326 684 q 350 743 350 725 q 337 774 350 762 q 300 786 323 786 q 264 776 282 786 q 235 753 247 766 l 209 851 q 260 876 228 865 q 328 886 292 886 q 435 855 391 886 q 478 768 478 823 q 464 706 478 733 q 431 657 449 678 l 304 657 z "},"ỡ":{"ha":743,"x_min":40,"x_max":734,"o":"m 350 -17 q 193 24 264 -17 q 81 135 122 66 q 40 289 40 204 q 81 444 40 375 q 193 555 122 513 q 350 596 264 596 q 484 566 422 596 q 588 485 546 536 q 603 511 598 496 q 609 548 609 527 q 604 589 609 565 q 585 637 599 612 l 711 637 q 729 591 724 613 q 734 548 734 569 q 707 448 734 488 q 642 394 681 409 q 661 289 661 345 q 619 135 661 204 q 506 24 577 66 q 350 -17 436 -17 m 183 289 q 205 204 183 243 q 265 143 228 166 q 349 121 303 121 q 434 143 396 121 q 494 204 472 166 q 516 289 516 243 q 494 375 516 337 q 434 436 472 413 q 349 459 396 459 q 265 436 303 459 q 205 375 228 413 q 183 289 183 337 m 177 659 l 138 769 q 190 828 157 807 q 262 848 223 848 q 326 836 297 848 q 381 811 354 824 q 437 799 409 799 q 489 817 468 799 q 524 868 511 835 l 562 758 q 510 699 543 720 q 438 679 477 679 q 376 691 405 679 q 319 716 346 703 q 264 728 292 728 q 212 710 233 728 q 177 659 190 692 z "},"ő":{"ha":699,"x_min":40,"x_max":661,"o":"m 350 -17 q 193 24 264 -17 q 81 135 122 66 q 40 289 40 204 q 81 444 40 375 q 193 555 122 513 q 349 596 264 596 q 506 555 436 596 q 619 444 577 513 q 661 289 661 375 q 619 136 661 205 q 506 24 577 66 q 350 -17 436 -17 m 349 121 q 434 143 396 121 q 494 204 472 166 q 516 289 516 243 q 494 375 516 337 q 434 436 472 413 q 349 459 396 459 q 265 436 303 459 q 205 375 228 413 q 183 289 183 337 q 205 204 183 243 q 265 143 228 166 q 349 121 303 121 m 406 657 l 467 839 l 626 839 l 519 657 l 406 657 m 175 657 l 235 839 l 394 839 l 287 657 l 175 657 z "},"ȏ":{"ha":699,"x_min":40,"x_max":661,"o":"m 350 -17 q 193 24 264 -17 q 81 135 122 66 q 40 289 40 204 q 81 444 40 375 q 193 555 122 513 q 349 596 264 596 q 506 555 436 596 q 619 444 577 513 q 661 289 661 375 q 619 136 661 205 q 506 24 577 66 q 350 -17 436 -17 m 349 121 q 434 143 396 121 q 494 204 472 166 q 516 289 516 243 q 494 375 516 337 q 434 436 472 413 q 349 459 396 459 q 265 436 303 459 q 205 375 228 413 q 183 289 183 337 q 205 204 183 243 q 265 143 228 166 q 349 121 303 121 m 159 642 q 185 737 159 695 q 254 803 210 779 q 350 828 297 828 q 447 803 403 828 q 516 737 491 779 q 541 642 541 695 l 429 642 q 406 698 429 675 q 350 721 382 721 q 296 698 319 721 q 272 642 272 675 l 159 642 z "},"ō":{"ha":699,"x_min":40,"x_max":661,"o":"m 350 -17 q 193 24 264 -17 q 81 135 122 66 q 40 289 40 204 q 81 444 40 375 q 193 555 122 513 q 349 596 264 596 q 506 555 436 596 q 619 444 577 513 q 661 289 661 375 q 619 136 661 205 q 506 24 577 66 q 350 -17 436 -17 m 349 121 q 434 143 396 121 q 494 204 472 166 q 516 289 516 243 q 494 375 516 337 q 434 436 472 413 q 349 459 396 459 q 265 436 303 459 q 205 375 228 413 q 183 289 183 337 q 205 204 183 243 q 265 143 228 166 q 349 121 303 121 m 176 699 l 176 806 l 526 806 l 526 699 l 176 699 z "},"ǫ":{"ha":699,"x_min":40,"x_max":661,"o":"m 440 -305 q 308 -266 361 -305 q 255 -148 255 -228 q 267 -80 255 -113 q 303 -14 280 -46 q 168 41 228 -2 q 74 148 109 84 q 40 289 40 212 q 81 444 40 375 q 193 555 122 513 q 349 596 264 596 q 506 555 436 596 q 619 444 577 513 q 661 289 661 375 q 632 161 661 221 q 555 59 604 101 q 442 -4 505 16 q 402 -58 417 -32 q 387 -116 387 -85 q 410 -172 387 -154 q 467 -190 433 -189 l 440 -305 m 349 121 q 434 143 396 121 q 494 204 472 166 q 516 289 516 243 q 494 375 516 337 q 434 436 472 413 q 349 459 396 459 q 265 436 303 459 q 205 375 228 413 q 183 289 183 337 q 205 204 183 243 q 265 143 228 166 q 349 121 303 121 z "},"ø":{"ha":699,"x_min":40,"x_max":661,"o":"m 147 -22 l 76 39 l 117 88 q 60 179 80 127 q 40 289 40 231 q 81 445 40 375 q 193 555 122 514 q 350 596 264 596 q 434 585 394 596 q 508 554 474 574 l 548 600 l 618 539 l 581 495 q 639 402 617 454 q 661 289 661 349 q 619 136 661 205 q 506 24 577 66 q 350 -17 436 -17 q 264 -5 305 -17 q 188 27 224 7 l 147 -22 m 205 194 l 421 448 q 350 465 389 465 q 263 441 302 465 q 201 378 224 418 q 177 289 177 338 q 205 194 177 238 m 350 115 q 436 138 397 115 q 499 202 476 162 q 522 289 522 241 q 514 342 522 317 q 492 389 505 367 l 276 131 q 350 115 310 115 z "},"ǿ":{"ha":699,"x_min":40,"x_max":661,"o":"m 147 -22 l 76 39 l 117 88 q 60 179 80 127 q 40 289 40 231 q 81 445 40 375 q 193 555 122 514 q 350 596 264 596 q 434 585 394 596 q 508 554 474 574 l 548 600 l 618 539 l 581 495 q 639 402 617 454 q 661 289 661 349 q 619 136 661 205 q 506 24 577 66 q 350 -17 436 -17 q 264 -5 305 -17 q 188 27 224 7 l 147 -22 m 205 194 l 421 448 q 350 465 389 465 q 263 441 302 465 q 201 378 224 418 q 177 289 177 338 q 205 194 177 238 m 350 115 q 436 138 397 115 q 499 202 476 162 q 522 289 522 241 q 514 342 522 317 q 492 389 505 367 l 276 131 q 350 115 310 115 m 285 656 l 374 847 l 541 847 l 407 656 l 285 656 z "},"õ":{"ha":699,"x_min":40,"x_max":661,"o":"m 350 -17 q 193 24 264 -17 q 81 135 122 66 q 40 289 40 204 q 81 444 40 375 q 193 555 122 513 q 349 596 264 596 q 506 555 436 596 q 619 444 577 513 q 661 289 661 375 q 619 136 661 205 q 506 24 577 66 q 350 -17 436 -17 m 349 121 q 434 143 396 121 q 494 204 472 166 q 516 289 516 243 q 494 375 516 337 q 434 436 472 413 q 349 459 396 459 q 265 436 303 459 q 205 375 228 413 q 183 289 183 337 q 205 204 183 243 q 265 143 228 166 q 349 121 303 121 m 177 659 l 138 769 q 190 828 157 807 q 262 848 223 848 q 326 836 297 848 q 381 811 354 824 q 437 799 409 799 q 489 817 468 799 q 524 868 511 835 l 562 758 q 510 699 543 720 q 438 679 477 679 q 376 691 405 679 q 319 716 346 703 q 264 728 292 728 q 212 710 233 728 q 177 659 190 692 z "},"ȭ":{"ha":699,"x_min":40,"x_max":661,"o":"m 350 -17 q 193 24 264 -17 q 81 135 122 66 q 40 289 40 204 q 81 444 40 375 q 193 555 122 513 q 349 596 264 596 q 506 555 436 596 q 619 444 577 513 q 661 289 661 375 q 619 136 661 205 q 506 24 577 66 q 350 -17 436 -17 m 349 121 q 434 143 396 121 q 494 204 472 166 q 516 289 516 243 q 494 375 516 337 q 434 436 472 413 q 349 459 396 459 q 265 436 303 459 q 205 375 228 413 q 183 289 183 337 q 205 204 183 243 q 265 143 228 166 q 349 121 303 121 m 193 664 l 158 763 q 206 816 177 798 q 271 835 236 835 q 328 824 302 835 q 379 801 354 813 q 428 789 403 789 q 476 805 456 789 q 507 852 496 822 l 542 753 q 495 701 525 720 q 429 682 466 682 q 373 693 399 682 q 322 716 346 705 q 273 727 298 727 q 193 664 218 727 m 177 901 l 177 1006 l 524 1006 l 524 901 l 177 901 z "},"œ":{"ha":1117,"x_min":40,"x_max":1083,"o":"m 350 -17 q 193 24 264 -17 q 81 136 122 66 q 40 289 40 205 q 81 445 40 375 q 193 555 122 514 q 350 596 264 596 q 471 572 415 596 q 569 505 528 548 q 666 572 611 548 q 786 596 722 596 q 938 557 870 596 q 1044 452 1005 519 q 1083 300 1083 385 l 1083 245 l 702 245 q 667 247 685 245 q 631 251 649 249 q 693 151 644 190 q 814 112 741 112 q 914 135 869 112 q 987 192 959 157 l 1021 50 q 924 0 979 16 q 811 -17 870 -17 q 676 8 737 -17 q 572 75 615 33 q 473 8 530 34 q 350 -17 416 -17 m 350 121 q 434 143 396 121 q 494 204 472 166 q 516 289 516 243 q 494 375 516 337 q 434 436 472 413 q 350 459 396 459 q 265 436 303 459 q 205 375 228 413 q 183 289 183 337 q 205 204 183 243 q 265 143 228 166 q 350 121 303 121 m 628 352 q 665 356 646 355 q 702 358 684 358 l 849 358 q 897 356 874 358 q 942 350 921 355 q 886 440 928 406 q 784 474 844 474 q 686 440 728 474 q 628 352 643 406 z "},"p":{"ha":719,"x_min":71,"x_max":680,"o":"m 71 -289 l 71 579 l 204 579 l 204 517 q 286 572 239 553 q 390 592 334 592 q 536 552 471 592 q 641 442 602 511 q 680 289 680 373 q 641 137 680 206 q 536 27 602 68 q 390 -14 471 -14 q 299 2 340 -14 q 223 44 257 17 l 223 -289 l 71 -289 m 371 121 q 455 144 418 121 q 514 205 492 167 q 536 289 536 243 q 514 374 536 336 q 455 435 492 412 q 372 458 418 458 q 289 435 326 458 q 230 374 252 412 q 207 289 207 336 q 230 205 207 243 q 289 144 252 167 q 371 121 326 121 z "},"þ":{"ha":719,"x_min":71,"x_max":680,"o":"m 71 -289 l 71 926 l 223 926 l 223 534 q 299 577 257 562 q 390 592 340 592 q 536 552 471 592 q 641 442 602 511 q 680 289 680 373 q 641 137 680 206 q 536 27 602 68 q 390 -14 471 -14 q 299 2 340 -14 q 223 44 257 17 l 223 -289 l 71 -289 m 371 121 q 455 144 418 121 q 514 205 492 167 q 536 289 536 243 q 514 374 536 336 q 455 435 492 412 q 372 458 418 458 q 289 435 326 458 q 230 374 252 412 q 207 289 207 336 q 230 205 207 243 q 289 144 252 167 q 371 121 326 121 z "},"q":{"ha":719,"x_min":40,"x_max":648,"o":"m 496 -289 l 496 44 q 420 2 462 17 q 329 -14 378 -14 q 183 27 249 -14 q 79 137 118 68 q 40 289 40 206 q 79 442 40 373 q 183 551 118 510 q 329 592 249 592 q 433 572 385 592 q 515 517 481 553 l 515 579 l 648 579 l 648 -289 l 496 -289 m 346 121 q 430 144 393 121 q 489 205 467 167 q 511 289 511 243 q 489 374 511 336 q 430 435 467 412 q 347 458 393 458 q 264 435 301 458 q 204 374 227 412 q 182 289 182 336 q 204 205 182 243 q 264 144 227 167 q 346 121 301 121 z "},"r":{"ha":442,"x_min":71,"x_max":430,"o":"m 71 0 l 71 579 l 208 579 l 208 477 q 285 557 238 529 q 396 584 333 584 l 430 448 q 389 453 412 453 q 268 405 313 453 q 223 268 223 357 l 223 0 l 71 0 z "},"ŕ":{"ha":442,"x_min":71,"x_max":434,"o":"m 71 0 l 71 579 l 208 579 l 208 477 q 285 557 238 529 q 396 584 333 584 l 430 448 q 389 453 412 453 q 268 405 313 453 q 223 268 223 357 l 223 0 l 71 0 m 178 657 l 267 848 l 434 848 l 300 657 l 178 657 z "},"ř":{"ha":442,"x_min":40,"x_max":448,"o":"m 71 0 l 71 579 l 208 579 l 208 477 q 285 557 238 529 q 396 584 333 584 l 430 448 q 389 453 412 453 q 268 405 313 453 q 223 268 223 357 l 223 0 l 71 0 m 243 648 l 40 877 l 184 877 q 215 840 202 858 q 245 799 229 822 q 275 840 261 822 q 307 877 289 858 l 448 877 l 243 648 z "},"ŗ":{"ha":442,"x_min":-10,"x_max":430,"o":"m 71 0 l 71 579 l 208 579 l 208 477 q 285 557 238 529 q 396 584 333 584 l 430 448 q 389 453 412 453 q 268 405 313 453 q 223 268 223 357 l 223 0 l 71 0 m -10 -318 q 46 -223 24 -276 q 73 -107 68 -171 l 216 -107 q 194 -218 212 -165 q 146 -318 176 -271 l -10 -318 z "},"ȑ":{"ha":442,"x_min":-32,"x_max":430,"o":"m 71 0 l 71 579 l 208 579 l 208 477 q 285 557 238 529 q 396 584 333 584 l 430 448 q 389 453 412 453 q 268 405 313 453 q 223 268 223 357 l 223 0 l 71 0 m 306 657 l 200 839 l 359 839 l 419 657 l 306 657 m 74 657 l -32 839 l 127 839 l 187 657 l 74 657 z "},"ȓ":{"ha":442,"x_min":52,"x_max":434,"o":"m 71 0 l 71 579 l 208 579 l 208 477 q 285 557 238 529 q 396 584 333 584 l 430 448 q 389 453 412 453 q 268 405 313 453 q 223 268 223 357 l 223 0 l 71 0 m 52 642 q 78 737 52 695 q 147 803 103 779 q 243 828 190 828 q 340 803 296 828 q 409 737 384 779 q 434 642 434 695 l 322 642 q 299 698 322 675 q 243 721 275 721 q 189 698 212 721 q 165 642 165 675 l 52 642 z "},"s":{"ha":506,"x_min":45,"x_max":468,"o":"m 251 -17 q 138 1 196 -17 q 45 55 80 20 l 84 202 q 160 133 112 161 q 259 105 207 105 q 315 121 297 105 q 333 159 333 136 q 314 197 333 185 q 278 216 296 209 l 198 246 q 139 274 173 257 q 81 326 105 292 q 56 413 56 359 q 80 503 56 462 q 150 571 104 545 q 260 596 197 596 q 371 576 318 596 q 451 528 424 557 l 415 385 q 341 451 385 427 q 257 475 297 475 q 207 460 224 475 q 190 424 190 445 q 202 396 190 410 q 239 372 213 382 l 315 343 q 381 314 345 333 q 442 261 417 295 q 468 169 468 228 q 408 35 468 87 q 251 -17 347 -17 z "},"ś":{"ha":506,"x_min":45,"x_max":468,"o":"m 251 -17 q 138 1 196 -17 q 45 55 80 20 l 84 202 q 160 133 112 161 q 259 105 207 105 q 315 121 297 105 q 333 159 333 136 q 314 197 333 185 q 278 216 296 209 l 198 246 q 139 274 173 257 q 81 326 105 292 q 56 413 56 359 q 80 503 56 462 q 150 571 104 545 q 260 596 197 596 q 371 576 318 596 q 451 528 424 557 l 415 385 q 341 451 385 427 q 257 475 297 475 q 207 460 224 475 q 190 424 190 445 q 202 396 190 410 q 239 372 213 382 l 315 343 q 381 314 345 333 q 442 261 417 295 q 468 169 468 228 q 408 35 468 87 q 251 -17 347 -17 m 192 657 l 281 848 l 448 848 l 313 657 l 192 657 z "},"š":{"ha":506,"x_min":45,"x_max":468,"o":"m 251 -17 q 138 1 196 -17 q 45 55 80 20 l 84 202 q 160 133 112 161 q 259 105 207 105 q 315 121 297 105 q 333 159 333 136 q 314 197 333 185 q 278 216 296 209 l 198 246 q 139 274 173 257 q 81 326 105 292 q 56 413 56 359 q 80 503 56 462 q 150 571 104 545 q 260 596 197 596 q 371 576 318 596 q 451 528 424 557 l 415 385 q 341 451 385 427 q 257 475 297 475 q 207 460 224 475 q 190 424 190 445 q 202 396 190 410 q 239 372 213 382 l 315 343 q 381 314 345 333 q 442 261 417 295 q 468 169 468 228 q 408 35 468 87 q 251 -17 347 -17 m 257 648 l 53 877 l 198 877 q 229 840 215 858 q 258 799 242 822 q 289 840 275 822 q 320 877 303 858 l 461 877 l 257 648 z "},"ş":{"ha":506,"x_min":-1,"x_max":468,"o":"m -1 -182 l 177 -10 q 103 15 138 -1 q 45 55 68 32 l 84 202 q 160 133 112 161 q 259 105 207 105 q 315 121 297 105 q 333 159 333 136 q 314 197 333 185 q 278 216 296 209 l 198 246 q 139 274 173 257 q 81 326 105 292 q 56 413 56 359 q 80 503 56 462 q 150 571 104 545 q 260 596 197 596 q 371 576 318 596 q 451 528 424 557 l 415 385 q 341 451 385 427 q 257 475 297 475 q 207 460 224 475 q 190 424 190 445 q 202 396 190 410 q 239 372 213 382 l 315 343 q 381 314 345 333 q 442 261 417 295 q 468 169 468 228 q 425 53 468 100 q 313 -11 383 5 l 189 -182 l -1 -182 z "},"ŝ":{"ha":506,"x_min":45,"x_max":468,"o":"m 251 -17 q 138 1 196 -17 q 45 55 80 20 l 84 202 q 160 133 112 161 q 259 105 207 105 q 315 121 297 105 q 333 159 333 136 q 314 197 333 185 q 278 216 296 209 l 198 246 q 139 274 173 257 q 81 326 105 292 q 56 413 56 359 q 80 503 56 462 q 150 571 104 545 q 260 596 197 596 q 371 576 318 596 q 451 528 424 557 l 415 385 q 341 451 385 427 q 257 475 297 475 q 207 460 224 475 q 190 424 190 445 q 202 396 190 410 q 239 372 213 382 l 315 343 q 381 314 345 333 q 442 261 417 295 q 468 169 468 228 q 408 35 468 87 q 251 -17 347 -17 m 53 657 l 257 885 l 461 657 l 316 657 q 285 693 299 675 q 255 735 271 712 q 225 693 238 712 q 194 657 211 675 l 53 657 z "},"ș":{"ha":506,"x_min":45,"x_max":468,"o":"m 251 -17 q 138 1 196 -17 q 45 55 80 20 l 84 202 q 160 133 112 161 q 259 105 207 105 q 315 121 297 105 q 333 159 333 136 q 314 197 333 185 q 278 216 296 209 l 198 246 q 139 274 173 257 q 81 326 105 292 q 56 413 56 359 q 80 503 56 462 q 150 571 104 545 q 260 596 197 596 q 371 576 318 596 q 451 528 424 557 l 415 385 q 341 451 385 427 q 257 475 297 475 q 207 460 224 475 q 190 424 190 445 q 202 396 190 410 q 239 372 213 382 l 315 343 q 381 314 345 333 q 442 261 417 295 q 468 169 468 228 q 408 35 468 87 q 251 -17 347 -17 m 99 -318 q 155 -223 133 -276 q 182 -107 177 -171 l 325 -107 q 303 -218 321 -165 q 255 -318 285 -271 l 99 -318 z "},"ß":{"ha":723,"x_min":71,"x_max":656,"o":"m 350 -15 l 318 121 q 409 147 368 123 q 474 210 449 170 q 498 306 498 251 q 443 446 498 388 q 294 538 389 503 q 391 614 358 572 q 423 702 423 657 q 395 777 423 747 q 324 807 367 807 q 252 776 281 807 q 223 694 223 746 l 223 0 l 71 0 l 71 695 q 106 826 71 771 q 197 912 140 882 q 323 943 254 943 q 448 914 393 943 q 535 833 503 884 q 567 718 567 782 q 551 638 567 674 q 507 574 534 602 q 615 464 575 533 q 656 308 656 394 q 612 145 656 218 q 500 29 569 72 q 350 -15 430 -14 z "},"t":{"ha":434,"x_min":25,"x_max":410,"o":"m 139 0 l 139 457 l 25 457 l 25 579 l 142 579 l 142 772 l 287 772 l 287 579 l 410 579 l 410 457 l 290 457 l 290 0 l 139 0 z "},"ŧ":{"ha":434,"x_min":25,"x_max":410,"o":"m 139 0 l 139 242 l 35 242 l 35 337 l 139 337 l 139 457 l 25 457 l 25 579 l 142 579 l 142 772 l 287 772 l 287 579 l 410 579 l 410 457 l 290 457 l 290 337 l 400 337 l 400 242 l 290 242 l 290 0 l 139 0 z "},"ť":{"ha":521,"x_min":25,"x_max":532,"o":"m 139 0 l 139 457 l 25 457 l 25 579 l 142 579 l 142 772 l 287 772 l 287 579 l 410 579 l 410 457 l 290 457 l 290 0 l 139 0 m 330 673 q 377 788 359 724 q 396 926 394 851 l 532 926 q 515 794 530 857 q 472 673 500 730 l 330 673 z "},"ţ":{"ha":434,"x_min":-40,"x_max":410,"o":"m -40 -182 l 139 0 l 139 457 l 25 457 l 25 579 l 142 579 l 142 772 l 287 772 l 287 579 l 410 579 l 410 457 l 290 457 l 290 0 l 150 -182 l -40 -182 z "},"ț":{"ha":434,"x_min":25,"x_max":410,"o":"m 139 0 l 139 457 l 25 457 l 25 579 l 142 579 l 142 772 l 287 772 l 287 579 l 410 579 l 410 457 l 290 457 l 290 0 l 139 0 m 60 -318 q 116 -223 94 -276 q 143 -107 138 -171 l 285 -107 q 263 -218 282 -165 q 215 -318 245 -271 l 60 -318 z "},"u":{"ha":680,"x_min":60,"x_max":610,"o":"m 294 -17 q 179 13 233 -17 q 93 99 125 42 q 60 236 60 155 l 60 579 l 211 579 l 211 257 q 244 162 211 203 q 334 121 276 121 q 420 155 382 121 q 457 254 457 189 l 457 579 l 610 579 l 610 0 l 471 0 l 471 69 q 394 5 440 27 q 294 -17 347 -17 z "},"ú":{"ha":680,"x_min":60,"x_max":610,"o":"m 294 -17 q 179 13 233 -17 q 93 99 125 42 q 60 236 60 155 l 60 579 l 211 579 l 211 257 q 244 162 211 203 q 334 121 276 121 q 420 155 382 121 q 457 254 457 189 l 457 579 l 610 579 l 610 0 l 471 0 l 471 69 q 394 5 440 27 q 294 -17 347 -17 m 274 657 l 363 848 l 530 848 l 395 657 l 274 657 z "},"ŭ":{"ha":680,"x_min":60,"x_max":610,"o":"m 294 -17 q 179 13 233 -17 q 93 99 125 42 q 60 236 60 155 l 60 579 l 211 579 l 211 257 q 244 162 211 203 q 334 121 276 121 q 420 155 382 121 q 457 254 457 189 l 457 579 l 610 579 l 610 0 l 471 0 l 471 69 q 394 5 440 27 q 294 -17 347 -17 m 339 642 q 242 667 285 642 q 173 734 199 692 q 148 828 148 775 l 260 828 q 284 773 260 796 q 339 749 307 749 q 394 772 370 749 q 418 828 418 795 l 530 828 q 504 733 530 774 q 436 666 479 691 q 339 642 393 642 z "},"û":{"ha":680,"x_min":60,"x_max":610,"o":"m 294 -17 q 179 13 233 -17 q 93 99 125 42 q 60 236 60 155 l 60 579 l 211 579 l 211 257 q 244 162 211 203 q 334 121 276 121 q 420 155 382 121 q 457 254 457 189 l 457 579 l 610 579 l 610 0 l 471 0 l 471 69 q 394 5 440 27 q 294 -17 347 -17 m 135 657 l 339 885 l 543 657 l 398 657 q 367 693 381 675 q 337 735 353 712 q 307 693 320 712 q 276 657 293 675 l 135 657 z "},"ȕ":{"ha":680,"x_min":60,"x_max":610,"o":"m 294 -17 q 179 13 233 -17 q 93 99 125 42 q 60 236 60 155 l 60 579 l 211 579 l 211 257 q 244 162 211 203 q 334 121 276 121 q 420 155 382 121 q 457 254 457 189 l 457 579 l 610 579 l 610 0 l 471 0 l 471 69 q 394 5 440 27 q 294 -17 347 -17 m 401 657 l 295 839 l 454 839 l 514 657 l 401 657 m 170 657 l 64 839 l 223 839 l 283 657 l 170 657 z "},"ü":{"ha":680,"x_min":60,"x_max":610,"o":"m 294 -17 q 179 13 233 -17 q 93 99 125 42 q 60 236 60 155 l 60 579 l 211 579 l 211 257 q 244 162 211 203 q 334 121 276 121 q 420 155 382 121 q 457 254 457 189 l 457 579 l 610 579 l 610 0 l 471 0 l 471 69 q 394 5 440 27 q 294 -17 347 -17 m 214 670 q 156 695 180 670 q 132 752 132 720 q 157 811 132 787 q 214 834 181 834 q 272 810 249 834 q 296 752 296 786 q 272 694 296 719 q 214 670 248 670 m 463 670 q 405 695 429 670 q 381 752 381 720 q 406 811 381 787 q 463 834 430 834 q 521 810 498 834 q 545 752 545 786 q 521 694 545 719 q 463 670 497 670 z "},"ụ":{"ha":680,"x_min":60,"x_max":610,"o":"m 294 -17 q 179 13 233 -17 q 93 99 125 42 q 60 236 60 155 l 60 579 l 211 579 l 211 257 q 244 162 211 203 q 334 121 276 121 q 420 155 382 121 q 457 254 457 189 l 457 579 l 610 579 l 610 0 l 471 0 l 471 69 q 394 5 440 27 q 294 -17 347 -17 m 339 -258 q 278 -234 303 -258 q 254 -174 254 -209 q 278 -113 254 -137 q 339 -89 303 -89 q 399 -113 375 -89 q 423 -174 423 -137 q 399 -234 423 -209 q 339 -258 375 -258 z "},"ù":{"ha":680,"x_min":60,"x_max":610,"o":"m 294 -17 q 179 13 233 -17 q 93 99 125 42 q 60 236 60 155 l 60 579 l 211 579 l 211 257 q 244 162 211 203 q 334 121 276 121 q 420 155 382 121 q 457 254 457 189 l 457 579 l 610 579 l 610 0 l 471 0 l 471 69 q 394 5 440 27 q 294 -17 347 -17 m 283 657 l 148 848 l 315 848 l 403 657 l 283 657 z "},"ủ":{"ha":680,"x_min":60,"x_max":610,"o":"m 294 -17 q 179 13 233 -17 q 93 99 125 42 q 60 236 60 155 l 60 579 l 211 579 l 211 257 q 244 162 211 203 q 334 121 276 121 q 420 155 382 121 q 457 254 457 189 l 457 579 l 610 579 l 610 0 l 471 0 l 471 69 q 394 5 440 27 q 294 -17 347 -17 m 292 657 q 326 705 314 684 q 339 743 339 725 q 325 774 339 762 q 288 786 312 786 q 253 776 270 786 q 224 753 235 766 l 198 851 q 248 876 216 865 q 316 886 281 886 q 423 855 379 886 q 467 768 467 823 q 452 706 467 733 q 420 657 438 678 l 292 657 z "},"ư":{"ha":810,"x_min":60,"x_max":802,"o":"m 294 -17 q 179 13 233 -17 q 93 99 125 42 q 60 236 60 155 l 60 579 l 211 579 l 211 257 q 244 162 211 203 q 334 121 276 121 q 420 155 382 121 q 457 254 457 189 l 457 579 l 599 579 l 599 474 q 606 473 602 473 q 612 473 610 473 q 656 490 637 473 q 676 548 676 507 q 671 589 676 565 q 653 637 666 612 l 778 637 q 797 591 792 613 q 802 548 802 569 q 756 420 802 465 q 649 375 710 375 q 610 380 630 375 l 610 0 l 471 0 l 471 69 q 394 5 440 27 q 294 -17 347 -17 z "},"ứ":{"ha":810,"x_min":60,"x_max":802,"o":"m 294 -17 q 179 13 233 -17 q 93 99 125 42 q 60 236 60 155 l 60 579 l 211 579 l 211 257 q 244 162 211 203 q 334 121 276 121 q 420 155 382 121 q 457 254 457 189 l 457 579 l 599 579 l 599 474 q 606 473 602 473 q 612 473 610 473 q 656 490 637 473 q 676 548 676 507 q 671 589 676 565 q 653 637 666 612 l 778 637 q 797 591 792 613 q 802 548 802 569 q 756 420 802 465 q 649 375 710 375 q 610 380 630 375 l 610 0 l 471 0 l 471 69 q 394 5 440 27 q 294 -17 347 -17 m 271 657 l 360 848 l 527 848 l 393 657 l 271 657 z "},"ự":{"ha":810,"x_min":60,"x_max":802,"o":"m 294 -17 q 179 13 233 -17 q 93 99 125 42 q 60 236 60 155 l 60 579 l 211 579 l 211 257 q 244 162 211 203 q 334 121 276 121 q 420 155 382 121 q 457 254 457 189 l 457 579 l 599 579 l 599 474 q 606 473 602 473 q 612 473 610 473 q 656 490 637 473 q 676 548 676 507 q 671 589 676 565 q 653 637 666 612 l 778 637 q 797 591 792 613 q 802 548 802 569 q 756 420 802 465 q 649 375 710 375 q 610 380 630 375 l 610 0 l 471 0 l 471 69 q 394 5 440 27 q 294 -17 347 -17 m 339 -258 q 278 -234 303 -258 q 254 -174 254 -209 q 278 -113 254 -137 q 339 -89 303 -89 q 399 -113 375 -89 q 423 -174 423 -137 q 399 -234 423 -209 q 339 -258 375 -258 z "},"ừ":{"ha":810,"x_min":60,"x_max":802,"o":"m 294 -17 q 179 13 233 -17 q 93 99 125 42 q 60 236 60 155 l 60 579 l 211 579 l 211 257 q 244 162 211 203 q 334 121 276 121 q 420 155 382 121 q 457 254 457 189 l 457 579 l 599 579 l 599 474 q 606 473 602 473 q 612 473 610 473 q 656 490 637 473 q 676 548 676 507 q 671 589 676 565 q 653 637 666 612 l 778 637 q 797 591 792 613 q 802 548 802 569 q 756 420 802 465 q 649 375 710 375 q 610 380 630 375 l 610 0 l 471 0 l 471 69 q 394 5 440 27 q 294 -17 347 -17 m 280 657 l 145 848 l 313 848 l 400 657 l 280 657 z "},"ử":{"ha":810,"x_min":60,"x_max":802,"o":"m 294 -17 q 179 13 233 -17 q 93 99 125 42 q 60 236 60 155 l 60 579 l 211 579 l 211 257 q 244 162 211 203 q 334 121 276 121 q 420 155 382 121 q 457 254 457 189 l 457 579 l 599 579 l 599 474 q 606 473 602 473 q 612 473 610 473 q 656 490 637 473 q 676 548 676 507 q 671 589 676 565 q 653 637 666 612 l 778 637 q 797 591 792 613 q 802 548 802 569 q 756 420 802 465 q 649 375 710 375 q 610 380 630 375 l 610 0 l 471 0 l 471 69 q 394 5 440 27 q 294 -17 347 -17 m 289 657 q 324 705 312 684 q 336 743 336 725 q 322 774 336 762 q 285 786 309 786 q 250 776 267 786 q 221 753 232 766 l 195 851 q 245 876 213 865 q 313 886 278 886 q 420 855 376 886 q 464 768 464 823 q 449 706 464 733 q 417 657 435 678 l 289 657 z "},"ữ":{"ha":810,"x_min":60,"x_max":802,"o":"m 294 -17 q 179 13 233 -17 q 93 99 125 42 q 60 236 60 155 l 60 579 l 211 579 l 211 257 q 244 162 211 203 q 334 121 276 121 q 420 155 382 121 q 457 254 457 189 l 457 579 l 599 579 l 599 474 q 606 473 602 473 q 612 473 610 473 q 656 490 637 473 q 676 548 676 507 q 671 589 676 565 q 653 637 666 612 l 778 637 q 797 591 792 613 q 802 548 802 569 q 756 420 802 465 q 649 375 710 375 q 610 380 630 375 l 610 0 l 471 0 l 471 69 q 394 5 440 27 q 294 -17 347 -17 m 162 659 l 123 769 q 176 828 143 807 q 248 848 208 848 q 311 836 283 848 q 367 811 340 824 q 422 799 394 799 q 475 817 453 799 q 509 868 497 835 l 548 758 q 496 699 529 720 q 423 679 463 679 q 361 691 391 679 q 305 716 332 703 q 250 728 278 728 q 197 710 219 728 q 162 659 176 692 z "},"ű":{"ha":680,"x_min":60,"x_max":614,"o":"m 294 -17 q 179 13 233 -17 q 93 99 125 42 q 60 236 60 155 l 60 579 l 211 579 l 211 257 q 244 162 211 203 q 334 121 276 121 q 420 155 382 121 q 457 254 457 189 l 457 579 l 610 579 l 610 0 l 471 0 l 471 69 q 394 5 440 27 q 294 -17 347 -17 m 394 657 l 455 839 l 614 839 l 507 657 l 394 657 m 163 657 l 224 839 l 383 839 l 276 657 l 163 657 z "},"ȗ":{"ha":680,"x_min":60,"x_max":610,"o":"m 294 -17 q 179 13 233 -17 q 93 99 125 42 q 60 236 60 155 l 60 579 l 211 579 l 211 257 q 244 162 211 203 q 334 121 276 121 q 420 155 382 121 q 457 254 457 189 l 457 579 l 610 579 l 610 0 l 471 0 l 471 69 q 394 5 440 27 q 294 -17 347 -17 m 148 642 q 173 737 148 695 q 242 803 199 779 q 339 828 285 828 q 435 803 392 828 q 504 737 479 779 q 530 642 530 695 l 418 642 q 394 698 418 675 q 339 721 370 721 q 284 698 308 721 q 260 642 260 675 l 148 642 z "},"ū":{"ha":680,"x_min":60,"x_max":610,"o":"m 294 -17 q 179 13 233 -17 q 93 99 125 42 q 60 236 60 155 l 60 579 l 211 579 l 211 257 q 244 162 211 203 q 334 121 276 121 q 420 155 382 121 q 457 254 457 189 l 457 579 l 610 579 l 610 0 l 471 0 l 471 69 q 394 5 440 27 q 294 -17 347 -17 m 164 699 l 164 806 l 514 806 l 514 699 l 164 699 z "}}}
